{"glyphs":{"0":{"ha":1282,"x_min":168,"x_max":1392,"o":"m 568 -26 q 362 23 451 -26 q 220 178 272 72 q 168 449 168 283 q 195 705 168 574 q 274 962 222 836 q 398 1197 325 1088 q 563 1390 471 1306 q 763 1522 654 1475 q 994 1569 872 1569 q 1201 1518 1113 1569 q 1341 1365 1290 1467 q 1392 1110 1392 1263 q 1364 847 1392 981 q 1285 586 1336 714 q 1163 348 1235 458 q 999 153 1092 238 q 799 22 907 69 q 568 -26 692 -26 m 596 94 q 772 136 688 94 q 931 252 857 178 q 1066 424 1006 326 q 1169 632 1126 521 q 1236 859 1213 743 q 1260 1085 1260 975 q 1224 1295 1260 1215 q 1124 1412 1189 1375 q 969 1449 1060 1449 q 790 1407 875 1449 q 629 1292 704 1365 q 494 1122 554 1218 q 390 915 433 1025 q 324 692 347 806 q 301 474 301 579 q 337 249 301 332 q 438 130 372 165 q 596 94 504 94 z "},"1":{"ha":756,"x_min":244,"x_max":864,"o":"m 300 -19 q 258 -9 272 -19 q 250 22 244 1 l 688 1383 q 592 1318 640 1350 q 499 1258 544 1286 q 411 1210 453 1231 q 363 1197 382 1194 q 328 1228 343 1199 q 325 1274 315 1257 q 365 1307 335 1290 q 471 1368 414 1333 q 583 1442 528 1403 q 685 1519 638 1482 q 725 1551 708 1540 q 760 1565 742 1561 q 808 1569 779 1569 q 850 1559 836 1569 q 857 1528 864 1549 l 375 19 q 350 -11 369 -3 q 300 -19 331 -19 z "},"2":{"ha":1115,"x_min":-25,"x_max":1254,"o":"m 17 0 q -14 15 -3 0 q -22 51 -25 31 q -1 88 -19 72 l 440 436 q 657 610 560 529 q 831 764 754 692 q 964 900 907 836 q 1057 1023 1021 964 q 1112 1138 1093 1082 q 1131 1249 1131 1193 q 1101 1362 1131 1317 q 1017 1430 1072 1407 q 883 1453 963 1453 q 689 1414 775 1453 q 513 1308 603 1375 q 463 1286 483 1286 q 421 1313 443 1286 q 408 1352 403 1333 q 444 1397 414 1371 q 576 1485 503 1446 q 733 1547 649 1524 q 907 1569 818 1569 q 1047 1549 983 1569 q 1157 1488 1111 1528 q 1228 1390 1203 1447 q 1254 1263 1254 1333 q 1234 1128 1254 1194 q 1174 992 1214 1061 q 1071 851 1133 924 q 925 699 1008 778 q 737 531 842 619 q 504 342 632 442 l 211 111 l 897 111 q 917 104 911 111 q 924 83 924 97 q 906 23 924 46 q 868 0 889 0 l 17 0 z "},"3":{"ha":1168,"x_min":53,"x_max":1247,"o":"m 529 -26 q 348 6 435 -26 q 192 97 261 38 q 76 236 122 156 q 55 290 57 271 q 83 326 53 308 q 127 340 113 344 q 160 307 142 336 q 260 184 204 233 q 385 110 315 135 q 543 86 456 86 q 725 115 646 86 q 858 197 804 144 q 938 322 911 250 q 965 476 965 393 q 928 635 965 569 q 823 738 892 701 q 658 774 754 774 l 554 774 q 533 788 539 774 q 535 829 528 801 q 556 871 543 857 q 585 885 569 885 l 683 885 q 856 906 776 885 q 995 969 936 926 q 1088 1076 1054 1011 q 1121 1226 1121 1142 q 1103 1327 1121 1283 q 1050 1399 1085 1371 q 967 1442 1015 1428 q 863 1457 919 1457 q 740 1442 799 1457 q 627 1398 682 1428 q 517 1322 572 1368 q 473 1300 490 1300 q 431 1325 456 1300 q 415 1363 410 1346 q 449 1410 419 1381 q 569 1493 500 1457 q 718 1549 639 1529 q 879 1569 797 1569 q 1021 1547 954 1569 q 1139 1482 1088 1525 q 1219 1377 1190 1439 q 1247 1233 1247 1315 q 1224 1084 1247 1153 q 1153 962 1200 1015 q 1037 872 1107 908 q 872 817 967 835 q 990 748 940 796 q 1067 632 1039 700 q 1094 482 1094 564 q 1055 281 1094 374 q 941 119 1015 188 q 763 12 867 50 q 529 -26 658 -26 z "},"4":{"ha":1190,"x_min":100,"x_max":1199,"o":"m 768 -19 q 722 -10 738 -19 q 714 22 707 0 l 846 425 l 144 425 q 107 453 114 425 q 122 506 100 481 l 1004 1538 q 1042 1565 1022 1557 q 1092 1568 1061 1572 q 1128 1558 1114 1565 q 1145 1538 1143 1550 q 1129 1504 1147 1525 l 296 536 l 882 536 l 1053 1057 q 1124 1096 1065 1096 q 1170 1086 1156 1096 q 1178 1054 1185 1076 l 1007 536 l 1172 536 q 1192 528 1186 536 q 1199 508 1199 521 q 1181 447 1199 469 q 1143 425 1164 425 l 971 425 l 839 19 q 768 -19 826 -19 z "},"5":{"ha":1168,"x_min":58,"x_max":1354,"o":"m 543 -26 q 418 -12 481 -26 q 297 29 356 1 q 187 100 239 57 q 92 199 135 143 q 63 250 68 231 q 85 292 58 269 q 128 312 111 314 q 167 283 144 310 q 280 173 221 217 q 408 108 339 129 q 560 86 476 86 q 749 126 665 86 q 890 235 832 165 q 978 395 947 304 q 1008 589 1008 486 q 992 708 1008 656 q 942 796 975 760 q 858 851 908 832 q 739 869 807 869 q 608 853 671 869 q 490 808 546 836 q 383 742 433 779 q 333 720 361 725 q 289 730 306 715 q 285 783 272 744 l 540 1511 q 556 1532 543 1522 q 586 1542 568 1542 l 1328 1542 q 1347 1535 1340 1542 q 1354 1514 1354 1528 q 1337 1453 1354 1476 q 1299 1431 1319 1431 l 626 1431 l 435 882 q 530 933 479 911 q 635 967 581 954 q 743 981 690 981 q 956 933 868 981 q 1090 801 1043 886 q 1136 601 1136 715 q 1091 336 1136 453 q 965 139 1046 219 q 777 16 885 58 q 543 -26 669 -26 z "},"6":{"ha":1256,"x_min":222,"x_max":1321,"o":"m 653 -26 q 422 35 518 -26 q 274 213 325 96 q 222 497 222 331 q 271 831 222 674 q 410 1117 319 988 q 627 1344 500 1247 q 913 1499 754 1442 q 1253 1568 1071 1556 q 1299 1563 1283 1569 q 1318 1525 1315 1557 q 1307 1476 1321 1488 q 1260 1463 1293 1465 q 950 1394 1092 1449 q 697 1251 808 1340 q 508 1046 585 1163 q 390 792 431 929 q 350 501 350 654 q 372 318 350 397 q 436 188 394 239 q 536 110 478 136 q 667 85 594 85 q 842 120 764 85 q 977 221 921 156 q 1063 374 1033 286 q 1093 565 1093 461 q 1060 713 1093 650 q 968 810 1028 775 q 824 844 908 844 q 697 825 758 844 q 581 772 636 806 q 478 694 526 738 q 393 603 431 651 q 329 507 356 554 l 296 610 q 402 751 343 688 q 531 861 461 815 q 679 932 601 907 q 840 957 757 957 q 999 929 929 957 q 1118 852 1069 901 q 1193 734 1167 803 q 1219 582 1219 665 q 1179 337 1219 449 q 1065 143 1139 225 q 886 17 990 61 q 653 -26 782 -26 z "},"7":{"ha":947,"x_min":82,"x_max":1283,"o":"m 143 -18 q 88 1 94 -18 q 107 54 82 21 l 1094 1431 l 400 1431 q 379 1438 386 1431 q 372 1460 372 1446 q 390 1519 372 1496 q 428 1542 407 1542 l 1233 1542 q 1268 1521 1253 1542 q 1261 1467 1283 1500 l 238 40 q 197 -3 218 13 q 143 -18 175 -18 z "},"8":{"ha":1168,"x_min":99,"x_max":1283,"o":"m 542 -26 q 362 -1 443 -26 q 222 73 281 25 q 131 188 163 121 q 99 338 99 254 q 136 498 99 424 q 241 636 174 572 q 403 751 308 700 q 613 840 499 803 q 488 946 536 889 q 417 1065 440 1003 q 393 1185 393 1126 q 429 1344 393 1274 q 532 1465 465 1415 q 689 1542 599 1515 q 888 1569 779 1569 q 1044 1547 971 1569 q 1170 1484 1117 1525 q 1253 1386 1224 1443 q 1283 1261 1283 1329 q 1253 1119 1283 1185 q 1169 1000 1224 1054 q 1039 903 1114 946 q 874 828 964 860 q 1007 716 950 778 q 1096 583 1064 654 q 1128 433 1128 511 q 1083 239 1128 324 q 959 94 1039 154 q 773 4 879 35 q 542 -26 667 -26 m 568 88 q 738 111 660 88 q 874 180 815 135 q 966 288 933 225 q 999 428 999 350 q 966 565 999 501 q 872 681 933 628 q 724 778 810 733 q 524 696 615 742 q 367 594 433 650 q 263 474 300 539 q 226 339 226 410 q 255 228 226 275 q 331 150 283 181 q 440 103 379 119 q 568 88 501 88 m 765 888 q 974 983 886 928 q 1108 1103 1061 1038 q 1156 1239 1156 1169 q 1133 1332 1156 1292 q 1069 1400 1110 1372 q 977 1442 1029 1428 q 867 1456 925 1456 q 732 1439 794 1456 q 622 1388 669 1422 q 547 1306 574 1354 q 521 1192 521 1257 q 553 1072 521 1128 q 640 970 585 1017 q 765 888 696 924 z "},"9":{"ha":1256,"x_min":214,"x_max":1311,"o":"m 879 1575 q 1112 1514 1015 1575 q 1260 1335 1208 1453 q 1311 1051 1311 1218 q 1263 718 1311 875 q 1124 431 1214 561 q 906 204 1033 301 q 620 50 778 107 q 281 -19 463 -7 q 234 -15 250 -21 q 215 24 218 -8 q 227 72 214 61 q 272 86 240 83 q 583 154 442 100 q 836 297 725 208 q 1025 503 947 386 q 1143 757 1103 619 q 1183 1047 1183 894 q 1161 1231 1183 1151 q 1097 1361 1139 1310 q 997 1438 1056 1413 q 865 1464 939 1464 q 691 1428 769 1464 q 556 1328 613 1393 q 470 1175 500 1263 q 440 983 440 1088 q 473 836 440 899 q 566 739 506 774 q 710 704 626 704 q 836 724 775 704 q 952 777 897 743 q 1055 854 1007 811 q 1140 946 1103 897 q 1204 1042 1178 994 l 1238 939 q 1132 797 1192 861 q 1002 688 1072 733 q 853 617 932 642 q 692 592 775 592 q 534 619 604 592 q 415 697 464 647 q 340 815 365 746 q 314 967 314 883 q 354 1212 314 1100 q 469 1406 394 1324 q 647 1531 543 1488 q 879 1575 751 1575 z "},"\r":{"ha":417,"x_min":0,"x_max":0,"o":""}," ":{"ha":417,"x_min":0,"x_max":0,"o":""}," ":{"ha":139,"x_min":0,"x_max":0,"o":""}," ":{"ha":417,"x_min":0,"x_max":0,"o":""},"O":{"ha":1556,"x_min":249,"x_max":1583,"o":"m 742 -26 q 538 12 629 -26 q 381 123 446 50 q 283 299 317 196 q 249 532 249 403 q 275 776 249 653 q 353 1015 301 899 q 477 1231 404 1131 q 644 1408 550 1332 q 851 1526 739 1483 q 1093 1569 964 1569 q 1297 1531 1206 1569 q 1451 1421 1388 1493 q 1549 1247 1515 1349 q 1583 1017 1583 1144 q 1556 765 1583 890 q 1478 522 1529 639 q 1352 306 1426 406 q 1185 131 1278 206 q 981 15 1092 57 q 742 -26 869 -26 m 763 92 q 958 129 867 92 q 1126 233 1049 167 q 1264 387 1203 299 q 1367 578 1325 475 q 1432 788 1410 681 q 1454 1003 1454 896 q 1429 1194 1454 1111 q 1356 1335 1404 1278 q 1236 1422 1307 1393 q 1072 1451 1165 1451 q 879 1415 971 1451 q 710 1310 788 1378 q 572 1156 633 1243 q 467 967 510 1068 q 401 758 424 865 q 378 546 378 651 q 403 353 378 438 q 477 210 428 268 q 598 122 526 153 q 763 92 669 92 z "},"Ð":{"ha":1463,"x_min":110,"x_max":1504,"o":"m 171 0 q 122 39 110 0 l 599 1504 q 624 1533 606 1524 q 672 1542 642 1542 l 938 1542 q 1185 1507 1079 1542 q 1363 1408 1292 1472 q 1469 1258 1433 1344 q 1504 1067 1504 1171 q 1453 717 1504 881 q 1308 423 1403 554 q 1085 197 1214 292 q 801 51 957 103 q 469 0 644 0 l 171 0 m 269 118 l 469 118 q 752 162 618 118 q 999 288 886 206 q 1194 488 1111 371 q 1322 750 1276 604 q 1367 1065 1367 896 q 1338 1217 1367 1150 q 1252 1330 1308 1283 q 1116 1400 1196 1376 q 936 1424 1036 1424 l 694 1424 l 269 118 m 188 728 q 160 743 163 728 q 161 776 157 758 q 175 813 165 796 q 211 829 185 829 l 797 829 q 826 813 824 829 q 825 776 829 796 q 811 743 821 758 q 776 728 801 728 l 188 728 z "},"Ŋ":{"ha":1493,"x_min":104,"x_max":1669,"o":"m 1090 -207 q 1023 -361 1058 -308 q 946 -433 988 -414 q 850 -451 904 -451 q 753 -422 800 -451 q 672 -339 707 -392 q 660 -301 660 -318 q 686 -264 660 -283 q 725 -248 708 -247 q 756 -267 742 -249 q 792 -311 775 -293 q 826 -337 808 -329 q 861 -344 843 -344 q 908 -329 889 -344 q 942 -278 926 -314 q 978 -181 958 -242 l 1043 22 l 668 1343 l 238 19 q 214 -10 232 0 q 165 -19 196 -19 q 117 19 104 -19 l 607 1532 q 632 1560 614 1551 q 679 1569 650 1569 q 717 1560 704 1569 q 738 1532 731 1551 l 1108 222 l 1533 1532 q 1558 1560 1540 1551 q 1606 1569 1576 1569 q 1654 1532 1669 1569 l 1090 -207 z "},"Þ":{"ha":1214,"x_min":113,"x_max":1308,"o":"m 172 -19 q 127 -10 142 -19 q 118 22 113 0 l 608 1532 q 631 1560 615 1551 q 676 1569 646 1569 q 723 1560 708 1569 q 731 1528 738 1550 l 658 1313 l 864 1313 q 1110 1278 1011 1313 q 1258 1171 1208 1243 q 1308 988 1308 1099 q 1263 763 1308 861 q 1129 594 1217 665 q 919 477 1042 522 q 642 413 796 432 q 503 400 575 404 q 361 394 431 396 l 240 19 q 219 -10 233 0 q 172 -19 204 -19 m 396 506 q 485 508 439 506 q 580 514 532 510 q 671 525 628 518 q 951 608 836 550 q 1124 758 1065 667 q 1182 974 1182 850 q 1147 1105 1182 1054 q 1037 1178 1111 1156 q 847 1201 963 1201 l 622 1201 l 396 506 z "},"ẞ":{"ha":1467,"x_min":100,"x_max":1443,"o":"m 804 -26 q 690 -18 744 -26 q 584 7 635 -10 q 486 49 533 24 q 458 77 464 61 q 464 121 451 93 q 490 155 475 147 q 531 150 506 163 q 621 117 578 131 q 711 98 664 104 q 814 92 758 92 q 973 117 900 92 q 1100 192 1046 143 q 1184 308 1154 240 q 1214 457 1214 375 q 1200 567 1214 517 q 1162 662 1186 618 q 1108 744 1138 706 q 1047 818 1078 782 q 985 890 1015 854 q 932 965 956 926 q 894 1047 908 1004 q 881 1140 881 1090 q 907 1272 882 1214 q 978 1375 932 1331 q 1082 1449 1024 1419 q 851 1378 944 1426 q 696 1261 757 1331 q 593 1103 635 1192 q 518 908 551 1014 l 229 19 q 206 -10 224 0 q 157 -19 189 -19 q 113 -10 126 -19 q 107 21 100 0 l 394 907 q 485 1136 435 1032 q 606 1321 535 1240 q 778 1457 676 1401 q 1025 1541 881 1513 q 1368 1569 1169 1569 l 1414 1569 q 1439 1557 1435 1569 q 1432 1513 1443 1544 q 1410 1468 1424 1481 q 1375 1456 1396 1456 q 1233 1435 1300 1456 q 1115 1378 1167 1415 q 1035 1287 1064 1340 q 1007 1165 1006 1233 q 1022 1081 1007 1121 q 1060 1006 1036 1042 q 1115 935 1085 969 q 1176 863 1144 900 q 1238 784 1207 825 q 1292 694 1268 743 q 1329 588 1315 646 q 1343 461 1343 531 q 1303 266 1343 356 q 1191 111 1264 176 q 1019 10 1118 46 q 804 -26 921 -26 z "},"ŋ":{"ha":851,"x_min":17,"x_max":788,"o":"m 564 -151 q 503 -283 535 -239 q 438 -340 472 -326 q 358 -354 403 -354 q 281 -331 319 -354 q 215 -267 243 -308 q 200 -230 201 -246 q 225 -194 199 -214 q 263 -179 246 -179 q 293 -196 279 -179 q 335 -238 318 -226 q 369 -250 351 -250 q 413 -222 397 -250 q 451 -121 428 -193 l 651 478 q 663 547 664 517 q 643 594 661 576 q 583 611 625 611 q 492 584 540 611 q 396 507 444 557 q 301 388 347 457 q 215 235 254 318 l 144 15 q 124 -12 139 -3 q 78 -21 110 -21 q 36 -11 56 -21 q 26 25 17 -1 l 235 671 q 258 707 244 699 q 297 715 271 715 q 352 702 340 715 q 354 661 364 689 l 308 518 q 383 604 343 567 q 463 668 422 642 q 544 708 503 694 q 628 721 586 721 q 740 686 701 721 q 783 588 779 651 q 760 438 788 525 l 564 -151 z "},"$":{"ha":1140,"x_min":67,"x_max":1275,"o":"m 524 -29 q 374 -10 442 -29 q 251 40 306 8 q 153 110 196 71 q 79 188 111 149 q 75 219 67 204 q 97 247 83 233 q 131 267 115 263 q 160 256 146 271 q 253 174 200 213 q 374 113 306 136 q 525 89 442 89 q 686 112 613 89 q 815 179 760 135 q 900 288 869 224 q 931 435 931 353 q 914 530 931 488 q 866 608 897 572 q 790 674 835 643 q 688 738 746 706 q 588 798 635 767 q 503 865 542 829 q 436 943 464 900 q 393 1039 408 986 q 378 1158 378 1092 q 412 1323 378 1247 q 510 1453 446 1399 q 662 1539 574 1508 q 858 1569 750 1569 q 1015 1544 942 1569 q 1151 1477 1089 1519 q 1260 1386 1213 1435 q 1272 1356 1275 1372 q 1249 1324 1268 1340 q 1217 1306 1233 1308 q 1186 1315 1200 1304 q 1097 1382 1144 1351 q 990 1432 1049 1413 q 857 1451 932 1451 q 717 1432 782 1451 q 606 1375 653 1413 q 533 1283 560 1338 q 507 1158 507 1229 q 522 1059 507 1103 q 567 979 536 1015 q 644 910 597 943 q 756 843 692 878 q 883 763 826 804 q 978 673 939 721 q 1038 567 1017 625 q 1058 438 1058 510 q 1019 248 1058 333 q 906 100 979 163 q 736 4 833 38 q 524 -29 639 -29 m 375 -208 q 331 -169 318 -208 l 951 1735 q 1019 1772 964 1772 q 1063 1735 1075 1772 l 442 -169 q 375 -208 429 -208 z "},"€":{"ha":1304,"x_min":124,"x_max":1499,"o":"m 696 -26 q 514 13 593 -26 q 380 123 435 51 q 297 292 325 194 q 268 508 268 390 q 295 744 268 622 q 374 986 322 867 q 499 1210 425 1106 q 668 1397 574 1315 q 875 1524 763 1478 q 1115 1569 988 1569 q 1267 1547 1197 1569 q 1392 1481 1336 1524 q 1489 1376 1449 1439 q 1496 1349 1499 1363 q 1471 1321 1493 1336 q 1437 1306 1451 1306 q 1407 1321 1422 1306 q 1322 1393 1367 1364 q 1223 1438 1276 1422 q 1101 1453 1169 1453 q 908 1411 1000 1453 q 736 1298 815 1369 q 594 1133 657 1226 q 488 933 532 1039 q 419 720 443 828 q 394 513 394 613 q 415 335 394 414 q 476 203 436 257 q 574 119 515 149 q 710 90 633 90 q 822 106 767 90 q 930 150 876 121 q 1035 219 983 179 q 1142 307 1088 258 q 1175 319 1160 322 q 1206 300 1190 317 q 1224 267 1222 283 q 1210 235 1225 251 q 1034 86 1121 144 q 863 1 947 28 q 696 -26 779 -26 m 221 840 q 196 851 200 840 q 200 893 192 863 q 224 936 211 925 q 257 947 236 947 l 1144 947 q 1171 936 1165 947 q 1165 893 1176 925 q 1143 851 1156 863 q 1110 840 1131 840 l 221 840 m 154 613 q 128 624 133 613 q 133 667 124 636 q 156 710 144 699 q 189 721 168 721 l 1076 721 q 1103 710 1097 721 q 1097 667 1108 699 q 1075 624 1088 636 q 1042 613 1063 613 l 154 613 z "},"¢":{"ha":892,"x_min":119,"x_max":929,"o":"m 410 -26 q 249 14 314 -26 q 151 127 183 54 q 119 294 119 200 q 143 474 119 385 q 212 642 167 563 q 320 782 257 721 q 463 879 383 843 q 636 915 543 915 q 744 900 694 915 q 835 857 793 885 q 910 788 876 829 q 924 749 929 765 q 900 715 919 732 q 862 701 878 699 q 828 722 846 703 q 773 766 804 747 q 705 794 742 785 q 624 804 668 804 q 499 775 557 804 q 393 695 440 746 q 313 579 346 644 q 262 442 279 514 q 244 299 244 371 q 265 185 244 233 q 326 111 286 138 q 425 85 367 85 q 525 103 479 85 q 616 158 571 122 q 711 244 661 193 q 748 259 731 263 q 779 242 765 256 q 799 208 797 225 q 786 171 801 192 q 657 53 724 96 q 528 -8 590 10 q 410 -26 465 -26 m 306 -208 q 263 -169 249 -208 l 667 1074 q 735 1113 679 1113 q 778 1074 790 1113 l 374 -169 q 306 -208 360 -208 z "},"£":{"ha":1135,"x_min":-35,"x_max":1361,"o":"m -6 0 q -32 15 -29 0 q -25 60 -35 31 q -1 101 -14 92 q 31 111 11 111 l 242 111 l 404 611 l 228 611 q 201 624 206 611 q 207 668 197 638 q 231 710 218 700 q 264 721 243 721 l 440 721 l 606 1226 q 698 1417 643 1342 q 830 1531 753 1493 q 1008 1569 907 1569 q 1192 1530 1103 1569 q 1344 1424 1281 1490 q 1360 1388 1361 1406 q 1338 1350 1360 1371 q 1298 1331 1315 1331 q 1260 1349 1281 1331 q 1130 1429 1199 1401 q 1001 1457 1061 1457 q 831 1398 897 1457 q 724 1217 764 1339 l 561 721 l 924 721 q 948 710 943 721 q 943 668 953 699 q 921 624 933 638 q 888 611 908 611 l 526 611 l 363 111 l 994 111 q 1019 100 1014 111 q 1015 60 1025 89 q 994 15 1006 29 q 958 0 982 0 l -6 0 z "},"¥":{"ha":1132,"x_min":171,"x_max":1481,"o":"m 443 -19 q 394 19 382 -19 l 521 406 l 200 406 q 175 417 179 406 q 181 460 171 429 q 203 503 190 492 q 236 514 215 514 l 556 514 l 594 633 l 268 633 q 242 645 247 633 q 247 688 238 657 q 271 731 258 719 q 304 742 283 742 l 594 742 l 417 1507 q 426 1552 411 1535 q 476 1569 440 1569 q 519 1557 508 1569 q 536 1519 531 1544 l 703 807 l 1332 1529 q 1367 1560 1350 1550 q 1415 1569 1385 1569 q 1467 1548 1454 1569 q 1454 1497 1481 1526 l 792 742 l 1083 742 q 1109 731 1104 742 q 1103 688 1114 719 q 1081 645 1093 657 q 1047 633 1068 633 l 719 633 l 681 514 l 1015 514 q 1041 503 1036 514 q 1036 460 1046 492 q 1013 417 1026 429 q 979 406 1000 406 l 646 406 l 519 19 q 443 -19 507 -19 z "},"%":{"ha":1386,"x_min":108,"x_max":1538,"o":"m 544 896 q 417 928 469 896 q 338 1015 365 960 q 310 1138 310 1069 q 326 1254 310 1194 q 372 1370 342 1314 q 447 1472 403 1426 q 545 1543 490 1517 q 665 1569 600 1569 q 792 1539 740 1569 q 872 1456 844 1508 q 900 1333 900 1404 q 885 1223 900 1282 q 839 1106 869 1164 q 766 1000 808 1047 q 667 924 724 953 q 544 896 611 896 m 557 1001 q 633 1022 599 1001 q 695 1078 668 1043 q 742 1156 722 1114 q 772 1243 761 1199 q 782 1326 782 1288 q 748 1431 782 1397 q 656 1464 714 1464 q 577 1443 613 1464 q 514 1387 542 1422 q 467 1310 486 1351 q 438 1224 447 1268 q 428 1142 428 1181 q 463 1038 428 1074 q 557 1001 497 1001 m 196 -12 q 167 -28 182 -28 q 132 -12 153 -29 q 109 18 110 6 q 124 47 108 31 l 1449 1556 q 1478 1572 1464 1571 q 1513 1556 1493 1572 q 1535 1526 1533 1539 q 1522 1497 1538 1514 l 196 -12 m 996 -26 q 868 6 921 -26 q 788 92 815 38 q 760 217 760 147 q 776 332 760 272 q 823 448 793 392 q 897 549 853 504 q 996 621 940 594 q 1117 647 1051 647 q 1244 617 1192 647 q 1324 535 1296 588 q 1351 413 1351 482 q 1335 301 1351 361 q 1290 184 1319 242 q 1217 78 1260 126 q 1118 2 1174 31 q 996 -26 1063 -26 m 1008 81 q 1085 101 1050 81 q 1147 157 1119 122 q 1193 235 1174 192 q 1222 322 1213 278 q 1232 406 1232 367 q 1199 508 1232 475 q 1107 542 1165 542 q 1028 521 1064 542 q 965 465 993 500 q 917 388 936 431 q 888 302 899 346 q 878 221 878 258 q 913 116 878 151 q 1008 81 947 81 z "},".":{"ha":435,"x_min":32,"x_max":207,"o":"m 111 -47 q 51 -28 71 -47 q 32 26 32 -8 q 55 106 32 78 q 125 133 78 133 q 187 114 167 133 q 207 61 207 94 q 183 -19 207 10 q 111 -47 160 -47 z "},",":{"ha":435,"x_min":-85,"x_max":196,"o":"m -39 -306 q -69 -292 -53 -306 q -85 -264 -85 -278 q -83 -250 -85 -257 q -75 -236 -81 -243 q -2 -131 -31 -181 q 42 -32 26 -81 q 57 64 57 17 q 78 108 60 90 q 131 125 96 125 q 180 109 164 125 q 196 69 196 93 q 169 -58 196 10 q 99 -186 143 -125 q 1 -287 54 -247 q -20 -301 -10 -297 q -39 -306 -31 -306 z "},":":{"ha":435,"x_min":32,"x_max":393,"o":"m 111 -47 q 51 -28 71 -47 q 32 26 32 -8 q 55 106 32 78 q 125 133 78 133 q 187 114 167 133 q 207 61 207 94 q 183 -19 207 10 q 111 -47 160 -47 m 297 558 q 238 578 257 558 q 218 632 218 597 q 241 711 218 683 q 311 739 264 739 q 373 719 353 739 q 393 667 393 700 q 369 587 393 615 q 297 558 346 558 z "},";":{"ha":435,"x_min":-67,"x_max":393,"o":"m 297 558 q 238 578 257 558 q 218 632 218 597 q 241 711 218 683 q 311 739 264 739 q 373 719 353 739 q 393 667 393 700 q 369 587 393 615 q 297 558 346 558 m -21 -306 q -51 -292 -35 -306 q -67 -264 -67 -278 q -65 -250 -67 -257 q -57 -236 -62 -243 q 16 -131 -12 -181 q 60 -32 44 -81 q 75 64 75 17 q 96 108 78 90 q 149 125 114 125 q 198 109 182 125 q 214 69 214 93 q 188 -58 214 10 q 117 -186 161 -125 q 19 -287 72 -247 q -2 -301 8 -297 q -21 -306 -12 -306 z "},"…":{"ha":1178,"x_min":32,"x_max":950,"o":"m 483 -47 q 424 -28 443 -47 q 404 26 404 -8 q 427 106 404 78 q 497 133 450 133 q 559 114 539 133 q 579 61 579 94 q 556 -19 579 10 q 483 -47 532 -47 m 854 -47 q 794 -28 814 -47 q 775 26 775 -8 q 798 106 775 78 q 868 133 821 133 q 930 114 910 133 q 950 61 950 94 q 926 -19 950 10 q 854 -47 903 -47 m 111 -47 q 51 -28 71 -47 q 32 26 32 -8 q 55 106 32 78 q 125 133 78 133 q 187 114 167 133 q 207 61 207 94 q 183 -19 207 10 q 111 -47 160 -47 z "},"!":{"ha":599,"x_min":129,"x_max":744,"o":"m 286 300 q 238 339 224 300 l 611 1532 q 635 1560 618 1551 q 683 1569 653 1569 q 732 1532 744 1569 l 358 339 q 334 310 353 319 q 286 300 315 300 m 199 -19 q 151 -1 171 -19 q 131 53 132 18 q 154 124 129 90 q 231 157 179 157 q 278 139 258 157 q 297 85 297 121 q 276 14 300 47 q 199 -19 251 -19 z "},"¡":{"ha":599,"x_min":-133,"x_max":481,"o":"m 325 396 q 374 357 386 396 l 0 -836 q -24 -864 -6 -854 q -72 -874 -42 -874 q -121 -836 -133 -874 l 251 357 q 276 386 258 376 q 325 396 294 396 m 411 715 q 460 697 440 715 q 479 643 479 679 q 457 572 481 606 q 381 539 433 539 q 333 558 351 539 q 313 611 314 576 q 335 682 311 649 q 411 715 360 715 z "},"?":{"ha":874,"x_min":169,"x_max":1124,"o":"m 314 299 q 271 308 283 299 q 265 338 258 318 l 389 718 q 410 745 394 735 q 449 757 425 756 q 693 815 589 768 q 865 933 797 863 q 965 1086 932 1004 q 999 1250 999 1168 q 971 1360 999 1314 q 890 1433 943 1407 q 764 1458 838 1458 q 643 1440 704 1458 q 525 1390 582 1421 q 418 1321 468 1358 q 388 1318 404 1311 q 358 1344 371 1325 q 345 1380 346 1365 q 360 1407 344 1394 q 496 1496 426 1460 q 635 1551 565 1532 q 769 1569 706 1569 q 964 1528 885 1569 q 1083 1414 1043 1486 q 1124 1250 1124 1342 q 1081 1043 1124 1142 q 956 863 1038 944 q 756 726 874 781 q 488 650 638 671 l 386 338 q 362 308 381 318 q 314 299 343 299 m 238 -19 q 189 -1 208 -19 q 169 53 169 18 q 193 124 169 90 q 268 157 217 157 q 317 139 297 157 q 336 85 336 121 q 313 14 336 47 q 238 -19 290 -19 z "},"¿":{"ha":874,"x_min":-258,"x_max":696,"o":"m 553 397 q 595 388 582 397 q 601 358 608 378 l 476 -22 q 456 -49 471 -39 q 418 -61 442 -58 q 172 -119 276 -72 q 1 -237 68 -167 q -99 -390 -65 -308 q -132 -554 -132 -472 q -104 -664 -132 -617 q -24 -737 -76 -711 q 101 -762 28 -762 q 222 -743 161 -762 q 340 -692 283 -724 q 447 -625 397 -661 q 479 -622 463 -615 q 508 -649 496 -628 q 522 -684 521 -669 q 506 -711 522 -699 q 372 -800 442 -764 q 232 -855 301 -836 q 97 -874 163 -874 q -97 -832 -18 -874 q -217 -717 -176 -790 q -258 -554 -258 -644 q -215 -347 -258 -446 q -90 -167 -172 -249 q 110 -30 -8 -85 q 379 46 228 25 l 479 358 q 504 388 486 378 q 553 397 522 397 m 629 715 q 676 697 657 715 q 696 643 696 679 q 673 572 696 606 q 597 539 650 539 q 549 558 569 539 q 529 611 529 576 q 553 682 529 649 q 629 715 578 715 z "},"'":{"ha":235,"x_min":315,"x_max":546,"o":"m 349 1068 q 317 1081 318 1068 q 319 1111 315 1094 l 408 1449 q 433 1488 414 1471 q 486 1504 451 1504 q 535 1488 525 1504 q 538 1449 546 1471 l 407 1111 q 387 1081 400 1094 q 349 1068 374 1068 z "},"\"":{"ha":478,"x_min":315,"x_max":789,"o":"m 349 1068 q 317 1081 318 1068 q 319 1111 315 1094 l 408 1449 q 433 1488 414 1471 q 486 1504 451 1504 q 535 1488 525 1504 q 538 1449 546 1471 l 407 1111 q 387 1081 400 1094 q 349 1068 374 1068 m 592 1068 q 560 1081 561 1068 q 563 1111 558 1094 l 651 1449 q 676 1488 657 1471 q 729 1504 694 1504 q 778 1488 768 1504 q 781 1449 789 1471 l 650 1111 q 630 1081 643 1094 q 592 1068 617 1068 z "},"‘":{"ha":296,"x_min":331,"x_max":597,"o":"m 396 1071 q 347 1088 363 1071 q 331 1126 331 1104 q 344 1219 331 1169 q 381 1319 357 1269 q 438 1413 406 1369 q 511 1488 471 1457 q 533 1501 522 1497 q 551 1504 543 1504 q 581 1491 565 1504 q 597 1463 597 1478 q 595 1450 597 1457 q 588 1435 593 1443 q 519 1331 544 1379 q 482 1235 493 1282 q 469 1132 471 1188 q 449 1088 468 1106 q 396 1071 431 1071 z "},"’":{"ha":296,"x_min":310,"x_max":576,"o":"m 511 1504 q 560 1488 544 1504 q 576 1449 576 1472 q 563 1356 576 1406 q 526 1256 550 1306 q 468 1162 501 1206 q 396 1088 435 1118 q 374 1075 385 1079 q 356 1071 364 1071 q 326 1085 342 1071 q 310 1113 310 1099 q 312 1126 310 1119 q 319 1140 314 1132 q 388 1245 364 1197 q 424 1341 413 1293 q 438 1443 436 1389 q 458 1487 439 1469 q 511 1504 476 1504 z "},"‚":{"ha":317,"x_min":-132,"x_max":149,"o":"m -86 -306 q -116 -292 -100 -306 q -132 -264 -132 -278 q -130 -250 -132 -257 q -122 -236 -128 -243 q -49 -131 -78 -181 q -6 -32 -21 -81 q 10 64 10 17 q 31 108 13 90 q 83 125 49 125 q 133 109 117 125 q 149 69 149 93 q 122 -58 149 10 q 51 -186 96 -125 q -46 -287 7 -247 q -67 -301 -57 -297 q -86 -306 -78 -306 z "},"“":{"ha":551,"x_min":331,"x_max":853,"o":"m 396 1071 q 347 1088 363 1071 q 331 1126 331 1104 q 344 1219 331 1169 q 381 1319 357 1269 q 438 1413 406 1369 q 511 1488 471 1457 q 533 1501 522 1497 q 551 1504 543 1504 q 581 1491 565 1504 q 597 1463 597 1478 q 595 1450 597 1457 q 588 1435 593 1443 q 519 1331 544 1379 q 482 1235 493 1282 q 469 1132 471 1188 q 449 1088 468 1106 q 396 1071 431 1071 m 651 1071 q 602 1088 618 1071 q 586 1126 586 1104 q 599 1219 586 1169 q 637 1319 613 1269 q 694 1413 661 1369 q 767 1488 726 1457 q 788 1501 778 1497 q 807 1504 799 1504 q 837 1491 821 1504 q 853 1463 853 1478 q 851 1450 853 1457 q 843 1435 849 1443 q 774 1331 800 1379 q 738 1235 749 1282 q 725 1132 726 1188 q 705 1088 724 1106 q 651 1071 686 1071 z "},"”":{"ha":551,"x_min":310,"x_max":832,"o":"m 767 1504 q 816 1488 800 1504 q 832 1449 832 1472 q 819 1356 832 1406 q 781 1256 806 1306 q 724 1162 757 1206 q 651 1088 690 1118 q 630 1075 640 1079 q 611 1071 619 1071 q 581 1085 597 1071 q 565 1113 565 1099 q 567 1126 565 1119 q 575 1140 569 1132 q 644 1245 619 1197 q 680 1341 668 1293 q 693 1443 692 1389 q 713 1487 694 1469 q 767 1504 732 1504 m 511 1504 q 560 1488 544 1504 q 576 1449 576 1472 q 563 1356 576 1406 q 526 1256 550 1306 q 468 1162 501 1206 q 396 1088 435 1118 q 374 1075 385 1079 q 356 1071 364 1071 q 326 1085 342 1071 q 310 1113 310 1099 q 312 1126 310 1119 q 319 1140 314 1132 q 388 1245 364 1197 q 424 1341 413 1293 q 438 1443 436 1389 q 458 1487 439 1469 q 511 1504 476 1504 z "},"„":{"ha":567,"x_min":-132,"x_max":399,"o":"m 164 -306 q 134 -292 150 -306 q 118 -264 118 -278 q 120 -250 118 -257 q 128 -236 122 -243 q 201 -131 172 -181 q 244 -32 229 -81 q 260 64 260 17 q 281 108 263 90 q 333 125 299 125 q 383 109 367 125 q 399 69 399 93 q 372 -58 399 10 q 301 -186 346 -125 q 204 -287 257 -247 q 183 -301 193 -297 q 164 -306 172 -306 m -86 -306 q -116 -292 -100 -306 q -132 -264 -132 -278 q -130 -250 -132 -257 q -122 -236 -128 -243 q -49 -131 -78 -181 q -6 -32 -21 -81 q 10 64 10 17 q 31 108 13 90 q 83 125 49 125 q 133 109 117 125 q 149 69 149 93 q 122 -58 149 10 q 51 -186 96 -125 q -46 -287 7 -247 q -67 -301 -57 -297 q -86 -306 -78 -306 z "},"«":{"ha":1007,"x_min":129,"x_max":996,"o":"m 339 -19 q 303 -11 318 -19 q 276 19 288 -3 l 146 297 q 133 326 136 315 q 129 342 129 336 q 142 365 129 353 q 181 401 154 378 l 492 678 q 537 707 517 699 q 578 715 557 715 q 622 703 604 715 q 644 675 640 692 q 629 640 649 658 l 271 322 l 394 56 q 393 3 410 25 q 339 -19 376 -19 m 686 -19 q 650 -11 665 -19 q 624 19 635 -3 l 493 297 q 480 326 483 315 q 476 342 476 336 q 489 365 476 353 q 528 401 501 378 l 839 678 q 884 707 864 699 q 925 715 904 715 q 969 703 951 715 q 992 675 988 692 q 976 640 996 658 l 618 322 l 742 56 q 740 3 757 25 q 686 -19 724 -19 z "},"»":{"ha":1007,"x_min":13,"x_max":879,"o":"m 82 -21 q 38 -9 57 -21 q 16 20 19 3 q 32 54 13 38 l 388 374 l 265 639 q 267 692 251 671 q 321 714 283 714 q 358 706 342 714 q 383 675 374 699 l 514 397 q 528 369 524 379 q 532 353 532 360 q 519 330 532 343 q 479 293 507 317 l 168 18 q 124 -12 144 -3 q 82 -21 103 -21 m 429 -21 q 385 -9 404 -21 q 363 20 367 3 q 379 54 360 38 l 735 374 l 613 639 q 615 692 599 671 q 668 714 631 714 q 705 706 689 714 q 731 675 721 699 l 861 397 q 875 369 871 379 q 879 353 879 360 q 867 330 879 343 q 826 293 854 317 l 515 18 q 471 -12 492 -3 q 429 -21 450 -21 z "},"‹":{"ha":660,"x_min":129,"x_max":649,"o":"m 339 -19 q 303 -11 318 -19 q 276 19 288 -3 l 146 297 q 133 326 136 315 q 129 342 129 336 q 142 365 129 353 q 181 401 154 378 l 492 678 q 537 707 517 699 q 578 715 557 715 q 622 703 604 715 q 644 675 640 692 q 629 640 649 658 l 271 322 l 394 56 q 393 3 410 25 q 339 -19 376 -19 z "},"›":{"ha":660,"x_min":13,"x_max":532,"o":"m 82 -21 q 38 -9 57 -21 q 16 20 19 3 q 32 54 13 38 l 388 374 l 265 639 q 267 692 251 671 q 321 714 283 714 q 358 706 342 714 q 383 675 374 699 l 514 397 q 528 369 524 379 q 532 353 532 360 q 519 330 532 343 q 479 293 507 317 l 168 18 q 124 -12 144 -3 q 82 -21 103 -21 z "},"Á":{"ha":1263,"x_min":-72,"x_max":1218,"o":"m -14 -19 q -61 2 -50 -19 q -51 54 -72 24 l 901 1514 q 942 1558 922 1546 q 997 1569 963 1569 q 1039 1556 1024 1569 q 1056 1499 1054 1543 l 1118 43 q 1103 -2 1119 15 q 1051 -19 1088 -19 q 1011 -8 1021 -19 q 1000 32 1001 4 l 982 447 l 343 447 l 76 36 q 37 -10 51 0 q -14 -19 22 -19 m 418 558 l 978 558 l 944 1374 l 418 558 m 928 1632 q 893 1650 911 1632 q 875 1683 875 1668 q 877 1694 875 1689 q 889 1708 879 1700 l 1115 1913 q 1130 1924 1124 1919 q 1146 1928 1136 1928 q 1176 1915 1160 1928 q 1206 1886 1193 1903 q 1218 1854 1218 1869 q 1215 1836 1218 1843 q 1197 1819 1213 1829 l 954 1644 q 940 1635 946 1639 q 928 1632 933 1632 z "},"Ă":{"ha":1263,"x_min":-72,"x_max":1308,"o":"m -14 -19 q -61 2 -50 -19 q -51 54 -72 24 l 901 1514 q 942 1558 922 1546 q 997 1569 963 1569 q 1039 1556 1024 1569 q 1056 1499 1054 1543 l 1118 43 q 1103 -2 1119 15 q 1051 -19 1088 -19 q 1011 -8 1021 -19 q 1000 32 1001 4 l 982 447 l 343 447 l 76 36 q 37 -10 51 0 q -14 -19 22 -19 m 418 558 l 978 558 l 944 1374 l 418 558 m 997 1632 q 841 1694 894 1632 q 801 1883 788 1757 q 817 1913 804 1904 q 850 1922 829 1922 q 884 1912 871 1922 q 897 1883 897 1901 q 930 1783 896 1814 q 1018 1751 964 1751 q 1131 1788 1083 1751 q 1203 1881 1178 1825 q 1226 1914 1214 1906 q 1258 1922 1239 1922 q 1295 1909 1282 1922 q 1301 1875 1308 1896 q 1229 1727 1269 1781 q 1133 1653 1189 1674 q 997 1632 1076 1632 z "},"Ǎ":{"ha":1263,"x_min":-72,"x_max":1307,"o":"m -14 -19 q -61 2 -50 -19 q -51 54 -72 24 l 901 1514 q 942 1558 922 1546 q 997 1569 963 1569 q 1039 1556 1024 1569 q 1056 1499 1054 1543 l 1118 43 q 1103 -2 1119 15 q 1051 -19 1088 -19 q 1011 -8 1021 -19 q 1000 32 1001 4 l 982 447 l 343 447 l 76 36 q 37 -10 51 0 q -14 -19 22 -19 m 418 558 l 978 558 l 944 1374 l 418 558 m 1264 1921 q 1294 1904 1281 1921 q 1307 1872 1307 1888 q 1303 1852 1307 1860 q 1292 1839 1299 1844 l 1063 1664 q 1022 1641 1040 1649 q 982 1633 1004 1633 q 949 1643 964 1633 q 924 1669 935 1653 l 792 1850 q 783 1868 785 1861 q 782 1881 782 1875 q 802 1910 782 1899 q 835 1921 822 1921 q 858 1915 850 1921 q 874 1900 865 1908 l 1008 1774 l 1222 1901 q 1242 1914 1232 1907 q 1264 1921 1253 1921 z "},"Â":{"ha":1263,"x_min":-72,"x_max":1272,"o":"m -14 -19 q -61 2 -50 -19 q -51 54 -72 24 l 901 1514 q 942 1558 922 1546 q 997 1569 963 1569 q 1039 1556 1024 1569 q 1056 1499 1054 1543 l 1118 43 q 1103 -2 1119 15 q 1051 -19 1088 -19 q 1011 -8 1021 -19 q 1000 32 1001 4 l 982 447 l 343 447 l 76 36 q 37 -10 51 0 q -14 -19 22 -19 m 418 558 l 978 558 l 944 1374 l 418 558 m 788 1633 q 759 1650 771 1633 q 747 1682 747 1667 q 752 1701 747 1694 q 763 1714 757 1708 l 992 1890 q 1031 1914 1013 1907 q 1072 1921 1050 1921 q 1104 1912 1090 1921 q 1131 1885 1118 1903 l 1263 1704 q 1270 1687 1269 1694 q 1271 1672 1271 1679 q 1253 1644 1271 1656 q 1222 1633 1235 1633 q 1199 1640 1208 1633 q 1178 1656 1189 1646 l 1046 1781 l 831 1649 q 810 1638 821 1643 q 788 1633 799 1633 z "},"Ä":{"ha":1263,"x_min":-72,"x_max":1282,"o":"m -14 -19 q -61 2 -50 -19 q -51 54 -72 24 l 901 1514 q 942 1558 922 1546 q 997 1569 963 1569 q 1039 1556 1024 1569 q 1056 1499 1054 1543 l 1118 43 q 1103 -2 1119 15 q 1051 -19 1088 -19 q 1011 -8 1021 -19 q 1000 32 1001 4 l 982 447 l 343 447 l 76 36 q 37 -10 51 0 q -14 -19 22 -19 m 418 558 l 978 558 l 944 1374 l 418 558 m 838 1682 q 789 1700 808 1682 q 769 1754 769 1718 q 795 1824 769 1792 q 871 1857 821 1857 q 918 1840 899 1857 q 938 1786 938 1822 q 914 1715 938 1749 q 838 1682 890 1682 m 1179 1682 q 1131 1700 1151 1682 q 1111 1754 1111 1718 q 1137 1824 1111 1792 q 1213 1857 1163 1857 q 1260 1840 1240 1857 q 1281 1786 1281 1822 q 1256 1715 1281 1749 q 1179 1682 1232 1682 z "},"Ǽ":{"ha":1622,"x_min":-74,"x_max":1926,"o":"m 1406 0 l 778 0 q 728 13 743 0 q 724 56 714 25 l 938 715 l 608 715 l 53 1 q 19 -21 39 -17 q -29 -17 -1 -25 q -65 9 -57 -8 q -58 46 -74 26 l 1076 1499 q 1110 1531 1093 1521 q 1153 1542 1128 1542 l 1900 1542 q 1921 1528 1915 1542 q 1919 1486 1926 1515 q 1897 1445 1911 1460 q 1868 1431 1883 1431 l 1292 1431 l 1097 826 l 1563 826 q 1583 813 1578 826 q 1582 771 1589 799 q 1560 730 1574 744 q 1531 715 1546 715 l 1061 715 l 865 111 l 1438 111 q 1458 98 1453 111 q 1457 56 1464 85 q 1435 15 1449 29 q 1406 0 1421 0 m 694 826 l 974 826 l 1169 1438 l 694 826 m 1476 1632 q 1442 1650 1460 1632 q 1424 1683 1424 1668 q 1426 1694 1424 1689 q 1438 1708 1428 1700 l 1664 1913 q 1678 1924 1672 1919 q 1694 1928 1685 1928 q 1725 1915 1708 1928 q 1754 1886 1742 1903 q 1767 1854 1767 1869 q 1764 1836 1767 1843 q 1746 1819 1761 1829 l 1503 1644 q 1488 1635 1494 1639 q 1476 1632 1482 1632 z "},"À":{"ha":1263,"x_min":-72,"x_max":1125,"o":"m -14 -19 q -61 2 -50 -19 q -51 54 -72 24 l 901 1514 q 942 1558 922 1546 q 997 1569 963 1569 q 1039 1556 1024 1569 q 1056 1499 1054 1543 l 1118 43 q 1103 -2 1119 15 q 1051 -19 1088 -19 q 1011 -8 1021 -19 q 1000 32 1001 4 l 982 447 l 343 447 l 76 36 q 37 -10 51 0 q -14 -19 22 -19 m 418 558 l 978 558 l 944 1374 l 418 558 m 1074 1632 q 1061 1635 1068 1632 q 1046 1644 1054 1639 l 839 1819 q 822 1838 825 1831 q 818 1854 818 1844 q 831 1886 818 1869 q 862 1915 844 1903 q 892 1928 879 1928 q 908 1924 901 1928 q 921 1913 914 1919 l 1114 1707 q 1124 1693 1122 1699 q 1125 1682 1125 1688 q 1108 1650 1125 1668 q 1074 1632 1090 1632 z "},"Ā":{"ha":1263,"x_min":-72,"x_max":1271,"o":"m -14 -19 q -61 2 -50 -19 q -51 54 -72 24 l 901 1514 q 942 1558 922 1546 q 997 1569 963 1569 q 1039 1556 1024 1569 q 1056 1499 1054 1543 l 1118 43 q 1103 -2 1119 15 q 1051 -19 1088 -19 q 1011 -8 1021 -19 q 1000 32 1001 4 l 982 447 l 343 447 l 76 36 q 37 -10 51 0 q -14 -19 22 -19 m 418 558 l 978 558 l 944 1374 l 418 558 m 825 1718 q 792 1734 799 1718 q 793 1775 786 1750 q 813 1821 800 1806 q 850 1836 825 1836 l 1231 1836 q 1265 1819 1258 1836 q 1264 1775 1271 1801 q 1244 1733 1257 1747 q 1207 1718 1232 1718 l 825 1718 z "},"Ą":{"ha":1263,"x_min":-72,"x_max":1119,"o":"m -14 -19 q -61 2 -50 -19 q -51 54 -72 24 l 901 1514 q 942 1558 922 1546 q 997 1569 963 1569 q 1039 1556 1024 1569 q 1056 1499 1054 1543 l 1118 43 q 1103 -2 1119 15 q 1051 -19 1088 -19 q 1011 -8 1021 -19 q 1000 32 1001 4 l 982 447 l 343 447 l 76 36 q 37 -10 51 0 q -14 -19 22 -19 m 418 558 l 978 558 l 944 1374 l 418 558 m 851 -357 q 782 -334 807 -357 q 757 -271 757 -311 q 778 -196 757 -233 q 835 -123 799 -158 q 920 -51 872 -87 q 1022 24 968 -14 l 1111 24 l 1111 17 q 1024 -53 1065 -19 q 952 -117 983 -86 q 903 -174 921 -149 q 885 -221 885 -200 q 892 -242 885 -235 q 914 -250 900 -250 q 965 -234 940 -250 q 1022 -189 990 -218 q 1045 -177 1031 -179 q 1075 -190 1060 -175 q 1088 -213 1085 -200 q 1083 -240 1092 -226 q 1022 -299 1061 -272 q 937 -341 982 -325 q 851 -357 892 -357 z "},"Å":{"ha":1263,"x_min":-72,"x_max":1233,"o":"m -14 -19 q -61 2 -50 -19 q -51 54 -72 24 l 901 1514 q 942 1558 922 1546 q 997 1569 963 1569 q 1039 1556 1024 1569 q 1056 1499 1054 1543 l 1118 43 q 1103 -2 1119 15 q 1051 -19 1088 -19 q 1011 -8 1021 -19 q 1000 32 1001 4 l 982 447 l 343 447 l 76 36 q 37 -10 51 0 q -14 -19 22 -19 m 418 558 l 978 558 l 944 1374 l 418 558 m 1010 1622 q 916 1640 954 1622 q 858 1692 878 1658 q 839 1771 839 1725 q 868 1867 839 1824 q 947 1935 897 1910 q 1058 1960 997 1960 q 1154 1942 1115 1960 q 1213 1890 1193 1924 q 1233 1810 1233 1857 q 1203 1713 1233 1756 q 1124 1647 1174 1671 q 1010 1622 1074 1622 m 1017 1706 q 1099 1735 1065 1706 q 1132 1807 1132 1764 q 1113 1858 1132 1840 q 1053 1876 1093 1876 q 974 1847 1007 1876 q 940 1775 940 1817 q 960 1724 940 1742 q 1017 1706 981 1706 z "},"Ã":{"ha":1263,"x_min":-72,"x_max":1299,"o":"m -14 -19 q -61 2 -50 -19 q -51 54 -72 24 l 901 1514 q 942 1558 922 1546 q 997 1569 963 1569 q 1039 1556 1024 1569 q 1056 1499 1054 1543 l 1118 43 q 1103 -2 1119 15 q 1051 -19 1088 -19 q 1011 -8 1021 -19 q 1000 32 1001 4 l 982 447 l 343 447 l 76 36 q 37 -10 51 0 q -14 -19 22 -19 m 418 558 l 978 558 l 944 1374 l 418 558 m 803 1675 q 761 1714 758 1675 q 806 1847 769 1806 q 908 1889 843 1889 q 986 1874 951 1889 q 1049 1840 1021 1860 q 1103 1804 1078 1819 q 1153 1789 1128 1789 q 1181 1805 1168 1789 q 1200 1854 1194 1821 q 1258 1892 1207 1892 q 1290 1883 1281 1892 q 1297 1854 1299 1874 q 1253 1719 1289 1763 q 1151 1676 1218 1676 q 1073 1692 1108 1676 q 1009 1726 1038 1707 q 955 1761 981 1746 q 906 1776 929 1776 q 874 1759 886 1776 q 856 1708 861 1742 q 840 1683 853 1692 q 803 1675 826 1675 z "},"Ắ":{"ha":1263,"x_min":-72,"x_max":1308,"o":"m -14 -19 q -61 2 -50 -19 q -51 54 -72 24 l 901 1514 q 942 1558 922 1546 q 997 1569 963 1569 q 1039 1556 1024 1569 q 1056 1499 1054 1543 l 1118 43 q 1103 -2 1119 15 q 1051 -19 1088 -19 q 1011 -8 1021 -19 q 1000 32 1001 4 l 982 447 l 343 447 l 76 36 q 37 -10 51 0 q -14 -19 22 -19 m 418 558 l 978 558 l 944 1374 l 418 558 m 997 1632 q 841 1694 894 1632 q 801 1883 788 1757 q 817 1913 804 1904 q 850 1922 829 1922 q 884 1912 871 1922 q 897 1883 897 1901 q 930 1783 896 1814 q 1018 1751 964 1751 q 1131 1788 1083 1751 q 1203 1881 1178 1825 q 1226 1914 1214 1906 q 1258 1922 1239 1922 q 1295 1909 1282 1922 q 1301 1875 1308 1896 q 1229 1727 1269 1781 q 1133 1653 1189 1674 q 997 1632 1076 1632 m 988 1906 q 954 1924 972 1906 q 936 1957 936 1943 q 938 1968 936 1963 q 949 1982 939 1974 l 1175 2186 q 1190 2197 1183 2193 q 1207 2201 1197 2201 q 1238 2189 1221 2201 q 1266 2160 1254 2176 q 1278 2128 1278 2143 q 1275 2110 1278 2118 q 1257 2093 1272 2103 l 1015 1919 q 999 1910 1006 1914 q 988 1906 993 1906 z "},"Ặ":{"ha":1263,"x_min":-72,"x_max":1308,"o":"m -14 -19 q -61 2 -50 -19 q -51 54 -72 24 l 901 1514 q 942 1558 922 1546 q 997 1569 963 1569 q 1039 1556 1024 1569 q 1056 1499 1054 1543 l 1118 43 q 1103 -2 1119 15 q 1051 -19 1088 -19 q 1011 -8 1021 -19 q 1000 32 1001 4 l 982 447 l 343 447 l 76 36 q 37 -10 51 0 q -14 -19 22 -19 m 418 558 l 978 558 l 944 1374 l 418 558 m 424 -322 q 376 -304 396 -322 q 357 -251 357 -286 q 381 -181 357 -214 q 457 -147 406 -147 q 506 -165 486 -147 q 525 -218 525 -183 q 501 -290 525 -257 q 424 -322 476 -322 m 997 1632 q 841 1694 894 1632 q 801 1883 788 1757 q 817 1913 804 1904 q 850 1922 829 1922 q 884 1912 871 1922 q 897 1883 897 1901 q 930 1783 896 1814 q 1018 1751 964 1751 q 1131 1788 1083 1751 q 1203 1881 1178 1825 q 1226 1914 1214 1906 q 1258 1922 1239 1922 q 1295 1909 1282 1922 q 1301 1875 1308 1896 q 1229 1727 1269 1781 q 1133 1653 1189 1674 q 997 1632 1076 1632 z "},"Ằ":{"ha":1263,"x_min":-72,"x_max":1308,"o":"m -14 -19 q -61 2 -50 -19 q -51 54 -72 24 l 901 1514 q 942 1558 922 1546 q 997 1569 963 1569 q 1039 1556 1024 1569 q 1056 1499 1054 1543 l 1118 43 q 1103 -2 1119 15 q 1051 -19 1088 -19 q 1011 -8 1021 -19 q 1000 32 1001 4 l 982 447 l 343 447 l 76 36 q 37 -10 51 0 q -14 -19 22 -19 m 418 558 l 978 558 l 944 1374 l 418 558 m 997 1632 q 841 1694 894 1632 q 801 1883 788 1757 q 817 1913 804 1904 q 850 1922 829 1922 q 884 1912 871 1922 q 897 1883 897 1901 q 930 1783 896 1814 q 1018 1751 964 1751 q 1131 1788 1083 1751 q 1203 1881 1178 1825 q 1226 1914 1214 1906 q 1258 1922 1239 1922 q 1295 1909 1282 1922 q 1301 1875 1308 1896 q 1229 1727 1269 1781 q 1133 1653 1189 1674 q 997 1632 1076 1632 m 1126 1903 q 1114 1906 1121 1903 q 1099 1915 1107 1910 l 892 2090 q 874 2108 878 2101 q 871 2125 871 2115 q 884 2157 871 2140 q 915 2185 897 2174 q 946 2197 932 2197 q 960 2193 954 2197 q 974 2182 967 2189 l 1165 1978 q 1176 1963 1175 1968 q 1178 1953 1178 1958 q 1160 1920 1178 1938 q 1126 1903 1142 1903 z "},"Ẳ":{"ha":1263,"x_min":-72,"x_max":1308,"o":"m -14 -19 q -61 2 -50 -19 q -51 54 -72 24 l 901 1514 q 942 1558 922 1546 q 997 1569 963 1569 q 1039 1556 1024 1569 q 1056 1499 1054 1543 l 1118 43 q 1103 -2 1119 15 q 1051 -19 1088 -19 q 1011 -8 1021 -19 q 1000 32 1001 4 l 982 447 l 343 447 l 76 36 q 37 -10 51 0 q -14 -19 22 -19 m 418 558 l 978 558 l 944 1374 l 418 558 m 997 1632 q 841 1694 894 1632 q 801 1883 788 1757 q 817 1913 804 1904 q 850 1922 829 1922 q 884 1912 871 1922 q 897 1883 897 1901 q 930 1783 896 1814 q 1018 1751 964 1751 q 1131 1788 1083 1751 q 1203 1881 1178 1825 q 1226 1914 1214 1906 q 1258 1922 1239 1922 q 1295 1909 1282 1922 q 1301 1875 1308 1896 q 1229 1727 1269 1781 q 1133 1653 1189 1674 q 997 1632 1076 1632 m 1099 2206 q 1201 2176 1164 2206 q 1238 2096 1238 2147 q 1216 2024 1238 2056 q 1154 1969 1194 1992 q 1115 1942 1125 1954 q 1106 1915 1106 1929 l 1104 1897 q 1090 1872 1104 1881 q 1056 1862 1075 1863 q 1023 1869 1038 1861 q 1006 1893 1008 1876 l 1000 1926 q 1009 1983 994 1960 q 1054 2026 1024 2007 q 1090 2055 1079 2040 q 1101 2081 1101 2069 q 1093 2098 1101 2092 q 1068 2104 1085 2104 q 1031 2098 1051 2104 q 988 2082 1011 2092 q 935 2111 954 2065 q 956 2168 921 2146 q 1024 2196 989 2186 q 1099 2206 1058 2206 z "},"Ẵ":{"ha":1263,"x_min":-72,"x_max":1356,"o":"m -14 -19 q -61 2 -50 -19 q -51 54 -72 24 l 901 1514 q 942 1558 922 1546 q 997 1569 963 1569 q 1039 1556 1024 1569 q 1056 1499 1054 1543 l 1118 43 q 1103 -2 1119 15 q 1051 -19 1088 -19 q 1011 -8 1021 -19 q 1000 32 1001 4 l 982 447 l 343 447 l 76 36 q 37 -10 51 0 q -14 -19 22 -19 m 418 558 l 978 558 l 944 1374 l 418 558 m 997 1632 q 841 1694 894 1632 q 801 1883 788 1757 q 817 1913 804 1904 q 850 1922 829 1922 q 884 1912 871 1922 q 897 1883 897 1901 q 930 1783 896 1814 q 1018 1751 964 1751 q 1131 1788 1083 1751 q 1203 1881 1178 1825 q 1226 1914 1214 1906 q 1258 1922 1239 1922 q 1295 1909 1282 1922 q 1301 1875 1308 1896 q 1229 1727 1269 1781 q 1133 1653 1189 1674 q 997 1632 1076 1632 m 858 1960 q 817 1999 814 1960 q 862 2133 825 2090 q 964 2175 899 2175 q 1042 2160 1008 2175 q 1105 2124 1076 2144 q 1159 2089 1133 2104 q 1208 2074 1185 2074 q 1237 2090 1224 2074 q 1256 2140 1250 2106 q 1314 2176 1263 2176 q 1345 2167 1336 2176 q 1353 2140 1354 2158 q 1309 2006 1344 2049 q 1207 1963 1274 1963 q 1129 1977 1164 1963 q 1065 2011 1094 1992 q 1011 2046 1036 2031 q 961 2061 986 2061 q 929 2044 942 2061 q 911 1993 917 2028 q 895 1968 908 1976 q 858 1960 882 1960 z "},"Ấ":{"ha":1263,"x_min":-72,"x_max":1518,"o":"m -14 -19 q -61 2 -50 -19 q -51 54 -72 24 l 901 1514 q 942 1558 922 1546 q 997 1569 963 1569 q 1039 1556 1024 1569 q 1056 1499 1054 1543 l 1118 43 q 1103 -2 1119 15 q 1051 -19 1088 -19 q 1011 -8 1021 -19 q 1000 32 1001 4 l 982 447 l 343 447 l 76 36 q 37 -10 51 0 q -14 -19 22 -19 m 418 558 l 978 558 l 944 1374 l 418 558 m 788 1633 q 759 1650 771 1633 q 747 1682 747 1667 q 752 1701 747 1694 q 763 1714 757 1708 l 992 1890 q 1031 1914 1013 1907 q 1072 1921 1050 1921 q 1104 1912 1090 1921 q 1131 1885 1118 1903 l 1263 1704 q 1270 1687 1269 1694 q 1271 1672 1271 1679 q 1253 1644 1271 1656 q 1222 1633 1235 1633 q 1199 1640 1208 1633 q 1178 1656 1189 1646 l 1046 1781 l 831 1649 q 810 1638 821 1643 q 788 1633 799 1633 m 1267 1844 q 1233 1864 1251 1844 q 1214 1896 1214 1883 q 1216 1908 1214 1901 q 1228 1922 1218 1914 l 1414 2104 q 1429 2117 1422 2113 q 1446 2121 1436 2121 q 1476 2108 1460 2121 q 1506 2078 1493 2096 q 1518 2046 1518 2061 q 1515 2029 1518 2036 q 1496 2013 1511 2022 l 1293 1858 q 1278 1849 1285 1853 q 1267 1844 1272 1844 z "},"Ậ":{"ha":1263,"x_min":-72,"x_max":1272,"o":"m -14 -19 q -61 2 -50 -19 q -51 54 -72 24 l 901 1514 q 942 1558 922 1546 q 997 1569 963 1569 q 1039 1556 1024 1569 q 1056 1499 1054 1543 l 1118 43 q 1103 -2 1119 15 q 1051 -19 1088 -19 q 1011 -8 1021 -19 q 1000 32 1001 4 l 982 447 l 343 447 l 76 36 q 37 -10 51 0 q -14 -19 22 -19 m 418 558 l 978 558 l 944 1374 l 418 558 m 424 -322 q 376 -304 396 -322 q 357 -251 357 -286 q 381 -181 357 -214 q 457 -147 406 -147 q 506 -165 486 -147 q 525 -218 525 -183 q 501 -290 525 -257 q 424 -322 476 -322 m 788 1633 q 759 1650 771 1633 q 747 1682 747 1667 q 752 1701 747 1694 q 763 1714 757 1708 l 992 1890 q 1031 1914 1013 1907 q 1072 1921 1050 1921 q 1104 1912 1090 1921 q 1131 1885 1118 1903 l 1263 1704 q 1270 1687 1269 1694 q 1271 1672 1271 1679 q 1253 1644 1271 1656 q 1222 1633 1235 1633 q 1199 1640 1208 1633 q 1178 1656 1189 1646 l 1046 1781 l 831 1649 q 810 1638 821 1643 q 788 1633 799 1633 z "},"Ầ":{"ha":1263,"x_min":-72,"x_max":1408,"o":"m -14 -19 q -61 2 -50 -19 q -51 54 -72 24 l 901 1514 q 942 1558 922 1546 q 997 1569 963 1569 q 1039 1556 1024 1569 q 1056 1499 1054 1543 l 1118 43 q 1103 -2 1119 15 q 1051 -19 1088 -19 q 1011 -8 1021 -19 q 1000 32 1001 4 l 982 447 l 343 447 l 76 36 q 37 -10 51 0 q -14 -19 22 -19 m 418 558 l 978 558 l 944 1374 l 418 558 m 788 1633 q 759 1650 771 1633 q 747 1682 747 1667 q 752 1701 747 1694 q 763 1714 757 1708 l 992 1890 q 1031 1914 1013 1907 q 1072 1921 1050 1921 q 1104 1912 1090 1921 q 1131 1885 1118 1903 l 1263 1704 q 1270 1687 1269 1694 q 1271 1672 1271 1679 q 1253 1644 1271 1656 q 1222 1633 1235 1633 q 1199 1640 1208 1633 q 1178 1656 1189 1646 l 1046 1781 l 831 1649 q 810 1638 821 1643 q 788 1633 799 1633 m 1353 1822 q 1341 1825 1347 1822 q 1326 1836 1335 1828 l 1149 2026 q 1133 2044 1138 2038 q 1128 2061 1128 2051 q 1141 2094 1128 2078 q 1174 2122 1154 2111 q 1208 2133 1193 2133 q 1224 2129 1217 2133 q 1238 2117 1232 2125 l 1396 1901 q 1405 1885 1403 1890 q 1407 1874 1407 1879 q 1390 1840 1407 1858 q 1353 1822 1372 1822 z "},"Ẩ":{"ha":1263,"x_min":-72,"x_max":1479,"o":"m -14 -19 q -61 2 -50 -19 q -51 54 -72 24 l 901 1514 q 942 1558 922 1546 q 997 1569 963 1569 q 1039 1556 1024 1569 q 1056 1499 1054 1543 l 1118 43 q 1103 -2 1119 15 q 1051 -19 1088 -19 q 1011 -8 1021 -19 q 1000 32 1001 4 l 982 447 l 343 447 l 76 36 q 37 -10 51 0 q -14 -19 22 -19 m 418 558 l 978 558 l 944 1374 l 418 558 m 788 1633 q 759 1650 771 1633 q 747 1682 747 1667 q 752 1701 747 1694 q 763 1714 757 1708 l 992 1890 q 1031 1914 1013 1907 q 1072 1921 1050 1921 q 1104 1912 1090 1921 q 1131 1885 1118 1903 l 1263 1704 q 1270 1687 1269 1694 q 1271 1672 1271 1679 q 1253 1644 1271 1656 q 1222 1633 1235 1633 q 1199 1640 1208 1633 q 1178 1656 1189 1646 l 1046 1781 l 831 1649 q 810 1638 821 1643 q 788 1633 799 1633 m 1340 2163 q 1442 2133 1406 2163 q 1479 2053 1479 2104 q 1458 1981 1479 2013 q 1396 1926 1436 1949 q 1357 1899 1367 1911 q 1347 1872 1347 1886 l 1346 1854 q 1331 1828 1346 1838 q 1298 1819 1317 1819 q 1265 1826 1279 1818 q 1247 1850 1250 1833 l 1242 1883 q 1251 1940 1236 1917 q 1296 1983 1265 1964 q 1332 2012 1321 1997 q 1343 2038 1343 2026 q 1335 2055 1343 2049 q 1310 2061 1326 2061 q 1273 2055 1293 2061 q 1229 2039 1253 2049 q 1176 2068 1196 2022 q 1197 2125 1163 2103 q 1265 2153 1231 2143 q 1340 2163 1300 2163 z "},"Ẫ":{"ha":1263,"x_min":-72,"x_max":1367,"o":"m -14 -19 q -61 2 -50 -19 q -51 54 -72 24 l 901 1514 q 942 1558 922 1546 q 997 1569 963 1569 q 1039 1556 1024 1569 q 1056 1499 1054 1543 l 1118 43 q 1103 -2 1119 15 q 1051 -19 1088 -19 q 1011 -8 1021 -19 q 1000 32 1001 4 l 982 447 l 343 447 l 76 36 q 37 -10 51 0 q -14 -19 22 -19 m 418 558 l 978 558 l 944 1374 l 418 558 m 788 1633 q 759 1650 771 1633 q 747 1681 747 1667 q 752 1701 747 1694 q 763 1714 757 1708 l 992 1890 q 1031 1914 1013 1907 q 1072 1921 1050 1921 q 1104 1912 1090 1921 q 1131 1885 1118 1903 l 1263 1704 q 1270 1687 1269 1694 q 1271 1672 1271 1679 q 1253 1644 1271 1656 q 1222 1633 1235 1633 q 1199 1640 1208 1633 q 1178 1656 1189 1646 l 1046 1781 l 831 1649 q 810 1638 821 1643 q 788 1633 799 1633 m 871 1944 q 829 1982 826 1944 q 874 2116 838 2074 q 976 2158 911 2158 q 1054 2144 1019 2158 q 1117 2108 1089 2129 q 1171 2073 1146 2088 q 1221 2058 1196 2058 q 1249 2074 1236 2058 q 1268 2124 1263 2089 q 1326 2160 1274 2160 q 1358 2151 1349 2160 q 1364 2124 1367 2142 q 1322 1989 1357 2032 q 1219 1946 1286 1946 q 1141 1960 1176 1946 q 1077 1995 1106 1975 q 1023 2030 1049 2015 q 974 2044 997 2044 q 942 2028 954 2044 q 924 1976 929 2011 q 908 1953 921 1961 q 871 1944 894 1944 z "},"Ạ":{"ha":1263,"x_min":-72,"x_max":1119,"o":"m -14 -19 q -61 2 -50 -19 q -51 54 -72 24 l 901 1514 q 942 1558 922 1546 q 997 1569 963 1569 q 1039 1556 1024 1569 q 1056 1499 1054 1543 l 1118 43 q 1103 -2 1119 15 q 1051 -19 1088 -19 q 1011 -8 1021 -19 q 1000 32 1001 4 l 982 447 l 343 447 l 76 36 q 37 -10 51 0 q -14 -19 22 -19 m 418 558 l 978 558 l 944 1374 l 418 558 m 424 -322 q 376 -304 396 -322 q 357 -251 357 -286 q 381 -181 357 -214 q 457 -147 406 -147 q 506 -165 486 -147 q 525 -218 525 -183 q 501 -290 525 -257 q 424 -322 476 -322 z "},"Ả":{"ha":1263,"x_min":-72,"x_max":1193,"o":"m -14 -19 q -61 2 -50 -19 q -51 54 -72 24 l 901 1514 q 942 1558 922 1546 q 997 1569 963 1569 q 1039 1556 1024 1569 q 1056 1499 1054 1543 l 1118 43 q 1103 -2 1119 15 q 1051 -19 1088 -19 q 1011 -8 1021 -19 q 1000 32 1001 4 l 982 447 l 343 447 l 76 36 q 37 -10 51 0 q -14 -19 22 -19 m 418 558 l 978 558 l 944 1374 l 418 558 m 1054 1964 q 1156 1935 1119 1964 q 1193 1856 1193 1907 q 1172 1783 1193 1815 q 1110 1728 1150 1751 q 1072 1700 1082 1713 q 1061 1674 1063 1688 l 1060 1657 q 1046 1630 1060 1639 q 1013 1620 1032 1621 q 979 1628 994 1619 q 961 1651 964 1636 l 957 1685 q 965 1742 951 1718 q 1011 1785 979 1767 q 1047 1813 1035 1799 q 1058 1840 1058 1828 q 1049 1857 1058 1851 q 1024 1863 1040 1863 q 987 1857 1007 1863 q 944 1840 967 1851 q 890 1869 911 1824 q 913 1928 876 1906 q 979 1955 944 1946 q 1054 1964 1014 1964 z "},"Ć":{"ha":1304,"x_min":240,"x_max":1533,"o":"m 714 -26 q 517 10 604 -26 q 368 118 431 47 q 273 290 306 189 q 240 517 240 390 q 266 748 240 628 q 342 986 292 868 q 467 1209 393 1104 q 639 1395 542 1314 q 856 1523 736 1476 q 1118 1569 976 1569 q 1288 1547 1211 1569 q 1423 1483 1364 1525 q 1522 1383 1482 1442 q 1527 1356 1533 1368 q 1501 1329 1521 1344 q 1469 1313 1483 1315 q 1438 1328 1456 1311 q 1349 1396 1396 1368 q 1240 1438 1301 1424 q 1099 1451 1179 1451 q 896 1412 992 1451 q 719 1303 800 1372 q 573 1143 638 1233 q 464 950 508 1053 q 395 741 419 847 q 371 535 371 635 q 394 344 371 428 q 462 205 417 261 q 575 120 507 149 q 733 92 643 92 q 853 111 797 92 q 964 167 910 131 q 1072 252 1018 203 q 1186 361 1126 301 q 1219 371 1203 376 q 1249 349 1235 365 q 1269 315 1267 329 q 1256 283 1271 301 q 1062 101 1156 169 q 881 3 968 33 q 714 -26 794 -26 m 1074 1632 q 1039 1650 1057 1632 q 1021 1683 1021 1668 q 1023 1694 1021 1689 q 1035 1708 1025 1700 l 1261 1913 q 1276 1924 1269 1919 q 1292 1928 1282 1928 q 1322 1915 1306 1928 q 1351 1886 1339 1903 q 1364 1854 1364 1869 q 1361 1836 1364 1843 q 1343 1819 1358 1829 l 1100 1644 q 1085 1635 1092 1639 q 1074 1632 1079 1632 z "},"Č":{"ha":1304,"x_min":240,"x_max":1533,"o":"m 714 -26 q 517 10 604 -26 q 368 118 431 47 q 273 290 306 189 q 240 517 240 390 q 266 748 240 628 q 342 986 292 868 q 467 1209 393 1104 q 639 1395 542 1314 q 856 1523 736 1476 q 1118 1569 976 1569 q 1288 1547 1211 1569 q 1423 1483 1364 1525 q 1522 1383 1482 1442 q 1527 1356 1533 1368 q 1501 1329 1521 1344 q 1469 1313 1483 1315 q 1438 1328 1456 1311 q 1349 1396 1396 1368 q 1240 1438 1301 1424 q 1099 1451 1179 1451 q 896 1412 992 1451 q 719 1303 800 1372 q 573 1143 638 1233 q 464 950 508 1053 q 395 741 419 847 q 371 535 371 635 q 394 344 371 428 q 462 205 417 261 q 575 120 507 149 q 733 92 643 92 q 853 111 797 92 q 964 167 910 131 q 1072 252 1018 203 q 1186 361 1126 301 q 1219 371 1203 376 q 1249 349 1235 365 q 1269 315 1267 329 q 1256 283 1271 301 q 1062 101 1156 169 q 881 3 968 33 q 714 -26 794 -26 m 1410 1921 q 1440 1904 1426 1921 q 1453 1872 1453 1888 q 1449 1852 1453 1860 q 1438 1839 1444 1844 l 1208 1664 q 1168 1641 1186 1649 q 1128 1633 1150 1633 q 1095 1643 1110 1633 q 1069 1669 1081 1653 l 938 1850 q 929 1868 931 1861 q 928 1881 928 1875 q 948 1910 928 1899 q 981 1921 968 1921 q 1003 1915 996 1921 q 1019 1900 1011 1908 l 1154 1774 l 1368 1901 q 1388 1914 1378 1907 q 1410 1921 1399 1921 z "},"Ç":{"ha":1304,"x_min":240,"x_max":1533,"o":"m 714 -26 q 517 10 604 -26 q 368 118 431 47 q 273 290 306 189 q 240 517 240 390 q 266 748 240 628 q 342 986 292 868 q 467 1209 393 1104 q 639 1395 542 1314 q 856 1523 736 1476 q 1118 1569 976 1569 q 1288 1547 1211 1569 q 1423 1483 1364 1525 q 1522 1383 1482 1442 q 1527 1356 1533 1368 q 1501 1329 1521 1344 q 1469 1313 1483 1315 q 1438 1328 1456 1311 q 1349 1396 1396 1368 q 1240 1438 1301 1424 q 1099 1451 1179 1451 q 896 1412 992 1451 q 719 1303 800 1372 q 573 1143 638 1233 q 464 950 508 1053 q 395 741 419 847 q 371 535 371 635 q 394 344 371 428 q 462 205 417 261 q 575 120 507 149 q 733 92 643 92 q 853 111 797 92 q 964 167 910 131 q 1072 252 1018 203 q 1186 361 1126 301 q 1219 371 1203 376 q 1249 349 1235 365 q 1269 315 1267 329 q 1256 283 1271 301 q 1062 101 1156 169 q 881 3 968 33 q 714 -26 794 -26 m 553 -374 q 460 -363 501 -374 q 396 -335 419 -353 q 386 -306 385 -324 q 394 -276 388 -289 q 416 -252 404 -258 q 442 -251 428 -246 q 486 -269 460 -260 q 556 -278 513 -278 q 610 -267 590 -278 q 629 -229 629 -257 q 602 -191 629 -199 q 538 -187 575 -183 q 516 -185 522 -189 q 504 -172 510 -181 q 501 -153 499 -162 q 510 -135 503 -144 l 611 18 l 703 18 l 596 -146 l 556 -124 q 660 -112 617 -104 q 726 -147 703 -119 q 749 -215 749 -175 q 722 -302 749 -267 q 650 -356 694 -337 q 553 -374 606 -374 z "},"Ĉ":{"ha":1304,"x_min":240,"x_max":1533,"o":"m 714 -26 q 517 10 604 -26 q 368 118 431 47 q 273 290 306 189 q 240 517 240 390 q 266 748 240 628 q 342 986 292 868 q 467 1209 393 1104 q 639 1395 542 1314 q 856 1523 736 1476 q 1118 1569 976 1569 q 1288 1547 1211 1569 q 1423 1483 1364 1525 q 1522 1383 1482 1442 q 1527 1356 1533 1368 q 1501 1329 1521 1344 q 1469 1313 1483 1315 q 1438 1328 1456 1311 q 1349 1396 1396 1368 q 1240 1438 1301 1424 q 1099 1451 1179 1451 q 896 1412 992 1451 q 719 1303 800 1372 q 573 1143 638 1233 q 464 950 508 1053 q 395 741 419 847 q 371 535 371 635 q 394 344 371 428 q 462 205 417 261 q 575 120 507 149 q 733 92 643 92 q 853 111 797 92 q 964 167 910 131 q 1072 252 1018 203 q 1186 361 1126 301 q 1219 371 1203 376 q 1249 349 1235 365 q 1269 315 1267 329 q 1256 283 1271 301 q 1062 101 1156 169 q 881 3 968 33 q 714 -26 794 -26 m 933 1633 q 905 1650 917 1633 q 893 1682 893 1667 q 898 1701 893 1694 q 908 1714 903 1708 l 1138 1890 q 1177 1914 1158 1907 q 1218 1921 1196 1921 q 1250 1912 1236 1921 q 1276 1885 1264 1903 l 1408 1704 q 1416 1687 1415 1694 q 1417 1672 1417 1679 q 1399 1644 1417 1656 q 1368 1633 1381 1633 q 1344 1640 1354 1633 q 1324 1656 1335 1646 l 1192 1781 l 976 1649 q 956 1638 967 1643 q 933 1633 944 1633 z "},"Ċ":{"ha":1304,"x_min":240,"x_max":1533,"o":"m 714 -26 q 517 10 604 -26 q 368 118 431 47 q 273 290 306 189 q 240 517 240 390 q 266 748 240 628 q 342 986 292 868 q 467 1209 393 1104 q 639 1395 542 1314 q 856 1523 736 1476 q 1118 1569 976 1569 q 1288 1547 1211 1569 q 1423 1483 1364 1525 q 1522 1383 1482 1442 q 1527 1356 1533 1368 q 1501 1329 1521 1344 q 1469 1313 1483 1315 q 1438 1328 1456 1311 q 1349 1396 1396 1368 q 1240 1438 1301 1424 q 1099 1451 1179 1451 q 896 1412 992 1451 q 719 1303 800 1372 q 573 1143 638 1233 q 464 950 508 1053 q 395 741 419 847 q 371 535 371 635 q 394 344 371 428 q 462 205 417 261 q 575 120 507 149 q 733 92 643 92 q 853 111 797 92 q 964 167 910 131 q 1072 252 1018 203 q 1186 361 1126 301 q 1219 371 1203 376 q 1249 349 1235 365 q 1269 315 1267 329 q 1256 283 1271 301 q 1062 101 1156 169 q 881 3 968 33 q 714 -26 794 -26 m 1154 1682 q 1106 1700 1125 1682 q 1086 1754 1086 1718 q 1111 1824 1086 1792 q 1188 1857 1136 1857 q 1235 1840 1215 1857 q 1254 1786 1254 1822 q 1231 1715 1254 1749 q 1154 1682 1207 1682 z "},"Ď":{"ha":1463,"x_min":110,"x_max":1504,"o":"m 171 0 q 122 39 110 0 l 599 1504 q 624 1533 606 1524 q 672 1542 642 1542 l 938 1542 q 1185 1507 1079 1542 q 1363 1408 1292 1472 q 1469 1258 1433 1344 q 1504 1067 1504 1171 q 1453 717 1504 881 q 1308 423 1403 554 q 1085 197 1214 292 q 801 51 957 103 q 469 0 644 0 l 171 0 m 269 118 l 469 118 q 752 162 618 118 q 999 288 886 206 q 1194 488 1111 371 q 1322 750 1276 604 q 1367 1065 1367 896 q 1338 1217 1367 1150 q 1252 1330 1308 1283 q 1116 1400 1196 1376 q 936 1424 1036 1424 l 694 1424 l 269 118 m 1353 1921 q 1383 1904 1369 1921 q 1396 1872 1396 1888 q 1392 1852 1396 1860 q 1381 1839 1388 1844 l 1151 1664 q 1111 1641 1129 1649 q 1071 1633 1093 1633 q 1038 1643 1053 1633 q 1013 1669 1024 1653 l 881 1850 q 872 1868 874 1861 q 871 1881 871 1875 q 891 1910 871 1899 q 924 1921 911 1921 q 947 1915 939 1921 q 963 1900 954 1908 l 1097 1774 l 1311 1901 q 1331 1914 1321 1907 q 1353 1921 1342 1921 z "},"Đ":{"ha":1463,"x_min":110,"x_max":1504,"o":"m 171 0 q 122 39 110 0 l 599 1504 q 624 1533 606 1524 q 672 1542 642 1542 l 938 1542 q 1185 1507 1079 1542 q 1363 1408 1292 1472 q 1469 1258 1433 1344 q 1504 1067 1504 1171 q 1453 717 1504 881 q 1308 423 1403 554 q 1085 197 1214 292 q 801 51 957 103 q 469 0 644 0 l 171 0 m 269 118 l 469 118 q 752 162 618 118 q 999 288 886 206 q 1194 488 1111 371 q 1322 750 1276 604 q 1367 1065 1367 896 q 1338 1217 1367 1150 q 1252 1330 1308 1283 q 1116 1400 1196 1376 q 936 1424 1036 1424 l 694 1424 l 269 118 m 188 728 q 160 743 163 728 q 161 776 157 758 q 175 813 165 796 q 211 829 185 829 l 797 829 q 826 813 824 829 q 825 776 829 796 q 811 743 821 758 q 776 728 801 728 l 188 728 z "},"É":{"ha":1114,"x_min":122,"x_max":1419,"o":"m 185 0 q 136 13 150 0 q 131 56 122 25 l 597 1504 q 619 1532 604 1522 q 663 1542 635 1542 l 1393 1542 q 1414 1528 1408 1542 q 1411 1486 1419 1515 q 1390 1445 1404 1460 q 1361 1431 1376 1431 l 696 1431 l 515 871 l 1069 871 q 1090 857 1085 871 q 1089 815 1096 843 q 1067 774 1081 788 q 1038 760 1053 760 l 479 760 l 272 111 l 931 111 q 952 98 946 111 q 950 56 958 85 q 929 15 943 29 q 900 0 915 0 l 185 0 m 963 1632 q 928 1650 946 1632 q 910 1683 910 1668 q 912 1694 910 1689 q 924 1708 914 1700 l 1150 1913 q 1165 1924 1158 1919 q 1181 1928 1171 1928 q 1211 1915 1194 1928 q 1240 1886 1228 1903 q 1253 1854 1253 1869 q 1250 1836 1253 1843 q 1232 1819 1247 1829 l 989 1644 q 974 1635 981 1639 q 963 1632 968 1632 z "},"Ĕ":{"ha":1114,"x_min":122,"x_max":1419,"o":"m 185 0 q 136 13 150 0 q 131 56 122 25 l 597 1504 q 619 1532 604 1522 q 663 1542 635 1542 l 1393 1542 q 1414 1528 1408 1542 q 1411 1486 1419 1515 q 1390 1445 1404 1460 q 1361 1431 1376 1431 l 696 1431 l 515 871 l 1069 871 q 1090 857 1085 871 q 1089 815 1096 843 q 1067 774 1081 788 q 1038 760 1053 760 l 479 760 l 272 111 l 931 111 q 952 98 946 111 q 950 56 958 85 q 929 15 943 29 q 900 0 915 0 l 185 0 m 1032 1632 q 876 1694 929 1632 q 836 1883 822 1757 q 851 1913 839 1904 q 885 1922 864 1922 q 919 1912 906 1922 q 932 1883 932 1901 q 965 1783 931 1814 q 1053 1751 999 1751 q 1165 1788 1118 1751 q 1238 1881 1213 1825 q 1261 1914 1249 1906 q 1293 1922 1274 1922 q 1330 1909 1317 1922 q 1336 1875 1343 1896 q 1264 1727 1304 1781 q 1167 1653 1224 1674 q 1032 1632 1111 1632 z "},"Ě":{"ha":1114,"x_min":122,"x_max":1419,"o":"m 185 0 q 136 13 150 0 q 131 56 122 25 l 597 1504 q 619 1532 604 1522 q 663 1542 635 1542 l 1393 1542 q 1414 1528 1408 1542 q 1411 1486 1419 1515 q 1390 1445 1404 1460 q 1361 1431 1376 1431 l 696 1431 l 515 871 l 1069 871 q 1090 857 1085 871 q 1089 815 1096 843 q 1067 774 1081 788 q 1038 760 1053 760 l 479 760 l 272 111 l 931 111 q 952 98 946 111 q 950 56 958 85 q 929 15 943 29 q 900 0 915 0 l 185 0 m 1299 1921 q 1328 1904 1315 1921 q 1342 1872 1342 1888 q 1338 1852 1342 1860 q 1326 1839 1333 1844 l 1097 1664 q 1057 1641 1075 1649 q 1017 1633 1039 1633 q 984 1643 999 1633 q 958 1669 969 1653 l 826 1850 q 818 1868 819 1861 q 817 1881 817 1875 q 837 1910 817 1899 q 869 1921 857 1921 q 892 1915 885 1921 q 908 1900 900 1908 l 1043 1774 l 1257 1901 q 1277 1914 1267 1907 q 1299 1921 1288 1921 z "},"Ê":{"ha":1114,"x_min":122,"x_max":1419,"o":"m 185 0 q 136 13 150 0 q 131 56 122 25 l 597 1504 q 619 1532 604 1522 q 663 1542 635 1542 l 1393 1542 q 1414 1528 1408 1542 q 1411 1486 1419 1515 q 1390 1445 1404 1460 q 1361 1431 1376 1431 l 696 1431 l 515 871 l 1069 871 q 1090 857 1085 871 q 1089 815 1096 843 q 1067 774 1081 788 q 1038 760 1053 760 l 479 760 l 272 111 l 931 111 q 952 98 946 111 q 950 56 958 85 q 929 15 943 29 q 900 0 915 0 l 185 0 m 822 1633 q 794 1650 806 1633 q 782 1682 782 1667 q 787 1701 782 1694 q 797 1714 792 1708 l 1026 1890 q 1066 1914 1047 1907 q 1107 1921 1085 1921 q 1139 1912 1125 1921 q 1165 1885 1153 1903 l 1297 1704 q 1305 1687 1304 1694 q 1306 1672 1306 1679 q 1288 1644 1306 1656 q 1257 1633 1269 1633 q 1233 1640 1243 1633 q 1213 1656 1224 1646 l 1081 1781 l 865 1649 q 844 1638 856 1643 q 822 1633 833 1633 z "},"Ë":{"ha":1114,"x_min":122,"x_max":1419,"o":"m 185 0 q 136 13 150 0 q 131 56 122 25 l 597 1504 q 619 1532 604 1522 q 663 1542 635 1542 l 1393 1542 q 1414 1528 1408 1542 q 1411 1486 1419 1515 q 1390 1445 1404 1460 q 1361 1431 1376 1431 l 696 1431 l 515 871 l 1069 871 q 1090 857 1085 871 q 1089 815 1096 843 q 1067 774 1081 788 q 1038 760 1053 760 l 479 760 l 272 111 l 931 111 q 952 98 946 111 q 950 56 958 85 q 929 15 943 29 q 900 0 915 0 l 185 0 m 874 1682 q 825 1700 844 1682 q 806 1754 806 1718 q 831 1824 806 1792 q 907 1857 857 1857 q 954 1840 935 1857 q 974 1786 974 1822 q 950 1715 974 1749 q 874 1682 926 1682 m 1215 1682 q 1167 1700 1188 1682 q 1147 1754 1147 1718 q 1173 1824 1147 1792 q 1249 1857 1199 1857 q 1297 1840 1276 1857 q 1317 1786 1317 1822 q 1292 1715 1317 1749 q 1215 1682 1268 1682 z "},"Ė":{"ha":1114,"x_min":122,"x_max":1419,"o":"m 185 0 q 136 13 150 0 q 131 56 122 25 l 597 1504 q 619 1532 604 1522 q 663 1542 635 1542 l 1393 1542 q 1414 1528 1408 1542 q 1411 1486 1419 1515 q 1390 1445 1404 1460 q 1361 1431 1376 1431 l 696 1431 l 515 871 l 1069 871 q 1090 857 1085 871 q 1089 815 1096 843 q 1067 774 1081 788 q 1038 760 1053 760 l 479 760 l 272 111 l 931 111 q 952 98 946 111 q 950 56 958 85 q 929 15 943 29 q 900 0 915 0 l 185 0 m 1043 1682 q 994 1700 1014 1682 q 975 1754 975 1718 q 1000 1824 975 1792 q 1076 1857 1025 1857 q 1124 1840 1104 1857 q 1143 1786 1143 1822 q 1119 1715 1143 1749 q 1043 1682 1096 1682 z "},"È":{"ha":1114,"x_min":122,"x_max":1419,"o":"m 185 0 q 136 13 150 0 q 131 56 122 25 l 597 1504 q 619 1532 604 1522 q 663 1542 635 1542 l 1393 1542 q 1414 1528 1408 1542 q 1411 1486 1419 1515 q 1390 1445 1404 1460 q 1361 1431 1376 1431 l 696 1431 l 515 871 l 1069 871 q 1090 857 1085 871 q 1089 815 1096 843 q 1067 774 1081 788 q 1038 760 1053 760 l 479 760 l 272 111 l 931 111 q 952 98 946 111 q 950 56 958 85 q 929 15 943 29 q 900 0 915 0 l 185 0 m 1108 1632 q 1096 1635 1103 1632 q 1081 1644 1089 1639 l 874 1819 q 856 1838 860 1831 q 853 1854 853 1844 q 866 1886 853 1869 q 897 1915 879 1903 q 926 1928 914 1928 q 942 1924 936 1928 q 956 1913 949 1919 l 1149 1707 q 1158 1693 1157 1699 q 1160 1682 1160 1688 q 1142 1650 1160 1668 q 1108 1632 1125 1632 z "},"Ē":{"ha":1114,"x_min":122,"x_max":1419,"o":"m 185 0 q 136 13 150 0 q 131 56 122 25 l 597 1504 q 619 1532 604 1522 q 663 1542 635 1542 l 1393 1542 q 1414 1528 1408 1542 q 1411 1486 1419 1515 q 1390 1445 1404 1460 q 1361 1431 1376 1431 l 696 1431 l 515 871 l 1069 871 q 1090 857 1085 871 q 1089 815 1096 843 q 1067 774 1081 788 q 1038 760 1053 760 l 479 760 l 272 111 l 931 111 q 952 98 946 111 q 950 56 958 85 q 929 15 943 29 q 900 0 915 0 l 185 0 m 860 1718 q 827 1734 833 1718 q 828 1775 821 1750 q 847 1821 835 1806 q 885 1836 860 1836 l 1265 1836 q 1299 1819 1293 1836 q 1299 1775 1306 1801 q 1279 1733 1292 1747 q 1242 1718 1267 1718 l 860 1718 z "},"Ę":{"ha":1114,"x_min":122,"x_max":1419,"o":"m 185 0 q 136 13 150 0 q 131 56 122 25 l 597 1504 q 619 1532 604 1522 q 663 1542 635 1542 l 1393 1542 q 1414 1528 1408 1542 q 1411 1486 1419 1515 q 1390 1445 1404 1460 q 1361 1431 1376 1431 l 696 1431 l 515 871 l 1069 871 q 1090 857 1085 871 q 1089 815 1096 843 q 1067 774 1081 788 q 1038 760 1053 760 l 479 760 l 272 111 l 931 111 q 952 98 946 111 q 950 56 958 85 q 929 15 943 29 q 900 0 915 0 l 185 0 m 671 -349 q 601 -326 626 -349 q 576 -262 576 -303 q 597 -187 576 -225 q 655 -115 618 -150 q 740 -42 692 -79 q 842 32 788 -6 l 931 32 l 931 25 q 844 -44 885 -11 q 772 -109 803 -78 q 722 -166 740 -140 q 704 -212 704 -192 q 712 -234 704 -226 q 733 -242 719 -242 q 785 -226 760 -242 q 842 -181 810 -210 q 865 -169 850 -171 q 894 -182 879 -167 q 908 -205 904 -192 q 903 -232 911 -218 q 841 -290 881 -264 q 756 -333 801 -317 q 671 -349 711 -349 z "},"Ế":{"ha":1114,"x_min":122,"x_max":1553,"o":"m 185 0 q 136 13 150 0 q 131 56 122 25 l 597 1504 q 619 1532 604 1522 q 663 1542 635 1542 l 1393 1542 q 1414 1528 1408 1542 q 1411 1486 1419 1515 q 1390 1445 1404 1460 q 1361 1431 1376 1431 l 696 1431 l 515 871 l 1069 871 q 1090 857 1085 871 q 1089 815 1096 843 q 1067 774 1081 788 q 1038 760 1053 760 l 479 760 l 272 111 l 931 111 q 952 98 946 111 q 950 56 958 85 q 929 15 943 29 q 900 0 915 0 l 185 0 m 822 1633 q 794 1650 806 1633 q 782 1682 782 1667 q 787 1701 782 1694 q 797 1714 792 1708 l 1026 1890 q 1066 1914 1047 1907 q 1107 1921 1085 1921 q 1139 1912 1125 1921 q 1165 1885 1153 1903 l 1297 1704 q 1305 1687 1304 1694 q 1306 1672 1306 1679 q 1288 1644 1306 1656 q 1257 1633 1269 1633 q 1233 1640 1243 1633 q 1213 1656 1224 1646 l 1081 1781 l 865 1649 q 844 1638 856 1643 q 822 1633 833 1633 m 1301 1844 q 1267 1864 1286 1844 q 1249 1896 1249 1883 q 1251 1908 1249 1901 q 1263 1922 1253 1914 l 1449 2104 q 1464 2117 1457 2113 q 1481 2121 1471 2121 q 1511 2108 1494 2121 q 1540 2078 1528 2096 q 1553 2046 1553 2061 q 1549 2029 1553 2036 q 1531 2013 1546 2022 l 1328 1858 q 1313 1849 1319 1853 q 1301 1844 1307 1844 z "},"Ệ":{"ha":1114,"x_min":122,"x_max":1419,"o":"m 185 0 q 136 13 150 0 q 131 56 122 25 l 597 1504 q 619 1532 604 1522 q 663 1542 635 1542 l 1393 1542 q 1414 1528 1408 1542 q 1411 1486 1419 1515 q 1390 1445 1404 1460 q 1361 1431 1376 1431 l 696 1431 l 515 871 l 1069 871 q 1090 857 1085 871 q 1089 815 1096 843 q 1067 774 1081 788 q 1038 760 1053 760 l 479 760 l 272 111 l 931 111 q 952 98 946 111 q 950 56 958 85 q 929 15 943 29 q 900 0 915 0 l 185 0 m 461 -322 q 414 -304 433 -322 q 394 -251 394 -286 q 419 -181 394 -214 q 494 -147 443 -147 q 543 -165 524 -147 q 563 -218 563 -183 q 538 -290 563 -257 q 461 -322 514 -322 m 822 1633 q 794 1650 806 1633 q 782 1682 782 1667 q 787 1701 782 1694 q 797 1714 792 1708 l 1026 1890 q 1066 1914 1047 1907 q 1107 1921 1085 1921 q 1139 1912 1125 1921 q 1165 1885 1153 1903 l 1297 1704 q 1305 1687 1304 1694 q 1306 1672 1306 1679 q 1288 1644 1306 1656 q 1257 1633 1269 1633 q 1233 1640 1243 1633 q 1213 1656 1224 1646 l 1081 1781 l 865 1649 q 844 1638 856 1643 q 822 1633 833 1633 z "},"Ề":{"ha":1114,"x_min":122,"x_max":1443,"o":"m 185 0 q 136 13 150 0 q 131 56 122 25 l 597 1504 q 619 1532 604 1522 q 663 1542 635 1542 l 1393 1542 q 1414 1528 1408 1542 q 1411 1486 1419 1515 q 1390 1445 1404 1460 q 1361 1431 1376 1431 l 696 1431 l 515 871 l 1069 871 q 1090 857 1085 871 q 1089 815 1096 843 q 1067 774 1081 788 q 1038 760 1053 760 l 479 760 l 272 111 l 931 111 q 952 98 946 111 q 950 56 958 85 q 929 15 943 29 q 900 0 915 0 l 185 0 m 822 1633 q 794 1650 806 1633 q 782 1682 782 1667 q 787 1701 782 1694 q 797 1714 792 1708 l 1026 1890 q 1066 1914 1047 1907 q 1107 1921 1085 1921 q 1139 1912 1125 1921 q 1165 1885 1153 1903 l 1297 1704 q 1305 1687 1304 1694 q 1306 1672 1306 1679 q 1288 1644 1306 1656 q 1257 1633 1269 1633 q 1233 1640 1243 1633 q 1213 1656 1224 1646 l 1081 1781 l 865 1649 q 844 1638 856 1643 q 822 1633 833 1633 m 1388 1822 q 1376 1825 1382 1822 q 1361 1836 1369 1828 l 1183 2026 q 1167 2044 1172 2038 q 1163 2061 1163 2051 q 1176 2094 1163 2078 q 1208 2122 1189 2111 q 1243 2133 1228 2133 q 1259 2129 1251 2133 q 1272 2117 1267 2125 l 1431 1901 q 1440 1885 1438 1890 q 1442 1874 1442 1879 q 1424 1840 1442 1858 q 1388 1822 1407 1822 z "},"Ể":{"ha":1114,"x_min":122,"x_max":1514,"o":"m 185 0 q 136 13 150 0 q 131 56 122 25 l 597 1504 q 619 1532 604 1522 q 663 1542 635 1542 l 1393 1542 q 1414 1528 1408 1542 q 1411 1486 1419 1515 q 1390 1445 1404 1460 q 1361 1431 1376 1431 l 696 1431 l 515 871 l 1069 871 q 1090 857 1085 871 q 1089 815 1096 843 q 1067 774 1081 788 q 1038 760 1053 760 l 479 760 l 272 111 l 931 111 q 952 98 946 111 q 950 56 958 85 q 929 15 943 29 q 900 0 915 0 l 185 0 m 822 1633 q 794 1650 806 1633 q 782 1682 782 1667 q 787 1701 782 1694 q 797 1714 792 1708 l 1026 1890 q 1066 1914 1047 1907 q 1107 1921 1085 1921 q 1139 1912 1125 1921 q 1165 1885 1153 1903 l 1297 1704 q 1305 1687 1304 1694 q 1306 1672 1306 1679 q 1288 1644 1306 1656 q 1257 1633 1269 1633 q 1233 1640 1243 1633 q 1213 1656 1224 1646 l 1081 1781 l 865 1649 q 844 1638 856 1643 q 822 1633 833 1633 m 1375 2163 q 1477 2133 1440 2163 q 1514 2053 1514 2104 q 1492 1981 1514 2013 q 1431 1926 1471 1949 q 1392 1899 1401 1911 q 1382 1872 1382 1886 l 1381 1854 q 1366 1828 1381 1838 q 1333 1819 1351 1819 q 1299 1826 1314 1818 q 1282 1850 1285 1833 l 1276 1883 q 1285 1940 1271 1917 q 1331 1983 1300 1964 q 1367 2012 1356 1997 q 1378 2038 1378 2026 q 1369 2055 1378 2049 q 1344 2061 1361 2061 q 1308 2055 1328 2061 q 1264 2039 1288 2049 q 1211 2068 1231 2022 q 1232 2125 1197 2103 q 1300 2153 1265 2143 q 1375 2163 1335 2163 z "},"Ễ":{"ha":1114,"x_min":122,"x_max":1419,"o":"m 185 0 q 136 13 150 0 q 131 56 122 25 l 597 1504 q 619 1532 604 1522 q 663 1542 635 1542 l 1393 1542 q 1414 1528 1408 1542 q 1411 1486 1419 1515 q 1390 1445 1404 1460 q 1361 1431 1376 1431 l 696 1431 l 515 871 l 1069 871 q 1090 857 1085 871 q 1089 815 1096 843 q 1067 774 1081 788 q 1038 760 1053 760 l 479 760 l 272 111 l 931 111 q 952 98 946 111 q 950 56 958 85 q 929 15 943 29 q 900 0 915 0 l 185 0 m 822 1633 q 794 1650 806 1633 q 782 1681 782 1667 q 787 1701 782 1694 q 797 1714 792 1708 l 1026 1890 q 1066 1914 1047 1907 q 1107 1921 1085 1921 q 1139 1912 1125 1921 q 1165 1885 1153 1903 l 1297 1704 q 1305 1687 1304 1694 q 1306 1672 1306 1679 q 1288 1644 1306 1656 q 1257 1633 1269 1633 q 1233 1640 1243 1633 q 1213 1656 1224 1646 l 1081 1781 l 865 1649 q 844 1638 856 1643 q 822 1633 833 1633 m 906 1944 q 864 1982 861 1944 q 909 2116 872 2074 q 1011 2158 946 2158 q 1089 2144 1054 2158 q 1152 2108 1124 2129 q 1206 2073 1181 2088 q 1256 2058 1231 2058 q 1284 2074 1271 2058 q 1303 2124 1297 2089 q 1361 2160 1308 2160 q 1392 2151 1383 2160 q 1399 2124 1401 2142 q 1356 1989 1392 2032 q 1254 1946 1321 1946 q 1176 1960 1211 1946 q 1112 1995 1140 1975 q 1058 2030 1083 2015 q 1008 2044 1032 2044 q 976 2028 989 2044 q 958 1976 964 2011 q 942 1953 956 1961 q 906 1944 929 1944 z "},"Ẹ":{"ha":1114,"x_min":122,"x_max":1419,"o":"m 185 0 q 136 13 150 0 q 131 56 122 25 l 597 1504 q 619 1532 604 1522 q 663 1542 635 1542 l 1393 1542 q 1414 1528 1408 1542 q 1411 1486 1419 1515 q 1390 1445 1404 1460 q 1361 1431 1376 1431 l 696 1431 l 515 871 l 1069 871 q 1090 857 1085 871 q 1089 815 1096 843 q 1067 774 1081 788 q 1038 760 1053 760 l 479 760 l 272 111 l 931 111 q 952 98 946 111 q 950 56 958 85 q 929 15 943 29 q 900 0 915 0 l 185 0 m 461 -322 q 414 -304 433 -322 q 394 -251 394 -286 q 419 -181 394 -214 q 494 -147 443 -147 q 543 -165 524 -147 q 563 -218 563 -183 q 538 -290 563 -257 q 461 -322 514 -322 z "},"Ẻ":{"ha":1114,"x_min":122,"x_max":1419,"o":"m 185 0 q 136 13 150 0 q 131 56 122 25 l 597 1504 q 619 1532 604 1522 q 663 1542 635 1542 l 1393 1542 q 1414 1528 1408 1542 q 1411 1486 1419 1515 q 1390 1445 1404 1460 q 1361 1431 1376 1431 l 696 1431 l 515 871 l 1069 871 q 1090 857 1085 871 q 1089 815 1096 843 q 1067 774 1081 788 q 1038 760 1053 760 l 479 760 l 272 111 l 931 111 q 952 98 946 111 q 950 56 958 85 q 929 15 943 29 q 900 0 915 0 l 185 0 m 1089 1964 q 1191 1935 1154 1964 q 1228 1856 1228 1907 q 1206 1783 1228 1815 q 1144 1728 1185 1751 q 1107 1700 1117 1713 q 1096 1674 1097 1688 l 1094 1657 q 1081 1630 1094 1639 q 1048 1620 1067 1621 q 1014 1628 1029 1619 q 996 1651 999 1636 l 992 1685 q 1000 1742 986 1718 q 1046 1785 1014 1767 q 1081 1813 1069 1799 q 1093 1840 1093 1828 q 1084 1857 1093 1851 q 1058 1863 1075 1863 q 1022 1857 1042 1863 q 979 1840 1001 1851 q 925 1869 946 1824 q 947 1928 911 1906 q 1014 1955 979 1946 q 1089 1964 1049 1964 z "},"Ẽ":{"ha":1114,"x_min":122,"x_max":1419,"o":"m 185 0 q 136 13 150 0 q 131 56 122 25 l 597 1504 q 619 1532 604 1522 q 663 1542 635 1542 l 1393 1542 q 1414 1528 1408 1542 q 1411 1486 1419 1515 q 1390 1445 1404 1460 q 1361 1431 1376 1431 l 696 1431 l 515 871 l 1069 871 q 1090 857 1085 871 q 1089 815 1096 843 q 1067 774 1081 788 q 1038 760 1053 760 l 479 760 l 272 111 l 931 111 q 952 98 946 111 q 950 56 958 85 q 929 15 943 29 q 900 0 915 0 l 185 0 m 838 1675 q 796 1714 793 1675 q 841 1847 804 1806 q 943 1889 878 1889 q 1021 1874 986 1889 q 1084 1840 1056 1860 q 1138 1804 1113 1819 q 1188 1789 1163 1789 q 1216 1805 1203 1789 q 1235 1854 1229 1821 q 1293 1892 1242 1892 q 1324 1883 1315 1892 q 1332 1854 1333 1874 q 1288 1719 1324 1763 q 1186 1676 1253 1676 q 1108 1692 1143 1676 q 1044 1726 1072 1707 q 990 1761 1015 1746 q 940 1776 964 1776 q 908 1759 921 1776 q 890 1708 896 1742 q 874 1683 888 1692 q 838 1675 861 1675 z "},"Ğ":{"ha":1472,"x_min":239,"x_max":1529,"o":"m 715 -26 q 517 12 604 -25 q 367 119 429 49 q 272 288 304 189 q 239 513 239 388 q 265 744 239 624 q 341 983 290 864 q 466 1207 392 1101 q 638 1394 540 1313 q 855 1523 735 1476 q 1117 1569 975 1569 q 1283 1548 1207 1569 q 1418 1485 1358 1526 q 1518 1382 1478 1443 q 1523 1355 1529 1367 q 1497 1328 1517 1343 q 1465 1312 1479 1314 q 1433 1326 1451 1310 q 1347 1396 1393 1368 q 1240 1438 1300 1424 q 1100 1451 1181 1451 q 896 1412 992 1451 q 719 1302 800 1372 q 573 1141 638 1232 q 463 947 508 1050 q 394 738 418 844 q 369 531 369 631 q 392 343 369 425 q 460 206 415 261 q 574 121 506 150 q 733 92 642 92 q 865 115 800 92 q 992 184 929 138 q 1111 303 1054 231 q 1219 477 1168 376 q 1315 706 1271 578 l 919 706 q 895 718 899 706 q 901 761 892 731 q 924 805 913 793 q 957 817 936 817 l 1439 817 q 1464 805 1460 817 q 1460 761 1468 793 q 1313 390 1397 542 q 1129 147 1228 239 q 925 15 1031 56 q 715 -26 819 -26 m 1149 1632 q 992 1694 1046 1632 q 953 1883 939 1757 q 968 1913 956 1904 q 1001 1922 981 1922 q 1035 1912 1022 1922 q 1049 1883 1049 1901 q 1081 1783 1047 1814 q 1169 1751 1115 1751 q 1282 1788 1235 1751 q 1354 1881 1329 1825 q 1378 1914 1365 1906 q 1410 1922 1390 1922 q 1447 1909 1433 1922 q 1453 1875 1460 1896 q 1381 1727 1421 1781 q 1284 1653 1340 1674 q 1149 1632 1228 1632 z "},"Ĝ":{"ha":1472,"x_min":239,"x_max":1529,"o":"m 715 -26 q 517 12 604 -25 q 367 119 429 49 q 272 288 304 189 q 239 513 239 388 q 265 744 239 624 q 341 983 290 864 q 466 1207 392 1101 q 638 1394 540 1313 q 855 1523 735 1476 q 1117 1569 975 1569 q 1283 1548 1207 1569 q 1418 1485 1358 1526 q 1518 1382 1478 1443 q 1523 1355 1529 1367 q 1497 1328 1517 1343 q 1465 1312 1479 1314 q 1433 1326 1451 1310 q 1347 1396 1393 1368 q 1240 1438 1300 1424 q 1100 1451 1181 1451 q 896 1412 992 1451 q 719 1302 800 1372 q 573 1141 638 1232 q 463 947 508 1050 q 394 738 418 844 q 369 531 369 631 q 392 343 369 425 q 460 206 415 261 q 574 121 506 150 q 733 92 642 92 q 865 115 800 92 q 992 184 929 138 q 1111 303 1054 231 q 1219 477 1168 376 q 1315 706 1271 578 l 919 706 q 895 718 899 706 q 901 761 892 731 q 924 805 913 793 q 957 817 936 817 l 1439 817 q 1464 805 1460 817 q 1460 761 1468 793 q 1313 390 1397 542 q 1129 147 1228 239 q 925 15 1031 56 q 715 -26 819 -26 m 939 1633 q 910 1650 922 1633 q 899 1682 899 1667 q 903 1701 899 1694 q 914 1714 908 1708 l 1143 1890 q 1183 1914 1164 1907 q 1224 1921 1201 1921 q 1256 1912 1242 1921 q 1282 1885 1269 1903 l 1414 1704 q 1422 1687 1421 1694 q 1422 1672 1422 1679 q 1404 1644 1422 1656 q 1374 1633 1386 1633 q 1350 1640 1360 1633 q 1329 1656 1340 1646 l 1197 1781 l 982 1649 q 961 1638 972 1643 q 939 1633 950 1633 z "},"Ģ":{"ha":1472,"x_min":239,"x_max":1529,"o":"m 715 -26 q 517 12 604 -25 q 367 119 429 49 q 272 288 304 189 q 239 513 239 388 q 265 744 239 624 q 341 983 290 864 q 466 1207 392 1101 q 638 1394 540 1313 q 855 1523 735 1476 q 1117 1569 975 1569 q 1283 1548 1207 1569 q 1418 1485 1358 1526 q 1518 1382 1478 1443 q 1523 1355 1529 1367 q 1497 1328 1517 1343 q 1465 1312 1479 1314 q 1433 1326 1451 1310 q 1347 1396 1393 1368 q 1240 1438 1300 1424 q 1100 1451 1181 1451 q 896 1412 992 1451 q 719 1302 800 1372 q 573 1141 638 1232 q 463 947 508 1050 q 394 738 418 844 q 369 531 369 631 q 392 343 369 425 q 460 206 415 261 q 574 121 506 150 q 733 92 642 92 q 865 115 800 92 q 992 184 929 138 q 1111 303 1054 231 q 1219 477 1168 376 q 1315 706 1271 578 l 919 706 q 895 718 899 706 q 901 761 892 731 q 924 805 913 793 q 957 817 936 817 l 1439 817 q 1464 805 1460 817 q 1460 761 1468 793 q 1313 390 1397 542 q 1129 147 1228 239 q 925 15 1031 56 q 715 -26 819 -26 m 490 -399 q 472 -373 474 -387 q 482 -342 469 -358 q 524 -274 507 -304 q 550 -212 540 -244 q 564 -139 560 -181 q 583 -106 567 -115 q 625 -96 599 -96 q 672 -111 657 -96 q 685 -153 688 -126 q 664 -227 682 -187 q 618 -305 646 -267 q 558 -376 590 -343 q 524 -401 540 -394 q 490 -399 507 -408 z "},"Ġ":{"ha":1472,"x_min":239,"x_max":1529,"o":"m 715 -26 q 517 12 604 -25 q 367 119 429 49 q 272 288 304 189 q 239 513 239 388 q 265 744 239 624 q 341 983 290 864 q 466 1207 392 1101 q 638 1394 540 1313 q 855 1523 735 1476 q 1117 1569 975 1569 q 1283 1548 1207 1569 q 1418 1485 1358 1526 q 1518 1382 1478 1443 q 1523 1355 1529 1367 q 1497 1328 1517 1343 q 1465 1312 1479 1314 q 1433 1326 1451 1310 q 1347 1396 1393 1368 q 1240 1438 1300 1424 q 1100 1451 1181 1451 q 896 1412 992 1451 q 719 1302 800 1372 q 573 1141 638 1232 q 463 947 508 1050 q 394 738 418 844 q 369 531 369 631 q 392 343 369 425 q 460 206 415 261 q 574 121 506 150 q 733 92 642 92 q 865 115 800 92 q 992 184 929 138 q 1111 303 1054 231 q 1219 477 1168 376 q 1315 706 1271 578 l 919 706 q 895 718 899 706 q 901 761 892 731 q 924 805 913 793 q 957 817 936 817 l 1439 817 q 1464 805 1460 817 q 1460 761 1468 793 q 1313 390 1397 542 q 1129 147 1228 239 q 925 15 1031 56 q 715 -26 819 -26 m 1160 1682 q 1111 1700 1131 1682 q 1092 1754 1092 1718 q 1117 1824 1092 1792 q 1193 1857 1142 1857 q 1240 1840 1221 1857 q 1260 1786 1260 1822 q 1236 1715 1260 1749 q 1160 1682 1213 1682 z "},"Ħ":{"ha":1493,"x_min":104,"x_max":1703,"o":"m 165 -19 q 117 19 104 -19 l 607 1532 q 632 1560 614 1551 q 679 1569 650 1569 q 728 1532 743 1569 l 513 864 l 1317 864 l 1532 1532 q 1557 1560 1539 1551 q 1606 1569 1575 1569 q 1654 1532 1668 1569 l 1164 19 q 1140 -10 1158 0 q 1092 -19 1122 -19 q 1043 19 1031 -19 l 1281 753 l 476 753 l 239 19 q 215 -10 233 0 q 165 -19 196 -19 m 369 1140 q 342 1156 344 1140 q 343 1189 339 1171 q 357 1225 347 1208 q 393 1242 367 1242 l 1671 1242 q 1700 1225 1697 1242 q 1699 1189 1703 1208 q 1685 1156 1696 1171 q 1650 1140 1675 1140 l 369 1140 z "},"Ĥ":{"ha":1493,"x_min":104,"x_max":1668,"o":"m 165 -19 q 117 19 104 -19 l 607 1532 q 632 1560 614 1551 q 679 1569 650 1569 q 728 1532 743 1569 l 513 864 l 1317 864 l 1532 1532 q 1557 1560 1539 1551 q 1606 1569 1575 1569 q 1654 1532 1668 1569 l 1164 19 q 1140 -10 1158 0 q 1092 -19 1122 -19 q 1043 19 1031 -19 l 1281 753 l 476 753 l 239 19 q 215 -10 233 0 q 165 -19 196 -19 m 939 1633 q 910 1650 922 1633 q 899 1682 899 1667 q 903 1701 899 1694 q 914 1714 908 1708 l 1143 1890 q 1183 1914 1164 1907 q 1224 1921 1201 1921 q 1256 1912 1242 1921 q 1282 1885 1269 1903 l 1414 1704 q 1422 1687 1421 1694 q 1422 1672 1422 1679 q 1404 1644 1422 1656 q 1374 1633 1386 1633 q 1350 1640 1360 1633 q 1329 1656 1340 1646 l 1197 1781 l 982 1649 q 961 1638 972 1643 q 939 1633 950 1633 z "},"Í":{"ha":568,"x_min":111,"x_max":924,"o":"m 172 -19 q 126 -10 140 -19 q 117 22 111 0 l 603 1532 q 627 1560 610 1551 q 675 1569 644 1569 q 722 1560 708 1569 q 728 1528 736 1550 l 242 19 q 219 -10 236 0 q 172 -19 203 -19 m 633 1632 q 599 1650 617 1632 q 581 1683 581 1668 q 583 1694 581 1689 q 594 1708 585 1700 l 821 1913 q 835 1924 829 1919 q 851 1928 842 1928 q 882 1915 865 1928 q 911 1886 899 1903 q 924 1854 924 1869 q 921 1836 924 1843 q 903 1819 918 1829 l 660 1644 q 645 1635 651 1639 q 633 1632 639 1632 z "},"Ĭ":{"ha":568,"x_min":111,"x_max":1015,"o":"m 172 -19 q 126 -10 140 -19 q 117 22 111 0 l 603 1532 q 627 1560 610 1551 q 675 1569 644 1569 q 722 1560 708 1569 q 728 1528 736 1550 l 242 19 q 219 -10 236 0 q 172 -19 203 -19 m 704 1632 q 548 1694 601 1632 q 508 1883 494 1757 q 524 1913 511 1904 q 557 1922 536 1922 q 591 1912 578 1922 q 604 1883 604 1901 q 637 1783 603 1814 q 725 1751 671 1751 q 838 1788 790 1751 q 910 1881 885 1825 q 933 1914 921 1906 q 965 1922 946 1922 q 1002 1909 989 1922 q 1008 1875 1015 1896 q 936 1727 976 1781 q 840 1653 896 1674 q 704 1632 783 1632 z "},"Ǐ":{"ha":568,"x_min":111,"x_max":1013,"o":"m 172 -19 q 126 -10 140 -19 q 117 22 111 0 l 603 1532 q 627 1560 610 1551 q 675 1569 644 1569 q 722 1560 708 1569 q 728 1528 736 1550 l 242 19 q 219 -10 236 0 q 172 -19 203 -19 m 971 1921 q 1001 1904 988 1921 q 1014 1872 1014 1888 q 1010 1852 1014 1860 q 999 1839 1006 1844 l 769 1664 q 729 1641 747 1649 q 689 1633 711 1633 q 656 1643 671 1633 q 631 1669 642 1653 l 499 1850 q 490 1868 492 1861 q 489 1881 489 1875 q 509 1910 489 1899 q 542 1921 529 1921 q 565 1915 557 1921 q 581 1900 572 1908 l 715 1774 l 929 1901 q 949 1914 939 1907 q 971 1921 960 1921 z "},"Î":{"ha":568,"x_min":111,"x_max":978,"o":"m 172 -19 q 126 -10 140 -19 q 117 22 111 0 l 603 1532 q 627 1560 610 1551 q 675 1569 644 1569 q 722 1560 708 1569 q 728 1528 736 1550 l 242 19 q 219 -10 236 0 q 172 -19 203 -19 m 494 1633 q 466 1650 478 1633 q 454 1682 454 1667 q 459 1701 454 1694 q 469 1714 464 1708 l 699 1890 q 738 1914 719 1907 q 779 1921 757 1921 q 811 1912 797 1921 q 838 1885 825 1903 l 969 1704 q 977 1687 976 1694 q 978 1672 978 1679 q 960 1644 978 1656 q 929 1633 942 1633 q 906 1640 915 1633 q 885 1656 896 1646 l 753 1781 l 538 1649 q 517 1638 528 1643 q 494 1633 506 1633 z "},"Ï":{"ha":568,"x_min":111,"x_max":988,"o":"m 172 -19 q 126 -10 140 -19 q 117 22 111 0 l 603 1532 q 627 1560 610 1551 q 675 1569 644 1569 q 722 1560 708 1569 q 728 1528 736 1550 l 242 19 q 219 -10 236 0 q 172 -19 203 -19 m 544 1682 q 496 1700 515 1682 q 476 1754 476 1718 q 502 1824 476 1792 q 578 1857 528 1857 q 625 1840 606 1857 q 644 1786 644 1822 q 621 1715 644 1749 q 544 1682 597 1682 m 886 1682 q 838 1700 858 1682 q 818 1754 818 1718 q 844 1824 818 1792 q 919 1857 869 1857 q 967 1840 947 1857 q 988 1786 988 1822 q 963 1715 988 1749 q 886 1682 939 1682 z "},"İ":{"ha":568,"x_min":111,"x_max":815,"o":"m 172 -19 q 126 -10 140 -19 q 117 22 111 0 l 603 1532 q 627 1560 610 1551 q 675 1569 644 1569 q 722 1560 708 1569 q 728 1528 736 1550 l 242 19 q 219 -10 236 0 q 172 -19 203 -19 m 715 1682 q 667 1700 686 1682 q 647 1754 647 1718 q 672 1824 647 1792 q 749 1857 697 1857 q 796 1840 776 1857 q 815 1786 815 1822 q 792 1715 815 1749 q 715 1682 768 1682 z "},"Ì":{"ha":568,"x_min":111,"x_max":832,"o":"m 172 -19 q 126 -10 140 -19 q 117 22 111 0 l 603 1532 q 627 1560 610 1551 q 675 1569 644 1569 q 722 1560 708 1569 q 728 1528 736 1550 l 242 19 q 219 -10 236 0 q 172 -19 203 -19 m 779 1632 q 767 1635 774 1632 q 751 1644 760 1639 l 544 1819 q 527 1838 531 1831 q 524 1854 524 1844 q 537 1886 524 1869 q 567 1915 550 1903 q 597 1928 585 1928 q 613 1924 607 1928 q 626 1913 619 1919 l 819 1707 q 829 1693 828 1699 q 831 1682 831 1688 q 813 1650 831 1668 q 779 1632 796 1632 z "},"Ī":{"ha":568,"x_min":111,"x_max":978,"o":"m 172 -19 q 126 -10 140 -19 q 117 22 111 0 l 603 1532 q 627 1560 610 1551 q 675 1569 644 1569 q 722 1560 708 1569 q 728 1528 736 1550 l 242 19 q 219 -10 236 0 q 172 -19 203 -19 m 532 1718 q 499 1734 506 1718 q 500 1775 493 1750 q 519 1821 507 1806 q 557 1836 532 1836 l 938 1836 q 972 1819 965 1836 q 971 1775 978 1801 q 951 1733 964 1747 q 914 1718 939 1718 l 532 1718 z "},"Į":{"ha":568,"x_min":-126,"x_max":736,"o":"m 172 -19 q 126 -10 140 -19 q 117 22 111 0 l 603 1532 q 627 1560 610 1551 q 675 1569 644 1569 q 722 1560 708 1569 q 728 1528 736 1550 l 242 19 q 219 -10 236 0 q 172 -19 203 -19 m -32 -365 q -101 -342 -76 -365 q -126 -279 -126 -319 q -106 -204 -126 -242 q -48 -131 -85 -167 q 37 -59 -11 -96 q 139 15 85 -22 l 228 15 l 228 8 q 141 -61 182 -28 q 69 -126 100 -94 q 19 -183 38 -157 q 1 -229 1 -208 q 9 -251 1 -243 q 31 -258 17 -258 q 82 -242 57 -258 q 139 -197 107 -226 q 162 -185 147 -187 q 192 -199 176 -183 q 205 -222 201 -208 q 200 -249 208 -235 q 138 -307 178 -281 q 53 -349 99 -333 q -32 -365 8 -365 z "},"Ĩ":{"ha":568,"x_min":111,"x_max":1006,"o":"m 172 -19 q 126 -10 140 -19 q 117 22 111 0 l 603 1532 q 627 1560 610 1551 q 675 1569 644 1569 q 722 1560 708 1569 q 728 1528 736 1550 l 242 19 q 219 -10 236 0 q 172 -19 203 -19 m 508 1675 q 467 1714 464 1675 q 512 1847 475 1806 q 614 1889 549 1889 q 692 1874 657 1889 q 755 1840 726 1860 q 808 1804 783 1819 q 858 1789 833 1789 q 887 1805 874 1789 q 906 1854 900 1821 q 964 1892 913 1892 q 995 1883 986 1892 q 1003 1854 1004 1874 q 959 1719 994 1763 q 857 1676 924 1676 q 778 1692 814 1676 q 715 1726 743 1707 q 660 1761 686 1746 q 611 1776 635 1776 q 579 1759 592 1776 q 561 1708 567 1742 q 545 1683 558 1692 q 508 1675 532 1675 z "},"Ị":{"ha":568,"x_min":11,"x_max":736,"o":"m 172 -19 q 126 -10 140 -19 q 117 22 111 0 l 603 1532 q 627 1560 610 1551 q 675 1569 644 1569 q 722 1560 708 1569 q 728 1528 736 1550 l 242 19 q 219 -10 236 0 q 172 -19 203 -19 m 78 -322 q 31 -304 50 -322 q 11 -251 11 -286 q 35 -181 11 -214 q 111 -147 60 -147 q 160 -165 140 -147 q 179 -218 179 -183 q 155 -290 179 -257 q 78 -322 131 -322 z "},"Ỉ":{"ha":568,"x_min":111,"x_max":899,"o":"m 172 -19 q 126 -10 140 -19 q 117 22 111 0 l 603 1532 q 627 1560 610 1551 q 675 1569 644 1569 q 722 1560 708 1569 q 728 1528 736 1550 l 242 19 q 219 -10 236 0 q 172 -19 203 -19 m 760 1964 q 862 1935 825 1964 q 899 1856 899 1907 q 877 1783 899 1815 q 815 1728 856 1751 q 778 1700 788 1713 q 767 1674 768 1688 l 765 1657 q 751 1630 765 1639 q 719 1620 738 1621 q 685 1628 700 1619 q 667 1651 669 1636 l 663 1685 q 671 1742 657 1718 q 717 1785 685 1767 q 752 1813 740 1799 q 764 1840 764 1828 q 755 1857 764 1851 q 729 1863 746 1863 q 692 1857 713 1863 q 650 1840 672 1851 q 596 1869 617 1824 q 618 1928 582 1906 q 685 1955 650 1946 q 760 1964 719 1964 z "},"Ĵ":{"ha":1093,"x_min":56,"x_max":1532,"o":"m 418 -26 q 256 10 333 -26 q 125 114 178 46 q 60 276 72 182 q 65 314 56 301 q 106 332 75 326 q 151 330 136 339 q 172 294 167 321 q 217 185 185 231 q 302 115 250 139 q 421 92 354 92 q 521 103 474 92 q 610 142 568 115 q 689 212 651 168 q 758 319 726 256 q 818 467 790 382 l 1164 1532 q 1189 1560 1171 1551 q 1236 1569 1207 1569 q 1279 1560 1267 1569 q 1285 1532 1292 1551 l 935 456 q 860 272 901 351 q 769 136 818 193 q 666 43 721 79 q 549 -10 611 7 q 418 -26 486 -26 m 1049 1633 q 1020 1650 1032 1633 q 1008 1682 1008 1667 q 1013 1701 1008 1694 q 1024 1714 1018 1708 l 1253 1890 q 1292 1914 1274 1907 q 1333 1921 1311 1921 q 1365 1912 1351 1921 q 1392 1885 1379 1903 l 1524 1704 q 1531 1687 1531 1694 q 1532 1672 1532 1679 q 1514 1644 1532 1656 q 1483 1633 1496 1633 q 1460 1640 1469 1633 q 1439 1656 1450 1646 l 1307 1781 l 1092 1649 q 1071 1638 1082 1643 q 1049 1633 1060 1633 z "},"Ķ":{"ha":1160,"x_min":108,"x_max":1451,"o":"m 164 -25 q 121 -15 133 -25 q 115 17 108 -6 l 607 1528 q 681 1568 619 1568 q 731 1528 743 1568 l 518 878 l 1353 1544 q 1397 1564 1379 1565 q 1433 1536 1414 1563 q 1449 1496 1451 1511 q 1418 1458 1447 1481 l 586 801 q 723 531 653 657 q 869 290 793 404 q 1033 64 946 176 q 1049 20 1054 38 q 1015 -18 1043 3 q 974 -28 993 -35 q 940 -4 954 -22 q 808 178 871 85 q 688 368 744 271 q 580 567 631 465 q 485 774 529 668 l 239 17 q 213 -15 232 -4 q 164 -25 194 -25 m 371 -399 q 352 -373 354 -387 q 363 -342 350 -358 q 404 -274 388 -304 q 431 -212 421 -244 q 444 -139 440 -181 q 463 -106 447 -115 q 506 -96 479 -96 q 553 -111 538 -96 q 565 -153 568 -126 q 544 -227 563 -187 q 499 -305 526 -267 q 439 -376 471 -343 q 404 -401 421 -394 q 371 -399 388 -408 z "},"Ĺ":{"ha":1051,"x_min":113,"x_max":935,"o":"m 175 0 q 131 56 113 0 l 607 1532 q 628 1560 614 1551 q 672 1569 642 1569 q 719 1560 704 1569 q 726 1528 735 1550 l 269 111 l 900 111 q 921 98 915 111 q 918 56 926 85 q 897 15 911 29 q 868 0 883 0 l 175 0 m 644 1632 q 610 1650 628 1632 q 592 1683 592 1668 q 594 1694 592 1689 q 606 1708 596 1700 l 832 1913 q 847 1924 840 1919 q 863 1928 853 1928 q 893 1915 876 1928 q 922 1886 910 1903 q 935 1854 935 1869 q 932 1836 935 1843 q 914 1819 929 1829 l 671 1644 q 656 1635 663 1639 q 644 1632 650 1632 z "},"Ľ":{"ha":1051,"x_min":113,"x_max":1017,"o":"m 175 0 q 131 56 113 0 l 607 1532 q 628 1560 614 1551 q 672 1569 642 1569 q 719 1560 704 1569 q 726 1528 735 1550 l 269 111 l 900 111 q 921 98 915 111 q 918 56 926 85 q 897 15 911 29 q 868 0 883 0 l 175 0 m 824 1228 q 798 1251 803 1238 q 807 1290 793 1265 q 838 1355 821 1315 q 868 1439 854 1394 q 889 1522 882 1483 q 904 1557 892 1546 q 951 1568 917 1568 q 1001 1557 985 1568 q 1014 1522 1017 1546 q 987 1430 1007 1481 q 940 1330 967 1379 q 886 1242 914 1281 q 863 1224 879 1232 q 824 1228 847 1217 z "},"Ļ":{"ha":1051,"x_min":113,"x_max":926,"o":"m 175 0 q 131 56 113 0 l 607 1532 q 628 1560 614 1551 q 672 1569 642 1569 q 719 1560 704 1569 q 726 1528 735 1550 l 269 111 l 900 111 q 921 98 915 111 q 918 56 926 85 q 897 15 911 29 q 868 0 883 0 l 175 0 m 357 -399 q 338 -373 340 -387 q 349 -342 336 -358 q 390 -274 374 -304 q 417 -212 407 -244 q 431 -139 426 -181 q 449 -106 433 -115 q 492 -96 465 -96 q 539 -111 524 -96 q 551 -153 554 -126 q 531 -227 549 -187 q 485 -305 513 -267 q 425 -376 457 -343 q 390 -401 407 -394 q 357 -399 374 -408 z "},"Ŀ":{"ha":1051,"x_min":113,"x_max":1013,"o":"m 175 0 q 131 56 113 0 l 607 1532 q 628 1560 614 1551 q 672 1569 642 1569 q 719 1560 704 1569 q 726 1528 735 1550 l 269 111 l 900 111 q 921 98 915 111 q 918 56 926 85 q 897 15 911 29 q 868 0 883 0 l 175 0 m 913 708 q 864 726 883 708 q 844 779 844 744 q 869 850 844 817 q 946 883 894 883 q 993 866 974 883 q 1013 813 1013 849 q 989 742 1013 775 q 913 708 965 708 z "},"Ł":{"ha":1051,"x_min":113,"x_max":926,"o":"m 175 0 q 131 56 113 0 l 607 1532 q 628 1560 614 1551 q 672 1569 642 1569 q 719 1560 704 1569 q 726 1528 735 1550 l 269 111 l 900 111 q 921 98 915 111 q 918 56 926 85 q 897 15 911 29 q 868 0 883 0 l 175 0 m 233 668 q 199 669 213 661 q 174 700 185 676 q 171 738 168 718 q 193 763 174 757 l 756 968 q 787 970 775 975 q 811 943 799 965 q 800 878 835 893 l 233 668 z "},"Ń":{"ha":1494,"x_min":104,"x_max":1669,"o":"m 165 -19 q 117 19 104 -19 l 607 1532 q 632 1560 614 1551 q 679 1569 650 1569 q 717 1560 704 1569 q 738 1532 731 1551 l 1108 222 l 1533 1532 q 1558 1560 1540 1551 q 1606 1569 1576 1569 q 1654 1532 1669 1569 l 1165 19 q 1141 -10 1160 0 q 1094 -19 1122 -19 q 1061 -12 1072 -19 q 1043 19 1050 -6 l 668 1343 l 238 19 q 214 -10 232 0 q 165 -19 196 -19 m 1108 1632 q 1074 1650 1092 1632 q 1056 1683 1056 1668 q 1058 1694 1056 1689 q 1069 1708 1060 1700 l 1296 1913 q 1310 1924 1304 1919 q 1326 1928 1317 1928 q 1357 1915 1340 1928 q 1386 1886 1374 1903 q 1399 1854 1399 1869 q 1396 1836 1399 1843 q 1378 1819 1393 1829 l 1135 1644 q 1120 1635 1126 1639 q 1108 1632 1114 1632 z "},"Ň":{"ha":1494,"x_min":104,"x_max":1669,"o":"m 165 -19 q 117 19 104 -19 l 607 1532 q 632 1560 614 1551 q 679 1569 650 1569 q 717 1560 704 1569 q 738 1532 731 1551 l 1108 222 l 1533 1532 q 1558 1560 1540 1551 q 1606 1569 1576 1569 q 1654 1532 1669 1569 l 1165 19 q 1141 -10 1160 0 q 1094 -19 1122 -19 q 1061 -12 1072 -19 q 1043 19 1050 -6 l 668 1343 l 238 19 q 214 -10 232 0 q 165 -19 196 -19 m 1446 1921 q 1476 1904 1463 1921 q 1489 1872 1489 1888 q 1485 1852 1489 1860 q 1474 1839 1481 1844 l 1244 1664 q 1204 1641 1222 1649 q 1164 1633 1186 1633 q 1131 1643 1146 1633 q 1106 1669 1117 1653 l 974 1850 q 965 1868 967 1861 q 964 1881 964 1875 q 984 1910 964 1899 q 1017 1921 1004 1921 q 1040 1915 1032 1921 q 1056 1900 1047 1908 l 1190 1774 l 1404 1901 q 1424 1914 1414 1907 q 1446 1921 1435 1921 z "},"Ņ":{"ha":1494,"x_min":104,"x_max":1669,"o":"m 165 -19 q 117 19 104 -19 l 607 1532 q 632 1560 614 1551 q 679 1569 650 1569 q 717 1560 704 1569 q 738 1532 731 1551 l 1108 222 l 1533 1532 q 1558 1560 1540 1551 q 1606 1569 1576 1569 q 1654 1532 1669 1569 l 1165 19 q 1141 -10 1160 0 q 1094 -19 1122 -19 q 1061 -12 1072 -19 q 1043 19 1050 -6 l 668 1343 l 238 19 q 214 -10 232 0 q 165 -19 196 -19 m 472 -399 q 453 -373 456 -387 q 464 -342 451 -358 q 506 -274 489 -304 q 532 -212 522 -244 q 546 -139 542 -181 q 565 -106 549 -115 q 607 -96 581 -96 q 654 -111 639 -96 q 667 -153 669 -126 q 646 -227 664 -187 q 600 -305 628 -267 q 540 -376 572 -343 q 506 -401 522 -394 q 472 -399 489 -408 z "},"Ñ":{"ha":1494,"x_min":104,"x_max":1669,"o":"m 165 -19 q 117 19 104 -19 l 607 1532 q 632 1560 614 1551 q 679 1569 650 1569 q 717 1560 704 1569 q 738 1532 731 1551 l 1108 222 l 1533 1532 q 1558 1560 1540 1551 q 1606 1569 1576 1569 q 1654 1532 1669 1569 l 1165 19 q 1141 -10 1160 0 q 1094 -19 1122 -19 q 1061 -12 1072 -19 q 1043 19 1050 -6 l 668 1343 l 238 19 q 214 -10 232 0 q 165 -19 196 -19 m 985 1675 q 943 1714 940 1675 q 988 1847 951 1806 q 1090 1889 1025 1889 q 1168 1874 1133 1889 q 1231 1840 1203 1860 q 1285 1804 1260 1819 q 1335 1789 1310 1789 q 1363 1805 1350 1789 q 1382 1854 1376 1821 q 1440 1892 1389 1892 q 1472 1883 1463 1892 q 1479 1854 1481 1874 q 1435 1719 1471 1763 q 1333 1676 1400 1676 q 1255 1692 1290 1676 q 1191 1726 1219 1707 q 1137 1761 1163 1746 q 1088 1776 1111 1776 q 1056 1759 1068 1776 q 1038 1708 1043 1742 q 1022 1683 1035 1692 q 985 1675 1008 1675 z "},"Ó":{"ha":1556,"x_min":249,"x_max":1583,"o":"m 742 -26 q 538 12 629 -26 q 381 123 446 50 q 283 299 317 196 q 249 532 249 403 q 275 776 249 653 q 353 1015 301 899 q 477 1231 404 1131 q 644 1408 550 1332 q 851 1526 739 1483 q 1093 1569 964 1569 q 1297 1531 1206 1569 q 1451 1421 1388 1493 q 1549 1247 1515 1349 q 1583 1017 1583 1144 q 1556 765 1583 890 q 1478 522 1529 639 q 1352 306 1426 406 q 1185 131 1278 206 q 981 15 1092 57 q 742 -26 869 -26 m 763 92 q 958 129 867 92 q 1126 233 1049 167 q 1264 387 1203 299 q 1367 578 1325 475 q 1432 788 1410 681 q 1454 1003 1454 896 q 1429 1194 1454 1111 q 1356 1335 1404 1278 q 1236 1422 1307 1393 q 1072 1451 1165 1451 q 879 1415 971 1451 q 710 1310 788 1378 q 572 1156 633 1243 q 467 967 510 1068 q 401 758 424 865 q 378 546 378 651 q 403 353 378 438 q 477 210 428 268 q 598 122 526 153 q 763 92 669 92 m 1100 1632 q 1065 1650 1083 1632 q 1047 1683 1047 1668 q 1049 1694 1047 1689 q 1061 1708 1051 1700 l 1288 1913 q 1302 1924 1296 1919 q 1318 1928 1308 1928 q 1349 1915 1332 1928 q 1378 1886 1365 1903 q 1390 1854 1390 1869 q 1388 1836 1390 1843 q 1369 1819 1385 1829 l 1126 1644 q 1112 1635 1118 1639 q 1100 1632 1106 1632 z "},"Ŏ":{"ha":1556,"x_min":249,"x_max":1583,"o":"m 742 -26 q 538 12 629 -26 q 381 123 446 50 q 283 299 317 196 q 249 532 249 403 q 275 776 249 653 q 353 1015 301 899 q 477 1231 404 1131 q 644 1408 550 1332 q 851 1526 739 1483 q 1093 1569 964 1569 q 1297 1531 1206 1569 q 1451 1421 1388 1493 q 1549 1247 1515 1349 q 1583 1017 1583 1144 q 1556 765 1583 890 q 1478 522 1529 639 q 1352 306 1426 406 q 1185 131 1278 206 q 981 15 1092 57 q 742 -26 869 -26 m 763 92 q 958 129 867 92 q 1126 233 1049 167 q 1264 387 1203 299 q 1367 578 1325 475 q 1432 788 1410 681 q 1454 1003 1454 896 q 1429 1194 1454 1111 q 1356 1335 1404 1278 q 1236 1422 1307 1393 q 1072 1451 1165 1451 q 879 1415 971 1451 q 710 1310 788 1378 q 572 1156 633 1243 q 467 967 510 1068 q 401 758 424 865 q 378 546 378 651 q 403 353 378 438 q 477 210 428 268 q 598 122 526 153 q 763 92 669 92 m 1171 1632 q 1015 1694 1068 1632 q 975 1883 961 1757 q 990 1913 978 1904 q 1024 1922 1003 1922 q 1058 1912 1044 1922 q 1071 1883 1071 1901 q 1103 1783 1069 1814 q 1192 1751 1138 1751 q 1304 1788 1257 1751 q 1376 1881 1351 1825 q 1400 1914 1388 1906 q 1432 1922 1413 1922 q 1469 1909 1456 1922 q 1475 1875 1482 1896 q 1403 1727 1443 1781 q 1306 1653 1363 1674 q 1171 1632 1250 1632 z "},"Ǒ":{"ha":1556,"x_min":249,"x_max":1583,"o":"m 742 -26 q 538 12 629 -26 q 381 123 446 50 q 283 299 317 196 q 249 532 249 403 q 275 776 249 653 q 353 1015 301 899 q 477 1231 404 1131 q 644 1408 550 1332 q 851 1526 739 1483 q 1093 1569 964 1569 q 1297 1531 1206 1569 q 1451 1421 1388 1493 q 1549 1247 1515 1349 q 1583 1017 1583 1144 q 1556 765 1583 890 q 1478 522 1529 639 q 1352 306 1426 406 q 1185 131 1278 206 q 981 15 1092 57 q 742 -26 869 -26 m 763 92 q 958 129 867 92 q 1126 233 1049 167 q 1264 387 1203 299 q 1367 578 1325 475 q 1432 788 1410 681 q 1454 1003 1454 896 q 1429 1194 1454 1111 q 1356 1335 1404 1278 q 1236 1422 1307 1393 q 1072 1451 1165 1451 q 879 1415 971 1451 q 710 1310 788 1378 q 572 1156 633 1243 q 467 967 510 1068 q 401 758 424 865 q 378 546 378 651 q 403 353 378 438 q 477 210 428 268 q 598 122 526 153 q 763 92 669 92 m 1438 1921 q 1467 1904 1454 1921 q 1481 1872 1481 1888 q 1476 1852 1481 1860 q 1465 1839 1472 1844 l 1236 1664 q 1196 1641 1214 1649 q 1156 1633 1178 1633 q 1123 1643 1138 1633 q 1097 1669 1108 1653 l 965 1850 q 957 1868 958 1861 q 956 1881 956 1875 q 976 1910 956 1899 q 1008 1921 996 1921 q 1031 1915 1024 1921 q 1047 1900 1039 1908 l 1182 1774 l 1396 1901 q 1416 1914 1406 1907 q 1438 1921 1426 1921 z "},"Ô":{"ha":1556,"x_min":249,"x_max":1583,"o":"m 742 -26 q 538 12 629 -26 q 381 123 446 50 q 283 299 317 196 q 249 532 249 403 q 275 776 249 653 q 353 1015 301 899 q 477 1231 404 1131 q 644 1408 550 1332 q 851 1526 739 1483 q 1093 1569 964 1569 q 1297 1531 1206 1569 q 1451 1421 1388 1493 q 1549 1247 1515 1349 q 1583 1017 1583 1144 q 1556 765 1583 890 q 1478 522 1529 639 q 1352 306 1426 406 q 1185 131 1278 206 q 981 15 1092 57 q 742 -26 869 -26 m 763 92 q 958 129 867 92 q 1126 233 1049 167 q 1264 387 1203 299 q 1367 578 1325 475 q 1432 788 1410 681 q 1454 1003 1454 896 q 1429 1194 1454 1111 q 1356 1335 1404 1278 q 1236 1422 1307 1393 q 1072 1451 1165 1451 q 879 1415 971 1451 q 710 1310 788 1378 q 572 1156 633 1243 q 467 967 510 1068 q 401 758 424 865 q 378 546 378 651 q 403 353 378 438 q 477 210 428 268 q 598 122 526 153 q 763 92 669 92 m 961 1633 q 933 1650 944 1633 q 921 1682 921 1667 q 926 1701 921 1694 q 936 1714 931 1708 l 1165 1890 q 1205 1914 1186 1907 q 1246 1921 1224 1921 q 1278 1912 1264 1921 q 1304 1885 1292 1903 l 1436 1704 q 1444 1687 1443 1694 q 1444 1672 1444 1679 q 1426 1644 1444 1656 q 1396 1633 1408 1633 q 1372 1640 1382 1633 q 1351 1656 1363 1646 l 1219 1781 l 1004 1649 q 983 1638 994 1643 q 961 1633 972 1633 z "},"Ö":{"ha":1556,"x_min":249,"x_max":1583,"o":"m 742 -26 q 538 12 629 -26 q 381 123 446 50 q 283 299 317 196 q 249 532 249 403 q 275 776 249 653 q 353 1015 301 899 q 477 1231 404 1131 q 644 1408 550 1332 q 851 1526 739 1483 q 1093 1569 964 1569 q 1297 1531 1206 1569 q 1451 1421 1388 1493 q 1549 1247 1515 1349 q 1583 1017 1583 1144 q 1556 765 1583 890 q 1478 522 1529 639 q 1352 306 1426 406 q 1185 131 1278 206 q 981 15 1092 57 q 742 -26 869 -26 m 763 92 q 958 129 867 92 q 1126 233 1049 167 q 1264 387 1203 299 q 1367 578 1325 475 q 1432 788 1410 681 q 1454 1003 1454 896 q 1429 1194 1454 1111 q 1356 1335 1404 1278 q 1236 1422 1307 1393 q 1072 1451 1165 1451 q 879 1415 971 1451 q 710 1310 788 1378 q 572 1156 633 1243 q 467 967 510 1068 q 401 758 424 865 q 378 546 378 651 q 403 353 378 438 q 477 210 428 268 q 598 122 526 153 q 763 92 669 92 m 1011 1682 q 963 1700 982 1682 q 943 1754 943 1718 q 969 1824 943 1792 q 1044 1857 994 1857 q 1092 1840 1072 1857 q 1111 1786 1111 1822 q 1088 1715 1111 1749 q 1011 1682 1064 1682 m 1353 1682 q 1305 1700 1325 1682 q 1285 1754 1285 1718 q 1310 1824 1285 1792 q 1386 1857 1336 1857 q 1434 1840 1414 1857 q 1454 1786 1454 1822 q 1430 1715 1454 1749 q 1353 1682 1406 1682 z "},"Ò":{"ha":1556,"x_min":249,"x_max":1583,"o":"m 742 -26 q 538 12 629 -26 q 381 123 446 50 q 283 299 317 196 q 249 532 249 403 q 275 776 249 653 q 353 1015 301 899 q 477 1231 404 1131 q 644 1408 550 1332 q 851 1526 739 1483 q 1093 1569 964 1569 q 1297 1531 1206 1569 q 1451 1421 1388 1493 q 1549 1247 1515 1349 q 1583 1017 1583 1144 q 1556 765 1583 890 q 1478 522 1529 639 q 1352 306 1426 406 q 1185 131 1278 206 q 981 15 1092 57 q 742 -26 869 -26 m 763 92 q 958 129 867 92 q 1126 233 1049 167 q 1264 387 1203 299 q 1367 578 1325 475 q 1432 788 1410 681 q 1454 1003 1454 896 q 1429 1194 1454 1111 q 1356 1335 1404 1278 q 1236 1422 1307 1393 q 1072 1451 1165 1451 q 879 1415 971 1451 q 710 1310 788 1378 q 572 1156 633 1243 q 467 967 510 1068 q 401 758 424 865 q 378 546 378 651 q 403 353 378 438 q 477 210 428 268 q 598 122 526 153 q 763 92 669 92 m 1246 1632 q 1233 1635 1240 1632 q 1218 1644 1226 1639 l 1011 1819 q 994 1838 997 1831 q 990 1854 990 1844 q 1003 1886 990 1869 q 1034 1915 1017 1903 q 1064 1928 1051 1928 q 1080 1924 1074 1928 q 1093 1913 1086 1919 l 1286 1707 q 1296 1693 1294 1699 q 1297 1682 1297 1688 q 1280 1650 1297 1668 q 1246 1632 1263 1632 z "},"Ő":{"ha":1556,"x_min":249,"x_max":1583,"o":"m 742 -26 q 538 12 629 -26 q 381 123 446 50 q 283 299 317 196 q 249 532 249 403 q 275 776 249 653 q 353 1015 301 899 q 477 1231 404 1131 q 644 1408 550 1332 q 851 1526 739 1483 q 1093 1569 964 1569 q 1297 1531 1206 1569 q 1451 1421 1388 1493 q 1549 1247 1515 1349 q 1583 1017 1583 1144 q 1556 765 1583 890 q 1478 522 1529 639 q 1352 306 1426 406 q 1185 131 1278 206 q 981 15 1092 57 q 742 -26 869 -26 m 763 92 q 958 129 867 92 q 1126 233 1049 167 q 1264 387 1203 299 q 1367 578 1325 475 q 1432 788 1410 681 q 1454 1003 1454 896 q 1429 1194 1454 1111 q 1356 1335 1404 1278 q 1236 1422 1307 1393 q 1072 1451 1165 1451 q 879 1415 971 1451 q 710 1310 788 1378 q 572 1156 633 1243 q 467 967 510 1068 q 401 758 424 865 q 378 546 378 651 q 403 353 378 438 q 477 210 428 268 q 598 122 526 153 q 763 92 669 92 m 1022 1632 q 989 1650 1007 1632 q 971 1683 971 1668 q 972 1694 971 1689 q 983 1708 974 1700 l 1183 1913 q 1197 1924 1190 1919 q 1213 1928 1203 1928 q 1244 1915 1226 1928 q 1274 1886 1261 1903 q 1286 1854 1286 1869 q 1283 1838 1286 1844 q 1265 1819 1281 1831 l 1050 1644 q 1035 1635 1042 1639 q 1022 1632 1028 1632 m 1303 1632 q 1268 1650 1286 1632 q 1250 1683 1250 1668 q 1251 1694 1250 1689 q 1263 1708 1253 1700 l 1463 1913 q 1477 1924 1471 1919 q 1493 1928 1483 1928 q 1524 1915 1507 1928 q 1553 1886 1540 1903 q 1565 1854 1565 1869 q 1563 1838 1565 1844 q 1544 1819 1560 1831 l 1329 1644 q 1315 1635 1321 1639 q 1303 1632 1308 1632 z "},"Ō":{"ha":1556,"x_min":249,"x_max":1583,"o":"m 742 -26 q 538 12 629 -26 q 381 123 446 50 q 283 299 317 196 q 249 532 249 403 q 275 776 249 653 q 353 1015 301 899 q 477 1231 404 1131 q 644 1408 550 1332 q 851 1526 739 1483 q 1093 1569 964 1569 q 1297 1531 1206 1569 q 1451 1421 1388 1493 q 1549 1247 1515 1349 q 1583 1017 1583 1144 q 1556 765 1583 890 q 1478 522 1529 639 q 1352 306 1426 406 q 1185 131 1278 206 q 981 15 1092 57 q 742 -26 869 -26 m 763 92 q 958 129 867 92 q 1126 233 1049 167 q 1264 387 1203 299 q 1367 578 1325 475 q 1432 788 1410 681 q 1454 1003 1454 896 q 1429 1194 1454 1111 q 1356 1335 1404 1278 q 1236 1422 1307 1393 q 1072 1451 1165 1451 q 879 1415 971 1451 q 710 1310 788 1378 q 572 1156 633 1243 q 467 967 510 1068 q 401 758 424 865 q 378 546 378 651 q 403 353 378 438 q 477 210 428 268 q 598 122 526 153 q 763 92 669 92 m 999 1718 q 966 1734 972 1718 q 967 1775 960 1750 q 986 1821 974 1806 q 1024 1836 999 1836 l 1404 1836 q 1438 1819 1432 1836 q 1438 1775 1444 1801 q 1418 1733 1431 1747 q 1381 1718 1406 1718 l 999 1718 z "},"Ø":{"ha":1556,"x_min":179,"x_max":1635,"o":"m 742 -26 q 538 12 629 -26 q 381 123 446 50 q 283 299 317 196 q 249 532 249 403 q 275 776 249 653 q 353 1015 301 899 q 477 1231 404 1131 q 644 1408 550 1332 q 851 1526 739 1483 q 1093 1569 964 1569 q 1297 1531 1206 1569 q 1451 1421 1388 1493 q 1549 1247 1515 1349 q 1583 1017 1583 1144 q 1556 765 1583 890 q 1478 522 1529 639 q 1352 306 1426 406 q 1185 131 1278 206 q 981 15 1092 57 q 742 -26 869 -26 m 763 92 q 958 129 867 92 q 1126 233 1049 167 q 1264 387 1203 299 q 1367 578 1325 475 q 1432 788 1410 681 q 1454 1003 1454 896 q 1429 1194 1454 1111 q 1356 1335 1404 1278 q 1236 1422 1307 1393 q 1072 1451 1165 1451 q 879 1415 971 1451 q 710 1310 788 1378 q 572 1156 633 1243 q 467 967 510 1068 q 401 758 424 865 q 378 546 378 651 q 403 353 378 438 q 477 210 428 268 q 598 122 526 153 q 763 92 669 92 m 299 -42 q 269 -60 289 -56 q 222 -43 249 -65 q 208 28 179 -8 l 1532 1571 q 1565 1588 1543 1586 q 1610 1571 1588 1589 q 1633 1537 1629 1557 q 1621 1499 1636 1517 l 299 -42 z "},"Õ":{"ha":1556,"x_min":249,"x_max":1583,"o":"m 742 -26 q 538 12 629 -26 q 381 123 446 50 q 283 299 317 196 q 249 532 249 403 q 275 776 249 653 q 353 1015 301 899 q 477 1231 404 1131 q 644 1408 550 1332 q 851 1526 739 1483 q 1093 1569 964 1569 q 1297 1531 1206 1569 q 1451 1421 1388 1493 q 1549 1247 1515 1349 q 1583 1017 1583 1144 q 1556 765 1583 890 q 1478 522 1529 639 q 1352 306 1426 406 q 1185 131 1278 206 q 981 15 1092 57 q 742 -26 869 -26 m 763 92 q 958 129 867 92 q 1126 233 1049 167 q 1264 387 1203 299 q 1367 578 1325 475 q 1432 788 1410 681 q 1454 1003 1454 896 q 1429 1194 1454 1111 q 1356 1335 1404 1278 q 1236 1422 1307 1393 q 1072 1451 1165 1451 q 879 1415 971 1451 q 710 1310 788 1378 q 572 1156 633 1243 q 467 967 510 1068 q 401 758 424 865 q 378 546 378 651 q 403 353 378 438 q 477 210 428 268 q 598 122 526 153 q 763 92 669 92 m 975 1675 q 933 1714 931 1675 q 978 1847 942 1806 q 1081 1889 1015 1889 q 1158 1874 1124 1889 q 1222 1840 1193 1860 q 1275 1804 1250 1819 q 1325 1789 1300 1789 q 1353 1805 1340 1789 q 1372 1854 1367 1821 q 1431 1892 1379 1892 q 1462 1883 1453 1892 q 1469 1854 1471 1874 q 1426 1719 1461 1763 q 1324 1676 1390 1676 q 1245 1692 1281 1676 q 1181 1726 1210 1707 q 1127 1761 1153 1746 q 1078 1776 1101 1776 q 1046 1759 1058 1776 q 1028 1708 1033 1742 q 1012 1683 1025 1692 q 975 1675 999 1675 z "},"Ố":{"ha":1556,"x_min":249,"x_max":1690,"o":"m 742 -26 q 538 12 629 -26 q 381 123 446 50 q 283 299 317 196 q 249 532 249 403 q 275 776 249 653 q 353 1015 301 899 q 477 1231 404 1131 q 644 1408 550 1332 q 851 1526 739 1483 q 1093 1569 964 1569 q 1297 1531 1206 1569 q 1451 1421 1388 1493 q 1549 1247 1515 1349 q 1583 1017 1583 1144 q 1556 765 1583 890 q 1478 522 1529 639 q 1352 306 1426 406 q 1185 131 1278 206 q 981 15 1092 57 q 742 -26 869 -26 m 763 92 q 958 129 867 92 q 1126 233 1049 167 q 1264 387 1203 299 q 1367 578 1325 475 q 1432 788 1410 681 q 1454 1003 1454 896 q 1429 1194 1454 1111 q 1356 1335 1404 1278 q 1236 1422 1307 1393 q 1072 1451 1165 1451 q 879 1415 971 1451 q 710 1310 788 1378 q 572 1156 633 1243 q 467 967 510 1068 q 401 758 424 865 q 378 546 378 651 q 403 353 378 438 q 477 210 428 268 q 598 122 526 153 q 763 92 669 92 m 961 1633 q 933 1650 944 1633 q 921 1682 921 1667 q 926 1701 921 1694 q 936 1714 931 1708 l 1165 1890 q 1205 1914 1186 1907 q 1246 1921 1224 1921 q 1278 1912 1264 1921 q 1304 1885 1292 1903 l 1436 1704 q 1444 1687 1443 1694 q 1444 1672 1444 1679 q 1426 1644 1444 1656 q 1396 1633 1408 1633 q 1372 1640 1382 1633 q 1351 1656 1363 1646 l 1219 1781 l 1004 1649 q 983 1638 994 1643 q 961 1633 972 1633 m 1440 1844 q 1406 1864 1425 1844 q 1388 1896 1388 1883 q 1390 1908 1388 1901 q 1401 1922 1392 1914 l 1588 2104 q 1603 2117 1596 2113 q 1619 2121 1610 2121 q 1650 2108 1633 2121 q 1679 2078 1667 2096 q 1692 2046 1692 2061 q 1688 2029 1692 2036 q 1669 2013 1685 2022 l 1467 1858 q 1452 1849 1458 1853 q 1440 1844 1446 1844 z "},"Ộ":{"ha":1556,"x_min":249,"x_max":1583,"o":"m 742 -26 q 538 12 629 -26 q 381 123 446 50 q 283 299 317 196 q 249 532 249 403 q 275 776 249 653 q 353 1015 301 899 q 477 1231 404 1131 q 644 1408 550 1332 q 851 1526 739 1483 q 1093 1569 964 1569 q 1297 1531 1206 1569 q 1451 1421 1388 1493 q 1549 1247 1515 1349 q 1583 1017 1583 1144 q 1556 765 1583 890 q 1478 522 1529 639 q 1352 306 1426 406 q 1185 131 1278 206 q 981 15 1092 57 q 742 -26 869 -26 m 763 92 q 958 129 867 92 q 1126 233 1049 167 q 1264 387 1203 299 q 1367 578 1325 475 q 1432 788 1410 681 q 1454 1003 1454 896 q 1429 1194 1454 1111 q 1356 1335 1404 1278 q 1236 1422 1307 1393 q 1072 1451 1165 1451 q 879 1415 971 1451 q 710 1310 788 1378 q 572 1156 633 1243 q 467 967 510 1068 q 401 758 424 865 q 378 546 378 651 q 403 353 378 438 q 477 210 428 268 q 598 122 526 153 q 763 92 669 92 m 571 -322 q 524 -304 543 -322 q 504 -251 504 -286 q 528 -181 504 -214 q 604 -147 553 -147 q 653 -165 633 -147 q 672 -218 672 -183 q 648 -290 672 -257 q 571 -322 624 -322 m 961 1633 q 933 1650 944 1633 q 921 1682 921 1667 q 926 1701 921 1694 q 936 1714 931 1708 l 1165 1890 q 1205 1914 1186 1907 q 1246 1921 1224 1921 q 1278 1912 1264 1921 q 1304 1885 1292 1903 l 1436 1704 q 1444 1687 1443 1694 q 1444 1672 1444 1679 q 1426 1644 1444 1656 q 1396 1633 1408 1633 q 1372 1640 1382 1633 q 1351 1656 1363 1646 l 1219 1781 l 1004 1649 q 983 1638 994 1643 q 961 1633 972 1633 z "},"Ồ":{"ha":1556,"x_min":249,"x_max":1583,"o":"m 742 -26 q 538 12 629 -26 q 381 123 446 50 q 283 299 317 196 q 249 532 249 403 q 275 776 249 653 q 353 1015 301 899 q 477 1231 404 1131 q 644 1408 550 1332 q 851 1526 739 1483 q 1093 1569 964 1569 q 1297 1531 1206 1569 q 1451 1421 1388 1493 q 1549 1247 1515 1349 q 1583 1017 1583 1144 q 1556 765 1583 890 q 1478 522 1529 639 q 1352 306 1426 406 q 1185 131 1278 206 q 981 15 1092 57 q 742 -26 869 -26 m 763 92 q 958 129 867 92 q 1126 233 1049 167 q 1264 387 1203 299 q 1367 578 1325 475 q 1432 788 1410 681 q 1454 1003 1454 896 q 1429 1194 1454 1111 q 1356 1335 1404 1278 q 1236 1422 1307 1393 q 1072 1451 1165 1451 q 879 1415 971 1451 q 710 1310 788 1378 q 572 1156 633 1243 q 467 967 510 1068 q 401 758 424 865 q 378 546 378 651 q 403 353 378 438 q 477 210 428 268 q 598 122 526 153 q 763 92 669 92 m 961 1633 q 933 1650 944 1633 q 921 1682 921 1667 q 926 1701 921 1694 q 936 1714 931 1708 l 1165 1890 q 1205 1914 1186 1907 q 1246 1921 1224 1921 q 1278 1912 1264 1921 q 1304 1885 1292 1903 l 1436 1704 q 1444 1687 1443 1694 q 1444 1672 1444 1679 q 1426 1644 1444 1656 q 1396 1633 1408 1633 q 1372 1640 1382 1633 q 1351 1656 1363 1646 l 1219 1781 l 1004 1649 q 983 1638 994 1643 q 961 1633 972 1633 m 1526 1822 q 1515 1825 1521 1822 q 1500 1836 1508 1828 l 1322 2026 q 1306 2044 1311 2038 q 1301 2061 1301 2051 q 1315 2094 1301 2078 q 1347 2122 1328 2111 q 1382 2133 1367 2133 q 1398 2129 1390 2133 q 1411 2117 1406 2125 l 1569 1901 q 1578 1885 1576 1890 q 1581 1874 1581 1879 q 1563 1840 1581 1858 q 1526 1822 1546 1822 z "},"Ổ":{"ha":1556,"x_min":249,"x_max":1651,"o":"m 742 -26 q 538 12 629 -26 q 381 123 446 50 q 283 299 317 196 q 249 532 249 403 q 275 776 249 653 q 353 1015 301 899 q 477 1231 404 1131 q 644 1408 550 1332 q 851 1526 739 1483 q 1093 1569 964 1569 q 1297 1531 1206 1569 q 1451 1421 1388 1493 q 1549 1247 1515 1349 q 1583 1017 1583 1144 q 1556 765 1583 890 q 1478 522 1529 639 q 1352 306 1426 406 q 1185 131 1278 206 q 981 15 1092 57 q 742 -26 869 -26 m 763 92 q 958 129 867 92 q 1126 233 1049 167 q 1264 387 1203 299 q 1367 578 1325 475 q 1432 788 1410 681 q 1454 1003 1454 896 q 1429 1194 1454 1111 q 1356 1335 1404 1278 q 1236 1422 1307 1393 q 1072 1451 1165 1451 q 879 1415 971 1451 q 710 1310 788 1378 q 572 1156 633 1243 q 467 967 510 1068 q 401 758 424 865 q 378 546 378 651 q 403 353 378 438 q 477 210 428 268 q 598 122 526 153 q 763 92 669 92 m 961 1633 q 933 1650 944 1633 q 921 1682 921 1667 q 926 1701 921 1694 q 936 1714 931 1708 l 1165 1890 q 1205 1914 1186 1907 q 1246 1921 1224 1921 q 1278 1912 1264 1921 q 1304 1885 1292 1903 l 1436 1704 q 1444 1687 1443 1694 q 1444 1672 1444 1679 q 1426 1644 1444 1656 q 1396 1633 1408 1633 q 1372 1640 1382 1633 q 1351 1656 1363 1646 l 1219 1781 l 1004 1649 q 983 1638 994 1643 q 961 1633 972 1633 m 1514 2163 q 1616 2133 1579 2163 q 1653 2053 1653 2104 q 1631 1981 1653 2013 q 1569 1926 1610 1949 q 1531 1899 1540 1911 q 1521 1872 1521 1886 l 1519 1854 q 1505 1828 1519 1838 q 1472 1819 1490 1819 q 1438 1826 1453 1818 q 1421 1850 1424 1833 l 1415 1883 q 1424 1940 1410 1917 q 1469 1983 1439 1964 q 1506 2012 1494 1997 q 1517 2038 1517 2026 q 1508 2055 1517 2049 q 1483 2061 1500 2061 q 1447 2055 1467 2061 q 1403 2039 1426 2049 q 1350 2068 1369 2022 q 1371 2125 1336 2103 q 1439 2153 1404 2143 q 1514 2163 1474 2163 z "},"Ỗ":{"ha":1556,"x_min":249,"x_max":1583,"o":"m 742 -26 q 538 12 629 -26 q 381 123 446 50 q 283 299 317 196 q 249 532 249 403 q 275 776 249 653 q 353 1015 301 899 q 477 1231 404 1131 q 644 1408 550 1332 q 851 1526 739 1483 q 1093 1569 964 1569 q 1297 1531 1206 1569 q 1451 1421 1388 1493 q 1549 1247 1515 1349 q 1583 1017 1583 1144 q 1556 765 1583 890 q 1478 522 1529 639 q 1352 306 1426 406 q 1185 131 1278 206 q 981 15 1092 57 q 742 -26 869 -26 m 763 92 q 958 129 867 92 q 1126 233 1049 167 q 1264 387 1203 299 q 1367 578 1325 475 q 1432 788 1410 681 q 1454 1003 1454 896 q 1429 1194 1454 1111 q 1356 1335 1404 1278 q 1236 1422 1307 1393 q 1072 1451 1165 1451 q 879 1415 971 1451 q 710 1310 788 1378 q 572 1156 633 1243 q 467 967 510 1068 q 401 758 424 865 q 378 546 378 651 q 403 353 378 438 q 477 210 428 268 q 598 122 526 153 q 763 92 669 92 m 961 1633 q 933 1650 944 1633 q 921 1681 921 1667 q 926 1701 921 1694 q 936 1714 931 1708 l 1165 1890 q 1205 1914 1186 1907 q 1246 1921 1224 1921 q 1278 1912 1264 1921 q 1304 1885 1292 1903 l 1436 1704 q 1444 1687 1443 1694 q 1444 1672 1444 1679 q 1426 1644 1444 1656 q 1396 1633 1408 1633 q 1372 1640 1382 1633 q 1351 1656 1363 1646 l 1219 1781 l 1004 1649 q 983 1638 994 1643 q 961 1633 972 1633 m 1044 1944 q 1003 1982 1000 1944 q 1048 2116 1011 2074 q 1150 2158 1085 2158 q 1228 2144 1193 2158 q 1291 2108 1263 2129 q 1344 2073 1319 2088 q 1394 2058 1369 2058 q 1423 2074 1410 2058 q 1442 2124 1436 2089 q 1500 2160 1447 2160 q 1531 2151 1522 2160 q 1538 2124 1540 2142 q 1495 1989 1531 2032 q 1393 1946 1460 1946 q 1315 1960 1350 1946 q 1251 1995 1279 1975 q 1197 2030 1222 2015 q 1147 2044 1171 2044 q 1115 2028 1128 2044 q 1097 1976 1103 2011 q 1081 1953 1094 1961 q 1044 1944 1068 1944 z "},"Ọ":{"ha":1556,"x_min":249,"x_max":1583,"o":"m 742 -26 q 538 12 629 -26 q 381 123 446 50 q 283 299 317 196 q 249 532 249 403 q 275 776 249 653 q 353 1015 301 899 q 477 1231 404 1131 q 644 1408 550 1332 q 851 1526 739 1483 q 1093 1569 964 1569 q 1297 1531 1206 1569 q 1451 1421 1388 1493 q 1549 1247 1515 1349 q 1583 1017 1583 1144 q 1556 765 1583 890 q 1478 522 1529 639 q 1352 306 1426 406 q 1185 131 1278 206 q 981 15 1092 57 q 742 -26 869 -26 m 763 92 q 958 129 867 92 q 1126 233 1049 167 q 1264 387 1203 299 q 1367 578 1325 475 q 1432 788 1410 681 q 1454 1003 1454 896 q 1429 1194 1454 1111 q 1356 1335 1404 1278 q 1236 1422 1307 1393 q 1072 1451 1165 1451 q 879 1415 971 1451 q 710 1310 788 1378 q 572 1156 633 1243 q 467 967 510 1068 q 401 758 424 865 q 378 546 378 651 q 403 353 378 438 q 477 210 428 268 q 598 122 526 153 q 763 92 669 92 m 571 -322 q 524 -304 543 -322 q 504 -251 504 -286 q 528 -181 504 -214 q 604 -147 553 -147 q 653 -165 633 -147 q 672 -218 672 -183 q 648 -290 672 -257 q 571 -322 624 -322 z "},"Ỏ":{"ha":1556,"x_min":249,"x_max":1583,"o":"m 742 -26 q 538 12 629 -26 q 381 123 446 50 q 283 299 317 196 q 249 532 249 403 q 275 776 249 653 q 353 1015 301 899 q 477 1231 404 1131 q 644 1408 550 1332 q 851 1526 739 1483 q 1093 1569 964 1569 q 1297 1531 1206 1569 q 1451 1421 1388 1493 q 1549 1247 1515 1349 q 1583 1017 1583 1144 q 1556 765 1583 890 q 1478 522 1529 639 q 1352 306 1426 406 q 1185 131 1278 206 q 981 15 1092 57 q 742 -26 869 -26 m 763 92 q 958 129 867 92 q 1126 233 1049 167 q 1264 387 1203 299 q 1367 578 1325 475 q 1432 788 1410 681 q 1454 1003 1454 896 q 1429 1194 1454 1111 q 1356 1335 1404 1278 q 1236 1422 1307 1393 q 1072 1451 1165 1451 q 879 1415 971 1451 q 710 1310 788 1378 q 572 1156 633 1243 q 467 967 510 1068 q 401 758 424 865 q 378 546 378 651 q 403 353 378 438 q 477 210 428 268 q 598 122 526 153 q 763 92 669 92 m 1226 1964 q 1328 1935 1292 1964 q 1365 1856 1365 1907 q 1344 1783 1365 1815 q 1282 1728 1322 1751 q 1244 1700 1254 1713 q 1233 1674 1235 1688 l 1232 1657 q 1218 1630 1232 1639 q 1185 1620 1204 1621 q 1151 1628 1167 1619 q 1133 1651 1136 1636 l 1129 1685 q 1138 1742 1124 1718 q 1183 1785 1151 1767 q 1219 1813 1207 1799 q 1231 1840 1231 1828 q 1222 1857 1231 1851 q 1196 1863 1213 1863 q 1159 1857 1179 1863 q 1117 1840 1139 1851 q 1063 1869 1083 1824 q 1085 1928 1049 1906 q 1151 1955 1117 1946 q 1226 1964 1186 1964 z "},"Ơ":{"ha":1556,"x_min":249,"x_max":1679,"o":"m 742 -26 q 538 12 629 -26 q 381 123 446 50 q 283 299 317 196 q 249 532 249 403 q 275 776 249 653 q 353 1015 301 899 q 477 1231 404 1131 q 644 1408 550 1332 q 851 1526 739 1483 q 1093 1569 964 1569 q 1223 1554 1164 1569 q 1329 1508 1282 1539 q 1462 1531 1413 1513 q 1535 1583 1511 1549 q 1562 1670 1558 1618 q 1554 1794 1565 1722 q 1566 1826 1551 1814 q 1602 1842 1581 1838 q 1642 1839 1624 1846 q 1664 1814 1661 1832 q 1677 1685 1679 1746 q 1650 1574 1675 1624 q 1572 1489 1625 1524 q 1432 1440 1519 1454 q 1544 1262 1504 1369 q 1583 1017 1583 1154 q 1556 765 1583 890 q 1478 522 1529 639 q 1352 306 1426 406 q 1185 131 1278 206 q 981 15 1092 57 q 742 -26 869 -26 m 763 92 q 958 129 867 92 q 1126 233 1049 167 q 1264 387 1203 299 q 1367 578 1325 475 q 1432 788 1410 681 q 1454 1003 1454 896 q 1429 1194 1454 1111 q 1356 1335 1404 1278 q 1236 1422 1307 1393 q 1072 1451 1165 1451 q 879 1415 971 1451 q 710 1310 788 1378 q 572 1156 633 1243 q 467 967 510 1068 q 401 758 424 865 q 378 546 378 651 q 403 353 378 438 q 477 210 428 268 q 598 122 526 153 q 763 92 669 92 z "},"Ớ":{"ha":1556,"x_min":249,"x_max":1679,"o":"m 742 -26 q 538 12 629 -26 q 381 123 446 50 q 283 299 317 196 q 249 532 249 403 q 275 776 249 653 q 353 1015 301 899 q 477 1231 404 1131 q 644 1408 550 1332 q 851 1526 739 1483 q 1093 1569 964 1569 q 1223 1554 1164 1569 q 1329 1508 1282 1539 q 1462 1531 1413 1513 q 1535 1583 1511 1549 q 1562 1670 1558 1618 q 1554 1794 1565 1722 q 1566 1826 1551 1814 q 1602 1842 1581 1838 q 1642 1839 1624 1846 q 1664 1814 1661 1832 q 1677 1685 1679 1746 q 1650 1574 1675 1624 q 1572 1489 1625 1524 q 1432 1440 1519 1454 q 1544 1262 1504 1369 q 1583 1017 1583 1154 q 1556 765 1583 890 q 1478 522 1529 639 q 1352 306 1426 406 q 1185 131 1278 206 q 981 15 1092 57 q 742 -26 869 -26 m 763 92 q 958 129 867 92 q 1126 233 1049 167 q 1264 387 1203 299 q 1367 578 1325 475 q 1432 788 1410 681 q 1454 1003 1454 896 q 1429 1194 1454 1111 q 1356 1335 1404 1278 q 1236 1422 1307 1393 q 1072 1451 1165 1451 q 879 1415 971 1451 q 710 1310 788 1378 q 572 1156 633 1243 q 467 967 510 1068 q 401 758 424 865 q 378 546 378 651 q 403 353 378 438 q 477 210 428 268 q 598 122 526 153 q 763 92 669 92 m 1100 1632 q 1065 1650 1083 1632 q 1047 1683 1047 1668 q 1049 1694 1047 1689 q 1061 1708 1051 1700 l 1288 1913 q 1302 1924 1296 1919 q 1318 1928 1308 1928 q 1349 1915 1332 1928 q 1378 1886 1365 1903 q 1390 1854 1390 1869 q 1388 1836 1390 1843 q 1369 1819 1385 1829 l 1126 1644 q 1112 1635 1118 1639 q 1100 1632 1106 1632 z "},"Ợ":{"ha":1556,"x_min":249,"x_max":1679,"o":"m 742 -26 q 538 12 629 -26 q 381 123 446 50 q 283 299 317 196 q 249 532 249 403 q 275 776 249 653 q 353 1015 301 899 q 477 1231 404 1131 q 644 1408 550 1332 q 851 1526 739 1483 q 1093 1569 964 1569 q 1223 1554 1164 1569 q 1329 1508 1282 1539 q 1462 1531 1413 1513 q 1535 1583 1511 1549 q 1562 1670 1558 1618 q 1554 1794 1565 1722 q 1566 1826 1551 1814 q 1602 1842 1581 1838 q 1642 1839 1624 1846 q 1664 1814 1661 1832 q 1677 1685 1679 1746 q 1650 1574 1675 1624 q 1572 1489 1625 1524 q 1432 1440 1519 1454 q 1544 1262 1504 1369 q 1583 1017 1583 1154 q 1556 765 1583 890 q 1478 522 1529 639 q 1352 306 1426 406 q 1185 131 1278 206 q 981 15 1092 57 q 742 -26 869 -26 m 763 92 q 958 129 867 92 q 1126 233 1049 167 q 1264 387 1203 299 q 1367 578 1325 475 q 1432 788 1410 681 q 1454 1003 1454 896 q 1429 1194 1454 1111 q 1356 1335 1404 1278 q 1236 1422 1307 1393 q 1072 1451 1165 1451 q 879 1415 971 1451 q 710 1310 788 1378 q 572 1156 633 1243 q 467 967 510 1068 q 401 758 424 865 q 378 546 378 651 q 403 353 378 438 q 477 210 428 268 q 598 122 526 153 q 763 92 669 92 m 571 -322 q 524 -304 543 -322 q 504 -251 504 -286 q 528 -181 504 -214 q 604 -147 553 -147 q 653 -165 633 -147 q 672 -218 672 -183 q 648 -290 672 -257 q 571 -322 624 -322 z "},"Ờ":{"ha":1556,"x_min":249,"x_max":1679,"o":"m 742 -26 q 538 12 629 -26 q 381 123 446 50 q 283 299 317 196 q 249 532 249 403 q 275 776 249 653 q 353 1015 301 899 q 477 1231 404 1131 q 644 1408 550 1332 q 851 1526 739 1483 q 1093 1569 964 1569 q 1223 1554 1164 1569 q 1329 1508 1282 1539 q 1462 1531 1413 1513 q 1535 1583 1511 1549 q 1562 1670 1558 1618 q 1554 1794 1565 1722 q 1566 1826 1551 1814 q 1602 1842 1581 1838 q 1642 1839 1624 1846 q 1664 1814 1661 1832 q 1677 1685 1679 1746 q 1650 1574 1675 1624 q 1572 1489 1625 1524 q 1432 1440 1519 1454 q 1544 1262 1504 1369 q 1583 1017 1583 1154 q 1556 765 1583 890 q 1478 522 1529 639 q 1352 306 1426 406 q 1185 131 1278 206 q 981 15 1092 57 q 742 -26 869 -26 m 763 92 q 958 129 867 92 q 1126 233 1049 167 q 1264 387 1203 299 q 1367 578 1325 475 q 1432 788 1410 681 q 1454 1003 1454 896 q 1429 1194 1454 1111 q 1356 1335 1404 1278 q 1236 1422 1307 1393 q 1072 1451 1165 1451 q 879 1415 971 1451 q 710 1310 788 1378 q 572 1156 633 1243 q 467 967 510 1068 q 401 758 424 865 q 378 546 378 651 q 403 353 378 438 q 477 210 428 268 q 598 122 526 153 q 763 92 669 92 m 1246 1632 q 1233 1635 1240 1632 q 1218 1644 1226 1639 l 1011 1819 q 994 1838 997 1831 q 990 1854 990 1844 q 1003 1886 990 1869 q 1034 1915 1017 1903 q 1064 1928 1051 1928 q 1080 1924 1074 1928 q 1093 1913 1086 1919 l 1286 1707 q 1296 1693 1294 1699 q 1297 1682 1297 1688 q 1280 1650 1297 1668 q 1246 1632 1263 1632 z "},"Ở":{"ha":1556,"x_min":249,"x_max":1679,"o":"m 742 -26 q 538 12 629 -26 q 381 123 446 50 q 283 299 317 196 q 249 532 249 403 q 275 776 249 653 q 353 1015 301 899 q 477 1231 404 1131 q 644 1408 550 1332 q 851 1526 739 1483 q 1093 1569 964 1569 q 1223 1554 1164 1569 q 1329 1508 1282 1539 q 1462 1531 1413 1513 q 1535 1583 1511 1549 q 1562 1670 1558 1618 q 1554 1794 1565 1722 q 1566 1826 1551 1814 q 1602 1842 1581 1838 q 1642 1839 1624 1846 q 1664 1814 1661 1832 q 1677 1685 1679 1746 q 1650 1574 1675 1624 q 1572 1489 1625 1524 q 1432 1440 1519 1454 q 1544 1262 1504 1369 q 1583 1017 1583 1154 q 1556 765 1583 890 q 1478 522 1529 639 q 1352 306 1426 406 q 1185 131 1278 206 q 981 15 1092 57 q 742 -26 869 -26 m 763 92 q 958 129 867 92 q 1126 233 1049 167 q 1264 387 1203 299 q 1367 578 1325 475 q 1432 788 1410 681 q 1454 1003 1454 896 q 1429 1194 1454 1111 q 1356 1335 1404 1278 q 1236 1422 1307 1393 q 1072 1451 1165 1451 q 879 1415 971 1451 q 710 1310 788 1378 q 572 1156 633 1243 q 467 967 510 1068 q 401 758 424 865 q 378 546 378 651 q 403 353 378 438 q 477 210 428 268 q 598 122 526 153 q 763 92 669 92 m 1226 1964 q 1328 1935 1292 1964 q 1365 1856 1365 1907 q 1344 1783 1365 1815 q 1282 1728 1322 1751 q 1244 1700 1254 1713 q 1233 1674 1235 1688 l 1232 1657 q 1218 1630 1232 1639 q 1185 1620 1204 1621 q 1151 1628 1167 1619 q 1133 1651 1136 1636 l 1129 1685 q 1138 1742 1124 1718 q 1183 1785 1151 1767 q 1219 1813 1207 1799 q 1231 1840 1231 1828 q 1222 1857 1231 1851 q 1196 1863 1213 1863 q 1159 1857 1179 1863 q 1117 1840 1139 1851 q 1063 1869 1083 1824 q 1085 1928 1049 1906 q 1151 1955 1117 1946 q 1226 1964 1186 1964 z "},"Ỡ":{"ha":1556,"x_min":249,"x_max":1679,"o":"m 742 -26 q 538 12 629 -26 q 381 123 446 50 q 283 299 317 196 q 249 532 249 403 q 275 776 249 653 q 353 1015 301 899 q 477 1231 404 1131 q 644 1408 550 1332 q 851 1526 739 1483 q 1093 1569 964 1569 q 1223 1554 1164 1569 q 1329 1508 1282 1539 q 1462 1531 1413 1513 q 1535 1583 1511 1549 q 1562 1670 1558 1618 q 1554 1794 1565 1722 q 1566 1826 1551 1814 q 1602 1842 1581 1838 q 1642 1839 1624 1846 q 1664 1814 1661 1832 q 1677 1685 1679 1746 q 1650 1574 1675 1624 q 1572 1489 1625 1524 q 1432 1440 1519 1454 q 1544 1262 1504 1369 q 1583 1017 1583 1154 q 1556 765 1583 890 q 1478 522 1529 639 q 1352 306 1426 406 q 1185 131 1278 206 q 981 15 1092 57 q 742 -26 869 -26 m 763 92 q 958 129 867 92 q 1126 233 1049 167 q 1264 387 1203 299 q 1367 578 1325 475 q 1432 788 1410 681 q 1454 1003 1454 896 q 1429 1194 1454 1111 q 1356 1335 1404 1278 q 1236 1422 1307 1393 q 1072 1451 1165 1451 q 879 1415 971 1451 q 710 1310 788 1378 q 572 1156 633 1243 q 467 967 510 1068 q 401 758 424 865 q 378 546 378 651 q 403 353 378 438 q 477 210 428 268 q 598 122 526 153 q 763 92 669 92 m 942 1675 q 900 1714 897 1675 q 945 1847 908 1806 q 1047 1889 982 1889 q 1125 1874 1090 1889 q 1188 1840 1160 1860 q 1242 1804 1217 1819 q 1292 1789 1267 1789 q 1320 1805 1307 1789 q 1339 1854 1333 1821 q 1397 1892 1346 1892 q 1428 1883 1419 1892 q 1436 1854 1438 1874 q 1392 1719 1428 1763 q 1290 1676 1357 1676 q 1212 1692 1247 1676 q 1148 1726 1176 1707 q 1094 1761 1119 1746 q 1044 1776 1068 1776 q 1013 1759 1025 1776 q 994 1708 1000 1742 q 978 1683 992 1692 q 942 1675 965 1675 z "},"Ŕ":{"ha":1167,"x_min":113,"x_max":1347,"o":"m 172 -19 q 127 -10 142 -19 q 118 22 113 0 l 597 1504 q 621 1533 604 1524 q 668 1542 638 1542 l 894 1542 q 1151 1513 1050 1542 q 1299 1417 1251 1485 q 1347 1235 1347 1350 q 1324 1090 1347 1157 q 1256 964 1300 1022 q 1145 860 1211 906 q 994 781 1079 815 q 806 728 910 747 q 583 703 703 708 q 698 483 636 592 q 835 272 760 375 q 1007 71 911 169 q 1023 41 1018 60 q 996 -6 1028 22 q 955 -20 975 -24 q 918 0 935 -17 q 740 210 824 96 q 584 448 656 324 q 456 692 513 572 l 240 19 q 219 -10 233 0 q 172 -19 204 -19 m 492 801 q 677 810 590 801 q 838 838 764 819 q 973 884 913 857 q 1080 946 1033 911 q 1158 1024 1126 981 q 1206 1119 1190 1068 q 1222 1226 1222 1169 q 1190 1350 1222 1306 q 1083 1413 1158 1394 q 878 1431 1007 1431 l 696 1431 l 492 801 m 944 1632 q 910 1650 928 1632 q 892 1683 892 1668 q 894 1694 892 1689 q 906 1708 896 1700 l 1132 1913 q 1147 1924 1140 1919 q 1163 1928 1153 1928 q 1193 1915 1176 1928 q 1222 1886 1210 1903 q 1235 1854 1235 1869 q 1232 1836 1235 1843 q 1214 1819 1229 1829 l 971 1644 q 956 1635 963 1639 q 944 1632 950 1632 z "},"Ř":{"ha":1167,"x_min":113,"x_max":1347,"o":"m 172 -19 q 127 -10 142 -19 q 118 22 113 0 l 597 1504 q 621 1533 604 1524 q 668 1542 638 1542 l 894 1542 q 1151 1513 1050 1542 q 1299 1417 1251 1485 q 1347 1235 1347 1350 q 1324 1090 1347 1157 q 1256 964 1300 1022 q 1145 860 1211 906 q 994 781 1079 815 q 806 728 910 747 q 583 703 703 708 q 698 483 636 592 q 835 272 760 375 q 1007 71 911 169 q 1023 41 1018 60 q 996 -6 1028 22 q 955 -20 975 -24 q 918 0 935 -17 q 740 210 824 96 q 584 448 656 324 q 456 692 513 572 l 240 19 q 219 -10 233 0 q 172 -19 204 -19 m 492 801 q 677 810 590 801 q 838 838 764 819 q 973 884 913 857 q 1080 946 1033 911 q 1158 1024 1126 981 q 1206 1119 1190 1068 q 1222 1226 1222 1169 q 1190 1350 1222 1306 q 1083 1413 1158 1394 q 878 1431 1007 1431 l 696 1431 l 492 801 m 1281 1921 q 1310 1904 1297 1921 q 1324 1872 1324 1888 q 1319 1852 1324 1860 q 1308 1839 1315 1844 l 1079 1664 q 1039 1641 1057 1649 q 999 1633 1021 1633 q 966 1643 981 1633 q 940 1669 951 1653 l 808 1850 q 800 1868 801 1861 q 799 1881 799 1875 q 819 1910 799 1899 q 851 1921 839 1921 q 874 1915 867 1921 q 890 1900 882 1908 l 1025 1774 l 1239 1901 q 1259 1914 1249 1907 q 1281 1921 1269 1921 z "},"Ŗ":{"ha":1167,"x_min":113,"x_max":1347,"o":"m 172 -19 q 127 -10 142 -19 q 118 22 113 0 l 597 1504 q 621 1533 604 1524 q 668 1542 638 1542 l 894 1542 q 1151 1513 1050 1542 q 1299 1417 1251 1485 q 1347 1235 1347 1350 q 1324 1090 1347 1157 q 1256 964 1300 1022 q 1145 860 1211 906 q 994 781 1079 815 q 806 728 910 747 q 583 703 703 708 q 698 483 636 592 q 835 272 760 375 q 1007 71 911 169 q 1023 41 1018 60 q 996 -6 1028 22 q 955 -20 975 -24 q 918 0 935 -17 q 740 210 824 96 q 584 448 656 324 q 456 692 513 572 l 240 19 q 219 -10 233 0 q 172 -19 204 -19 m 492 801 q 677 810 590 801 q 838 838 764 819 q 973 884 913 857 q 1080 946 1033 911 q 1158 1024 1126 981 q 1206 1119 1190 1068 q 1222 1226 1222 1169 q 1190 1350 1222 1306 q 1083 1413 1158 1394 q 878 1431 1007 1431 l 696 1431 l 492 801 m 374 -399 q 355 -373 357 -387 q 365 -342 353 -358 q 407 -274 390 -304 q 433 -212 424 -244 q 447 -139 443 -181 q 466 -106 450 -115 q 508 -96 482 -96 q 556 -111 540 -96 q 568 -153 571 -126 q 547 -227 565 -187 q 501 -305 529 -267 q 442 -376 474 -343 q 407 -401 424 -394 q 374 -399 390 -408 z "},"Ś":{"ha":1157,"x_min":75,"x_max":1282,"o":"m 531 -29 q 382 -10 450 -29 q 259 40 314 8 q 162 110 204 71 q 88 188 119 149 q 83 219 75 204 q 106 247 92 233 q 139 267 124 263 q 168 256 154 271 q 260 174 207 213 q 381 113 314 136 q 532 89 449 89 q 694 112 619 89 q 823 179 768 135 q 908 288 878 224 q 939 435 939 353 q 922 530 939 488 q 874 608 906 572 q 798 674 843 643 q 694 738 753 706 q 597 798 643 767 q 511 865 550 829 q 444 943 472 900 q 401 1039 417 986 q 386 1158 386 1092 q 420 1323 386 1247 q 517 1453 454 1399 q 669 1539 581 1508 q 865 1569 758 1569 q 1024 1544 950 1569 q 1158 1477 1097 1519 q 1267 1386 1219 1435 q 1278 1356 1282 1372 q 1257 1324 1275 1340 q 1225 1306 1242 1308 q 1194 1315 1208 1304 q 1105 1382 1153 1351 q 999 1432 1057 1413 q 865 1451 940 1451 q 726 1432 790 1451 q 614 1375 661 1413 q 541 1283 567 1338 q 515 1158 515 1229 q 530 1059 515 1103 q 574 979 544 1015 q 651 910 604 943 q 764 843 699 878 q 891 763 835 804 q 986 673 947 721 q 1046 567 1025 625 q 1067 438 1067 510 q 1027 248 1067 333 q 915 100 988 163 q 744 4 842 38 q 531 -29 647 -29 m 853 1632 q 818 1650 836 1632 q 800 1683 800 1668 q 802 1694 800 1689 q 814 1708 804 1700 l 1040 1913 q 1055 1924 1049 1919 q 1071 1928 1061 1928 q 1101 1915 1085 1928 q 1131 1886 1118 1903 q 1143 1854 1143 1869 q 1140 1836 1143 1843 q 1122 1819 1138 1829 l 879 1644 q 865 1635 871 1639 q 853 1632 858 1632 z "},"Š":{"ha":1157,"x_min":75,"x_max":1282,"o":"m 531 -29 q 382 -10 450 -29 q 259 40 314 8 q 162 110 204 71 q 88 188 119 149 q 83 219 75 204 q 106 247 92 233 q 139 267 124 263 q 168 256 154 271 q 260 174 207 213 q 381 113 314 136 q 532 89 449 89 q 694 112 619 89 q 823 179 768 135 q 908 288 878 224 q 939 435 939 353 q 922 530 939 488 q 874 608 906 572 q 798 674 843 643 q 694 738 753 706 q 597 798 643 767 q 511 865 550 829 q 444 943 472 900 q 401 1039 417 986 q 386 1158 386 1092 q 420 1323 386 1247 q 517 1453 454 1399 q 669 1539 581 1508 q 865 1569 758 1569 q 1024 1544 950 1569 q 1158 1477 1097 1519 q 1267 1386 1219 1435 q 1278 1356 1282 1372 q 1257 1324 1275 1340 q 1225 1306 1242 1308 q 1194 1315 1208 1304 q 1105 1382 1153 1351 q 999 1432 1057 1413 q 865 1451 940 1451 q 726 1432 790 1451 q 614 1375 661 1413 q 541 1283 567 1338 q 515 1158 515 1229 q 530 1059 515 1103 q 574 979 544 1015 q 651 910 604 943 q 764 843 699 878 q 891 763 835 804 q 986 673 947 721 q 1046 567 1025 625 q 1067 438 1067 510 q 1027 248 1067 333 q 915 100 988 163 q 744 4 842 38 q 531 -29 647 -29 m 1190 1921 q 1220 1904 1207 1921 q 1233 1872 1233 1888 q 1229 1852 1233 1860 q 1218 1839 1225 1844 l 989 1664 q 949 1641 967 1649 q 908 1633 931 1633 q 876 1643 890 1633 q 850 1669 861 1653 l 718 1850 q 710 1868 711 1861 q 708 1881 708 1875 q 728 1910 708 1899 q 761 1921 749 1921 q 784 1915 776 1921 q 800 1900 792 1908 l 935 1774 l 1149 1901 q 1169 1914 1158 1907 q 1190 1921 1179 1921 z "},"Ş":{"ha":1157,"x_min":75,"x_max":1282,"o":"m 531 -29 q 382 -10 450 -29 q 259 40 314 8 q 162 110 204 71 q 88 188 119 149 q 83 219 75 204 q 106 247 92 233 q 139 267 124 263 q 168 256 154 271 q 260 174 207 213 q 381 113 314 136 q 532 89 449 89 q 694 112 619 89 q 823 179 768 135 q 908 288 878 224 q 939 435 939 353 q 922 530 939 488 q 874 608 906 572 q 798 674 843 643 q 694 738 753 706 q 597 798 643 767 q 511 865 550 829 q 444 943 472 900 q 401 1039 417 986 q 386 1158 386 1092 q 420 1323 386 1247 q 517 1453 454 1399 q 669 1539 581 1508 q 865 1569 758 1569 q 1024 1544 950 1569 q 1158 1477 1097 1519 q 1267 1386 1219 1435 q 1278 1356 1282 1372 q 1257 1324 1275 1340 q 1225 1306 1242 1308 q 1194 1315 1208 1304 q 1105 1382 1153 1351 q 999 1432 1057 1413 q 865 1451 940 1451 q 726 1432 790 1451 q 614 1375 661 1413 q 541 1283 567 1338 q 515 1158 515 1229 q 530 1059 515 1103 q 574 979 544 1015 q 651 910 604 943 q 764 843 699 878 q 891 763 835 804 q 986 673 947 721 q 1046 567 1025 625 q 1067 438 1067 510 q 1027 248 1067 333 q 915 100 988 163 q 744 4 842 38 q 531 -29 647 -29 m 422 -374 q 330 -363 371 -374 q 265 -335 289 -353 q 256 -306 254 -324 q 264 -276 257 -289 q 285 -252 274 -258 q 311 -251 297 -246 q 356 -269 329 -260 q 425 -278 382 -278 q 479 -267 460 -278 q 499 -229 499 -257 q 472 -191 499 -199 q 407 -187 444 -183 q 385 -185 392 -189 q 374 -172 379 -181 q 370 -153 368 -162 q 379 -135 372 -144 l 481 18 l 572 18 l 465 -146 l 425 -124 q 529 -112 486 -104 q 595 -147 572 -119 q 618 -215 618 -175 q 591 -302 618 -267 q 519 -356 564 -337 q 422 -374 475 -374 z "},"Ŝ":{"ha":1157,"x_min":75,"x_max":1282,"o":"m 531 -29 q 382 -10 450 -29 q 259 40 314 8 q 162 110 204 71 q 88 188 119 149 q 83 219 75 204 q 106 247 92 233 q 139 267 124 263 q 168 256 154 271 q 260 174 207 213 q 381 113 314 136 q 532 89 449 89 q 694 112 619 89 q 823 179 768 135 q 908 288 878 224 q 939 435 939 353 q 922 530 939 488 q 874 608 906 572 q 798 674 843 643 q 694 738 753 706 q 597 798 643 767 q 511 865 550 829 q 444 943 472 900 q 401 1039 417 986 q 386 1158 386 1092 q 420 1323 386 1247 q 517 1453 454 1399 q 669 1539 581 1508 q 865 1569 758 1569 q 1024 1544 950 1569 q 1158 1477 1097 1519 q 1267 1386 1219 1435 q 1278 1356 1282 1372 q 1257 1324 1275 1340 q 1225 1306 1242 1308 q 1194 1315 1208 1304 q 1105 1382 1153 1351 q 999 1432 1057 1413 q 865 1451 940 1451 q 726 1432 790 1451 q 614 1375 661 1413 q 541 1283 567 1338 q 515 1158 515 1229 q 530 1059 515 1103 q 574 979 544 1015 q 651 910 604 943 q 764 843 699 878 q 891 763 835 804 q 986 673 947 721 q 1046 567 1025 625 q 1067 438 1067 510 q 1027 248 1067 333 q 915 100 988 163 q 744 4 842 38 q 531 -29 647 -29 m 714 1633 q 685 1650 697 1633 q 674 1682 674 1667 q 678 1701 674 1694 q 689 1714 683 1708 l 918 1890 q 958 1914 939 1907 q 999 1921 976 1921 q 1031 1912 1017 1921 q 1057 1885 1044 1903 l 1189 1704 q 1197 1687 1196 1694 q 1197 1672 1197 1679 q 1179 1644 1197 1656 q 1149 1633 1161 1633 q 1125 1640 1135 1633 q 1104 1656 1115 1646 l 972 1781 l 757 1649 q 736 1638 747 1643 q 714 1633 725 1633 z "},"Ș":{"ha":1157,"x_min":75,"x_max":1282,"o":"m 531 -29 q 382 -10 450 -29 q 259 40 314 8 q 162 110 204 71 q 88 188 119 149 q 83 219 75 204 q 106 247 92 233 q 139 267 124 263 q 168 256 154 271 q 260 174 207 213 q 381 113 314 136 q 532 89 449 89 q 694 112 619 89 q 823 179 768 135 q 908 288 878 224 q 939 435 939 353 q 922 530 939 488 q 874 608 906 572 q 798 674 843 643 q 694 738 753 706 q 597 798 643 767 q 511 865 550 829 q 444 943 472 900 q 401 1039 417 986 q 386 1158 386 1092 q 420 1323 386 1247 q 517 1453 454 1399 q 669 1539 581 1508 q 865 1569 758 1569 q 1024 1544 950 1569 q 1158 1477 1097 1519 q 1267 1386 1219 1435 q 1278 1356 1282 1372 q 1257 1324 1275 1340 q 1225 1306 1242 1308 q 1194 1315 1208 1304 q 1105 1382 1153 1351 q 999 1432 1057 1413 q 865 1451 940 1451 q 726 1432 790 1451 q 614 1375 661 1413 q 541 1283 567 1338 q 515 1158 515 1229 q 530 1059 515 1103 q 574 979 544 1015 q 651 910 604 943 q 764 843 699 878 q 891 763 835 804 q 986 673 947 721 q 1046 567 1025 625 q 1067 438 1067 510 q 1027 248 1067 333 q 915 100 988 163 q 744 4 842 38 q 531 -29 647 -29 m 344 -399 q 326 -373 328 -387 q 336 -342 324 -358 q 378 -274 361 -304 q 404 -212 394 -244 q 418 -139 414 -181 q 437 -106 421 -115 q 479 -96 453 -96 q 526 -111 511 -96 q 539 -153 542 -126 q 518 -227 536 -187 q 472 -305 500 -267 q 413 -376 444 -343 q 378 -401 394 -394 q 344 -399 361 -408 z "},"Ŧ":{"ha":1161,"x_min":390,"x_max":1511,"o":"m 464 -21 q 415 18 404 -21 l 876 1431 l 422 1431 q 397 1443 401 1431 q 401 1486 392 1456 q 425 1530 413 1518 q 458 1542 438 1542 l 1481 1542 q 1506 1530 1501 1542 q 1500 1486 1511 1518 q 1478 1443 1490 1456 q 1444 1431 1465 1431 l 997 1431 l 538 18 q 513 -11 531 -1 q 464 -21 494 -21 m 421 719 q 393 735 396 719 q 394 768 390 750 q 408 804 399 788 q 444 821 418 821 l 1031 821 q 1060 804 1057 821 q 1058 768 1063 788 q 1044 735 1054 750 q 1010 719 1035 719 l 421 719 z "},"Ť":{"ha":1161,"x_min":392,"x_max":1511,"o":"m 464 -21 q 415 18 404 -21 l 876 1431 l 422 1431 q 397 1443 401 1431 q 401 1486 392 1456 q 425 1530 413 1518 q 458 1542 438 1542 l 1481 1542 q 1506 1530 1501 1542 q 1500 1486 1511 1518 q 1478 1443 1490 1456 q 1444 1431 1465 1431 l 997 1431 l 538 18 q 513 -11 531 -1 q 464 -21 494 -21 m 1272 1921 q 1302 1904 1289 1921 q 1315 1872 1315 1888 q 1311 1852 1315 1860 q 1300 1839 1307 1844 l 1071 1664 q 1031 1641 1049 1649 q 990 1633 1013 1633 q 958 1643 972 1633 q 932 1669 943 1653 l 800 1850 q 792 1868 793 1861 q 790 1881 790 1875 q 810 1910 790 1899 q 843 1921 831 1921 q 866 1915 858 1921 q 882 1900 874 1908 l 1017 1774 l 1231 1901 q 1251 1914 1240 1907 q 1272 1921 1261 1921 z "},"Ţ":{"ha":1161,"x_min":214,"x_max":1511,"o":"m 464 -21 q 415 18 404 -21 l 876 1431 l 422 1431 q 397 1443 401 1431 q 401 1486 392 1456 q 425 1530 413 1518 q 458 1542 438 1542 l 1481 1542 q 1506 1530 1501 1542 q 1500 1486 1511 1518 q 1478 1443 1490 1456 q 1444 1431 1465 1431 l 997 1431 l 538 18 q 513 -11 531 -1 q 464 -21 494 -21 m 382 -374 q 290 -363 331 -374 q 225 -335 249 -353 q 215 -306 214 -324 q 224 -276 217 -289 q 245 -252 233 -258 q 271 -251 257 -246 q 315 -269 289 -260 q 385 -278 342 -278 q 439 -267 419 -278 q 458 -229 458 -257 q 431 -191 458 -199 q 367 -187 404 -183 q 345 -185 351 -189 q 333 -172 339 -181 q 330 -153 328 -162 q 339 -135 332 -144 l 440 18 l 532 18 l 425 -146 l 385 -124 q 489 -112 446 -104 q 555 -147 532 -119 q 578 -215 578 -175 q 551 -302 578 -267 q 479 -356 524 -337 q 382 -374 435 -374 z "},"Ț":{"ha":1161,"x_min":285,"x_max":1511,"o":"m 464 -21 q 415 18 404 -21 l 876 1431 l 422 1431 q 397 1443 401 1431 q 401 1486 392 1456 q 425 1530 413 1518 q 458 1542 438 1542 l 1481 1542 q 1506 1530 1501 1542 q 1500 1486 1511 1518 q 1478 1443 1490 1456 q 1444 1431 1465 1431 l 997 1431 l 538 18 q 513 -11 531 -1 q 464 -21 494 -21 m 304 -399 q 285 -373 288 -387 q 296 -342 283 -358 q 338 -274 321 -304 q 364 -212 354 -244 q 378 -139 374 -181 q 397 -106 381 -115 q 439 -96 413 -96 q 486 -111 471 -96 q 499 -153 501 -126 q 478 -227 496 -187 q 432 -305 460 -267 q 372 -376 404 -343 q 338 -401 354 -394 q 304 -399 321 -408 z "},"Ú":{"ha":1451,"x_min":221,"x_max":1635,"o":"m 636 -26 q 422 10 511 -26 q 283 115 333 46 q 227 286 233 185 q 263 518 221 388 l 586 1532 q 609 1560 593 1551 q 658 1569 625 1569 q 706 1560 690 1569 q 714 1528 721 1550 l 382 503 q 356 274 339 365 q 447 137 372 182 q 650 92 521 92 q 885 138 783 92 q 1060 275 988 183 q 1174 503 1132 367 l 1497 1532 q 1520 1560 1504 1551 q 1568 1569 1536 1569 q 1622 1528 1635 1569 l 1294 488 q 1149 203 1242 317 q 927 31 1056 89 q 636 -26 799 -26 m 1049 1632 q 1014 1650 1032 1632 q 996 1683 996 1668 q 998 1694 996 1689 q 1010 1708 1000 1700 l 1236 1913 q 1251 1924 1244 1919 q 1267 1928 1257 1928 q 1297 1915 1281 1928 q 1326 1886 1314 1903 q 1339 1854 1339 1869 q 1336 1836 1339 1843 q 1318 1819 1333 1829 l 1075 1644 q 1060 1635 1067 1639 q 1049 1632 1054 1632 z "},"Ŭ":{"ha":1451,"x_min":221,"x_max":1635,"o":"m 636 -26 q 422 10 511 -26 q 283 115 333 46 q 227 286 233 185 q 263 518 221 388 l 586 1532 q 609 1560 593 1551 q 658 1569 625 1569 q 706 1560 690 1569 q 714 1528 721 1550 l 382 503 q 356 274 339 365 q 447 137 372 182 q 650 92 521 92 q 885 138 783 92 q 1060 275 988 183 q 1174 503 1132 367 l 1497 1532 q 1520 1560 1504 1551 q 1568 1569 1536 1569 q 1622 1528 1635 1569 l 1294 488 q 1149 203 1242 317 q 927 31 1056 89 q 636 -26 799 -26 m 1119 1632 q 963 1694 1017 1632 q 924 1883 910 1757 q 939 1913 926 1904 q 972 1922 951 1922 q 1006 1912 993 1922 q 1019 1883 1019 1901 q 1052 1783 1018 1814 q 1140 1751 1086 1751 q 1253 1788 1206 1751 q 1325 1881 1300 1825 q 1349 1914 1336 1906 q 1381 1922 1361 1922 q 1417 1909 1404 1922 q 1424 1875 1431 1896 q 1351 1727 1392 1781 q 1255 1653 1311 1674 q 1119 1632 1199 1632 z "},"Ǔ":{"ha":1451,"x_min":221,"x_max":1635,"o":"m 636 -26 q 422 10 511 -26 q 283 115 333 46 q 227 286 233 185 q 263 518 221 388 l 586 1532 q 609 1560 593 1551 q 658 1569 625 1569 q 706 1560 690 1569 q 714 1528 721 1550 l 382 503 q 356 274 339 365 q 447 137 372 182 q 650 92 521 92 q 885 138 783 92 q 1060 275 988 183 q 1174 503 1132 367 l 1497 1532 q 1520 1560 1504 1551 q 1568 1569 1536 1569 q 1622 1528 1635 1569 l 1294 488 q 1149 203 1242 317 q 927 31 1056 89 q 636 -26 799 -26 m 1386 1921 q 1416 1904 1403 1921 q 1429 1872 1429 1888 q 1425 1852 1429 1860 q 1414 1839 1421 1844 l 1185 1664 q 1144 1641 1163 1649 q 1104 1633 1126 1633 q 1072 1643 1086 1633 q 1046 1669 1057 1653 l 914 1850 q 906 1868 907 1861 q 904 1881 904 1875 q 924 1910 904 1899 q 957 1921 944 1921 q 980 1915 972 1921 q 996 1900 988 1908 l 1131 1774 l 1344 1901 q 1365 1914 1354 1907 q 1386 1921 1375 1921 z "},"Û":{"ha":1451,"x_min":221,"x_max":1635,"o":"m 636 -26 q 422 10 511 -26 q 283 115 333 46 q 227 286 233 185 q 263 518 221 388 l 586 1532 q 609 1560 593 1551 q 658 1569 625 1569 q 706 1560 690 1569 q 714 1528 721 1550 l 382 503 q 356 274 339 365 q 447 137 372 182 q 650 92 521 92 q 885 138 783 92 q 1060 275 988 183 q 1174 503 1132 367 l 1497 1532 q 1520 1560 1504 1551 q 1568 1569 1536 1569 q 1622 1528 1635 1569 l 1294 488 q 1149 203 1242 317 q 927 31 1056 89 q 636 -26 799 -26 m 910 1633 q 881 1650 893 1633 q 869 1682 869 1667 q 874 1701 869 1694 q 885 1714 879 1708 l 1114 1890 q 1153 1914 1135 1907 q 1194 1921 1172 1921 q 1226 1912 1213 1921 q 1253 1885 1240 1903 l 1385 1704 q 1392 1687 1392 1694 q 1393 1672 1393 1679 q 1375 1644 1393 1656 q 1344 1633 1357 1633 q 1321 1640 1331 1633 q 1300 1656 1311 1646 l 1168 1781 l 953 1649 q 932 1638 943 1643 q 910 1633 921 1633 z "},"Ü":{"ha":1451,"x_min":221,"x_max":1635,"o":"m 636 -26 q 422 10 511 -26 q 283 115 333 46 q 227 286 233 185 q 263 518 221 388 l 586 1532 q 609 1560 593 1551 q 658 1569 625 1569 q 706 1560 690 1569 q 714 1528 721 1550 l 382 503 q 356 274 339 365 q 447 137 372 182 q 650 92 521 92 q 885 138 783 92 q 1060 275 988 183 q 1174 503 1132 367 l 1497 1532 q 1520 1560 1504 1551 q 1568 1569 1536 1569 q 1622 1528 1635 1569 l 1294 488 q 1149 203 1242 317 q 927 31 1056 89 q 636 -26 799 -26 m 960 1682 q 911 1700 931 1682 q 892 1754 892 1718 q 917 1824 892 1792 q 993 1857 943 1857 q 1040 1840 1021 1857 q 1060 1786 1060 1822 q 1036 1715 1060 1749 q 960 1682 1013 1682 m 1301 1682 q 1253 1700 1274 1682 q 1233 1754 1233 1718 q 1259 1824 1233 1792 q 1335 1857 1285 1857 q 1383 1840 1363 1857 q 1403 1786 1403 1822 q 1378 1715 1403 1749 q 1301 1682 1354 1682 z "},"Ù":{"ha":1451,"x_min":221,"x_max":1635,"o":"m 636 -26 q 422 10 511 -26 q 283 115 333 46 q 227 286 233 185 q 263 518 221 388 l 586 1532 q 609 1560 593 1551 q 658 1569 625 1569 q 706 1560 690 1569 q 714 1528 721 1550 l 382 503 q 356 274 339 365 q 447 137 372 182 q 650 92 521 92 q 885 138 783 92 q 1060 275 988 183 q 1174 503 1132 367 l 1497 1532 q 1520 1560 1504 1551 q 1568 1569 1536 1569 q 1622 1528 1635 1569 l 1294 488 q 1149 203 1242 317 q 927 31 1056 89 q 636 -26 799 -26 m 1194 1632 q 1182 1635 1189 1632 q 1167 1644 1175 1639 l 960 1819 q 942 1838 946 1831 q 939 1854 939 1844 q 952 1886 939 1869 q 983 1915 965 1903 q 1013 1928 1000 1928 q 1028 1924 1022 1928 q 1042 1913 1035 1919 l 1235 1707 q 1244 1693 1243 1699 q 1246 1682 1246 1688 q 1228 1650 1246 1668 q 1194 1632 1211 1632 z "},"Ű":{"ha":1451,"x_min":221,"x_max":1635,"o":"m 636 -26 q 422 10 511 -26 q 283 115 333 46 q 227 286 233 185 q 263 518 221 388 l 586 1532 q 609 1560 593 1551 q 658 1569 625 1569 q 706 1560 690 1569 q 714 1528 721 1550 l 382 503 q 356 274 339 365 q 447 137 372 182 q 650 92 521 92 q 885 138 783 92 q 1060 275 988 183 q 1174 503 1132 367 l 1497 1532 q 1520 1560 1504 1551 q 1568 1569 1536 1569 q 1622 1528 1635 1569 l 1294 488 q 1149 203 1242 317 q 927 31 1056 89 q 636 -26 799 -26 m 971 1632 q 938 1650 956 1632 q 919 1683 919 1668 q 921 1694 919 1689 q 932 1708 922 1700 l 1132 1913 q 1145 1924 1139 1919 q 1161 1928 1151 1928 q 1192 1915 1175 1928 q 1222 1886 1210 1903 q 1235 1854 1235 1869 q 1232 1838 1235 1844 q 1214 1819 1229 1831 l 999 1644 q 983 1635 990 1639 q 971 1632 976 1632 m 1251 1632 q 1217 1650 1235 1632 q 1199 1683 1199 1668 q 1200 1694 1199 1689 q 1211 1708 1201 1700 l 1411 1913 q 1426 1924 1419 1919 q 1442 1928 1432 1928 q 1472 1915 1456 1928 q 1501 1886 1489 1903 q 1514 1854 1514 1869 q 1511 1838 1514 1844 q 1493 1819 1508 1831 l 1278 1644 q 1263 1635 1269 1639 q 1251 1632 1257 1632 z "},"Ū":{"ha":1451,"x_min":221,"x_max":1635,"o":"m 636 -26 q 422 10 511 -26 q 283 115 333 46 q 227 286 233 185 q 263 518 221 388 l 586 1532 q 609 1560 593 1551 q 658 1569 625 1569 q 706 1560 690 1569 q 714 1528 721 1550 l 382 503 q 356 274 339 365 q 447 137 372 182 q 650 92 521 92 q 885 138 783 92 q 1060 275 988 183 q 1174 503 1132 367 l 1497 1532 q 1520 1560 1504 1551 q 1568 1569 1536 1569 q 1622 1528 1635 1569 l 1294 488 q 1149 203 1242 317 q 927 31 1056 89 q 636 -26 799 -26 m 947 1718 q 915 1734 921 1718 q 915 1775 908 1750 q 935 1821 922 1806 q 972 1836 947 1836 l 1353 1836 q 1387 1819 1381 1836 q 1386 1775 1393 1801 q 1367 1733 1379 1747 q 1329 1718 1354 1718 l 947 1718 z "},"Ų":{"ha":1451,"x_min":221,"x_max":1635,"o":"m 636 -26 q 422 10 511 -26 q 283 115 333 46 q 227 286 233 185 q 263 518 221 388 l 586 1532 q 609 1560 593 1551 q 658 1569 625 1569 q 706 1560 690 1569 q 714 1528 721 1550 l 382 503 q 356 274 339 365 q 447 137 372 182 q 650 92 521 92 q 885 138 783 92 q 1060 275 988 183 q 1174 503 1132 367 l 1497 1532 q 1520 1560 1504 1551 q 1568 1569 1536 1569 q 1622 1528 1635 1569 l 1294 488 q 1149 203 1242 317 q 927 31 1056 89 q 636 -26 799 -26 m 657 -335 q 588 -312 613 -335 q 563 -249 563 -289 q 583 -174 563 -211 q 641 -101 604 -136 q 726 -28 678 -65 q 828 46 774 8 l 917 46 l 917 39 q 830 -31 871 3 q 758 -95 789 -64 q 708 -152 726 -126 q 690 -199 690 -178 q 698 -220 690 -212 q 719 -228 706 -228 q 771 -212 746 -228 q 828 -167 796 -196 q 851 -155 836 -157 q 881 -168 865 -153 q 894 -191 890 -178 q 889 -218 897 -204 q 827 -276 867 -250 q 742 -319 788 -303 q 657 -335 697 -335 z "},"Ů":{"ha":1451,"x_min":221,"x_max":1635,"o":"m 636 -26 q 422 10 511 -26 q 283 115 333 46 q 227 286 233 185 q 263 518 221 388 l 586 1532 q 609 1560 593 1551 q 658 1569 625 1569 q 706 1560 690 1569 q 714 1528 721 1550 l 382 503 q 356 274 339 365 q 447 137 372 182 q 650 92 521 92 q 885 138 783 92 q 1060 275 988 183 q 1174 503 1132 367 l 1497 1532 q 1520 1560 1504 1551 q 1568 1569 1536 1569 q 1622 1528 1635 1569 l 1294 488 q 1149 203 1242 317 q 927 31 1056 89 q 636 -26 799 -26 m 1131 1622 q 1037 1640 1075 1622 q 979 1692 999 1658 q 960 1771 960 1725 q 989 1867 960 1824 q 1068 1935 1018 1910 q 1179 1960 1118 1960 q 1275 1942 1236 1960 q 1334 1890 1314 1924 q 1354 1810 1354 1857 q 1324 1713 1354 1756 q 1244 1647 1294 1671 q 1131 1622 1194 1622 m 1138 1706 q 1219 1735 1186 1706 q 1253 1807 1253 1764 q 1233 1858 1253 1840 q 1174 1876 1214 1876 q 1094 1847 1128 1876 q 1061 1775 1061 1817 q 1081 1724 1061 1742 q 1138 1706 1101 1706 z "},"Ũ":{"ha":1451,"x_min":221,"x_max":1635,"o":"m 636 -26 q 422 10 511 -26 q 283 115 333 46 q 227 286 233 185 q 263 518 221 388 l 586 1532 q 609 1560 593 1551 q 658 1569 625 1569 q 706 1560 690 1569 q 714 1528 721 1550 l 382 503 q 356 274 339 365 q 447 137 372 182 q 650 92 521 92 q 885 138 783 92 q 1060 275 988 183 q 1174 503 1132 367 l 1497 1532 q 1520 1560 1504 1551 q 1568 1569 1536 1569 q 1622 1528 1635 1569 l 1294 488 q 1149 203 1242 317 q 927 31 1056 89 q 636 -26 799 -26 m 925 1675 q 883 1714 881 1675 q 928 1847 892 1806 q 1031 1889 965 1889 q 1108 1874 1074 1889 q 1172 1840 1143 1860 q 1225 1804 1200 1819 q 1275 1789 1250 1789 q 1303 1805 1290 1789 q 1322 1854 1317 1821 q 1381 1892 1329 1892 q 1412 1883 1403 1892 q 1419 1854 1421 1874 q 1376 1719 1411 1763 q 1274 1676 1340 1676 q 1195 1692 1231 1676 q 1131 1726 1160 1707 q 1077 1761 1103 1746 q 1028 1776 1051 1776 q 996 1759 1008 1776 q 978 1708 983 1742 q 962 1683 975 1692 q 925 1675 949 1675 z "},"Ǘ":{"ha":1451,"x_min":221,"x_max":1635,"o":"m 636 -26 q 422 10 511 -26 q 283 115 333 46 q 227 286 233 185 q 263 518 221 388 l 586 1532 q 609 1560 593 1551 q 658 1569 625 1569 q 706 1560 690 1569 q 714 1528 721 1550 l 382 503 q 356 274 339 365 q 447 137 372 182 q 650 92 521 92 q 885 138 783 92 q 1060 275 988 183 q 1174 503 1132 367 l 1497 1532 q 1520 1560 1504 1551 q 1568 1569 1536 1569 q 1622 1528 1635 1569 l 1294 488 q 1149 203 1242 317 q 927 31 1056 89 q 636 -26 799 -26 m 960 1682 q 911 1700 931 1682 q 892 1754 892 1718 q 917 1824 892 1792 q 993 1857 943 1857 q 1040 1840 1021 1857 q 1060 1786 1060 1822 q 1036 1715 1060 1749 q 960 1682 1013 1682 m 1301 1682 q 1253 1700 1274 1682 q 1233 1754 1233 1718 q 1259 1824 1233 1792 q 1335 1857 1285 1857 q 1383 1840 1363 1857 q 1403 1786 1403 1822 q 1378 1715 1403 1749 q 1301 1682 1354 1682 m 1122 1896 q 1088 1914 1106 1896 q 1069 1947 1069 1932 q 1072 1958 1069 1953 q 1083 1972 1074 1964 l 1310 2176 q 1324 2188 1318 2183 q 1340 2192 1331 2192 q 1371 2179 1354 2192 q 1400 2150 1388 2167 q 1413 2118 1413 2133 q 1410 2100 1413 2107 q 1392 2083 1407 2093 l 1149 1908 q 1134 1899 1140 1903 q 1122 1896 1128 1896 z "},"Ǚ":{"ha":1451,"x_min":221,"x_max":1635,"o":"m 636 -26 q 422 10 511 -26 q 283 115 333 46 q 227 286 233 185 q 263 518 221 388 l 586 1532 q 609 1560 593 1551 q 658 1569 625 1569 q 706 1560 690 1569 q 714 1528 721 1550 l 382 503 q 356 274 339 365 q 447 137 372 182 q 650 92 521 92 q 885 138 783 92 q 1060 275 988 183 q 1174 503 1132 367 l 1497 1532 q 1520 1560 1504 1551 q 1568 1569 1536 1569 q 1622 1528 1635 1569 l 1294 488 q 1149 203 1242 317 q 927 31 1056 89 q 636 -26 799 -26 m 960 1682 q 911 1700 931 1682 q 892 1754 892 1718 q 917 1824 892 1792 q 993 1857 943 1857 q 1040 1840 1021 1857 q 1060 1786 1060 1822 q 1036 1715 1060 1749 q 960 1682 1013 1682 m 1301 1682 q 1253 1700 1274 1682 q 1233 1754 1233 1718 q 1259 1824 1233 1792 q 1335 1857 1285 1857 q 1383 1840 1363 1857 q 1403 1786 1403 1822 q 1378 1715 1403 1749 q 1301 1682 1354 1682 m 1460 2185 q 1490 2168 1476 2185 q 1503 2136 1503 2151 q 1499 2116 1503 2124 q 1488 2103 1494 2108 l 1258 1928 q 1218 1905 1236 1913 q 1178 1897 1200 1897 q 1145 1907 1160 1897 q 1119 1933 1131 1917 l 988 2114 q 979 2132 981 2125 q 978 2144 978 2139 q 998 2174 978 2163 q 1031 2185 1018 2185 q 1053 2178 1046 2185 q 1069 2164 1061 2172 l 1204 2038 l 1418 2165 q 1438 2178 1428 2171 q 1460 2185 1449 2185 z "},"Ǜ":{"ha":1451,"x_min":221,"x_max":1635,"o":"m 636 -26 q 422 10 511 -26 q 283 115 333 46 q 227 286 233 185 q 263 518 221 388 l 586 1532 q 609 1560 593 1551 q 658 1569 625 1569 q 706 1560 690 1569 q 714 1528 721 1550 l 382 503 q 356 274 339 365 q 447 137 372 182 q 650 92 521 92 q 885 138 783 92 q 1060 275 988 183 q 1174 503 1132 367 l 1497 1532 q 1520 1560 1504 1551 q 1568 1569 1536 1569 q 1622 1528 1635 1569 l 1294 488 q 1149 203 1242 317 q 927 31 1056 89 q 636 -26 799 -26 m 960 1682 q 911 1700 931 1682 q 892 1754 892 1718 q 917 1824 892 1792 q 993 1857 943 1857 q 1040 1840 1021 1857 q 1060 1786 1060 1822 q 1036 1715 1060 1749 q 960 1682 1013 1682 m 1301 1682 q 1253 1700 1274 1682 q 1233 1754 1233 1718 q 1259 1824 1233 1792 q 1335 1857 1285 1857 q 1383 1840 1363 1857 q 1403 1786 1403 1822 q 1378 1715 1403 1749 q 1301 1682 1354 1682 m 1268 1896 q 1256 1899 1263 1896 q 1240 1908 1249 1903 l 1033 2083 q 1016 2101 1019 2094 q 1013 2118 1013 2108 q 1026 2150 1013 2133 q 1056 2179 1039 2167 q 1086 2192 1074 2192 q 1102 2188 1096 2192 q 1115 2176 1108 2183 l 1308 1971 q 1318 1957 1317 1963 q 1319 1946 1319 1951 q 1302 1914 1319 1932 q 1268 1896 1285 1896 z "},"Ǖ":{"ha":1451,"x_min":221,"x_max":1635,"o":"m 636 -26 q 422 10 511 -26 q 283 115 333 46 q 227 286 233 185 q 263 518 221 388 l 586 1532 q 609 1560 593 1551 q 658 1569 625 1569 q 706 1560 690 1569 q 714 1528 721 1550 l 382 503 q 356 274 339 365 q 447 137 372 182 q 650 92 521 92 q 885 138 783 92 q 1060 275 988 183 q 1174 503 1132 367 l 1497 1532 q 1520 1560 1504 1551 q 1568 1569 1536 1569 q 1622 1528 1635 1569 l 1294 488 q 1149 203 1242 317 q 927 31 1056 89 q 636 -26 799 -26 m 960 1682 q 911 1700 931 1682 q 892 1754 892 1718 q 917 1824 892 1792 q 993 1857 943 1857 q 1040 1840 1021 1857 q 1060 1786 1060 1822 q 1036 1715 1060 1749 q 960 1682 1013 1682 m 1301 1682 q 1253 1700 1274 1682 q 1233 1754 1233 1718 q 1259 1824 1233 1792 q 1335 1857 1285 1857 q 1383 1840 1363 1857 q 1403 1786 1403 1822 q 1378 1715 1403 1749 q 1301 1682 1354 1682 m 1021 1982 q 988 1998 994 1982 q 989 2039 982 2014 q 1008 2085 996 2069 q 1046 2100 1021 2100 l 1426 2100 q 1460 2083 1454 2100 q 1460 2039 1467 2065 q 1440 1997 1453 2011 q 1403 1982 1428 1982 l 1021 1982 z "},"Ụ":{"ha":1451,"x_min":221,"x_max":1635,"o":"m 636 -26 q 422 10 511 -26 q 283 115 333 46 q 227 286 233 185 q 263 518 221 388 l 586 1532 q 609 1560 593 1551 q 658 1569 625 1569 q 706 1560 690 1569 q 714 1528 721 1550 l 382 503 q 356 274 339 365 q 447 137 372 182 q 650 92 521 92 q 885 138 783 92 q 1060 275 988 183 q 1174 503 1132 367 l 1497 1532 q 1520 1560 1504 1551 q 1568 1569 1536 1569 q 1622 1528 1635 1569 l 1294 488 q 1149 203 1242 317 q 927 31 1056 89 q 636 -26 799 -26 m 517 -322 q 469 -304 489 -322 q 450 -251 450 -286 q 474 -181 450 -214 q 550 -147 499 -147 q 599 -165 579 -147 q 618 -218 618 -183 q 594 -290 618 -257 q 517 -322 569 -322 z "},"Ủ":{"ha":1451,"x_min":221,"x_max":1635,"o":"m 636 -26 q 422 10 511 -26 q 283 115 333 46 q 227 286 233 185 q 263 518 221 388 l 586 1532 q 609 1560 593 1551 q 658 1569 625 1569 q 706 1560 690 1569 q 714 1528 721 1550 l 382 503 q 356 274 339 365 q 447 137 372 182 q 650 92 521 92 q 885 138 783 92 q 1060 275 988 183 q 1174 503 1132 367 l 1497 1532 q 1520 1560 1504 1551 q 1568 1569 1536 1569 q 1622 1528 1635 1569 l 1294 488 q 1149 203 1242 317 q 927 31 1056 89 q 636 -26 799 -26 m 1176 1964 q 1278 1935 1242 1964 q 1315 1856 1315 1907 q 1294 1783 1315 1815 q 1232 1728 1272 1751 q 1194 1700 1204 1713 q 1183 1674 1185 1688 l 1182 1657 q 1168 1630 1182 1639 q 1135 1620 1154 1621 q 1101 1628 1117 1619 q 1083 1651 1086 1636 l 1079 1685 q 1088 1742 1074 1718 q 1133 1785 1101 1767 q 1169 1813 1157 1799 q 1181 1840 1181 1828 q 1172 1857 1181 1851 q 1146 1863 1163 1863 q 1109 1857 1129 1863 q 1067 1840 1089 1851 q 1013 1869 1033 1824 q 1035 1928 999 1906 q 1101 1955 1067 1946 q 1176 1964 1136 1964 z "},"Ư":{"ha":1451,"x_min":221,"x_max":1890,"o":"m 1876 1808 q 1883 1683 1890 1742 q 1841 1579 1876 1624 q 1735 1510 1806 1535 q 1554 1483 1665 1485 l 1581 1564 q 1715 1592 1671 1568 q 1768 1665 1758 1617 q 1767 1790 1778 1714 q 1778 1822 1764 1810 q 1815 1837 1793 1833 q 1855 1834 1836 1840 q 1876 1808 1874 1828 m 636 -26 q 422 10 511 -26 q 283 115 333 46 q 227 286 233 185 q 263 518 221 388 l 586 1532 q 609 1560 593 1551 q 658 1569 625 1569 q 706 1560 690 1569 q 714 1528 721 1550 l 382 503 q 356 274 339 365 q 447 137 372 182 q 650 92 521 92 q 885 138 783 92 q 1060 275 988 183 q 1174 503 1132 367 l 1497 1532 q 1520 1560 1504 1551 q 1568 1569 1536 1569 q 1622 1528 1635 1569 l 1294 488 q 1149 203 1242 317 q 927 31 1056 89 q 636 -26 799 -26 z "},"Ứ":{"ha":1451,"x_min":221,"x_max":1890,"o":"m 1876 1808 q 1883 1683 1890 1742 q 1841 1579 1876 1624 q 1735 1510 1806 1535 q 1554 1483 1665 1485 l 1581 1564 q 1715 1592 1671 1568 q 1768 1665 1758 1617 q 1767 1790 1778 1714 q 1778 1822 1764 1810 q 1815 1837 1793 1833 q 1855 1834 1836 1840 q 1876 1808 1874 1828 m 636 -26 q 422 10 511 -26 q 283 115 333 46 q 227 286 233 185 q 263 518 221 388 l 586 1532 q 609 1560 593 1551 q 658 1569 625 1569 q 706 1560 690 1569 q 714 1528 721 1550 l 382 503 q 356 274 339 365 q 447 137 372 182 q 650 92 521 92 q 885 138 783 92 q 1060 275 988 183 q 1174 503 1132 367 l 1497 1532 q 1520 1560 1504 1551 q 1568 1569 1536 1569 q 1622 1528 1635 1569 l 1294 488 q 1149 203 1242 317 q 927 31 1056 89 q 636 -26 799 -26 m 1049 1632 q 1014 1650 1032 1632 q 996 1683 996 1668 q 998 1694 996 1689 q 1010 1708 1000 1700 l 1236 1913 q 1251 1924 1244 1919 q 1267 1928 1257 1928 q 1297 1915 1281 1928 q 1326 1886 1314 1903 q 1339 1854 1339 1869 q 1336 1836 1339 1843 q 1318 1819 1333 1829 l 1075 1644 q 1060 1635 1067 1639 q 1049 1632 1054 1632 z "},"Ự":{"ha":1451,"x_min":221,"x_max":1890,"o":"m 1876 1808 q 1883 1683 1890 1742 q 1841 1579 1876 1624 q 1735 1510 1806 1535 q 1554 1483 1665 1485 l 1581 1564 q 1715 1592 1671 1568 q 1768 1665 1758 1617 q 1767 1790 1778 1714 q 1778 1822 1764 1810 q 1815 1837 1793 1833 q 1855 1834 1836 1840 q 1876 1808 1874 1828 m 636 -26 q 422 10 511 -26 q 283 115 333 46 q 227 286 233 185 q 263 518 221 388 l 586 1532 q 609 1560 593 1551 q 658 1569 625 1569 q 706 1560 690 1569 q 714 1528 721 1550 l 382 503 q 356 274 339 365 q 447 137 372 182 q 650 92 521 92 q 885 138 783 92 q 1060 275 988 183 q 1174 503 1132 367 l 1497 1532 q 1520 1560 1504 1551 q 1568 1569 1536 1569 q 1622 1528 1635 1569 l 1294 488 q 1149 203 1242 317 q 927 31 1056 89 q 636 -26 799 -26 m 517 -322 q 469 -304 489 -322 q 450 -251 450 -286 q 474 -181 450 -214 q 550 -147 499 -147 q 599 -165 579 -147 q 618 -218 618 -183 q 594 -290 618 -257 q 517 -322 569 -322 z "},"Ừ":{"ha":1451,"x_min":221,"x_max":1890,"o":"m 1876 1808 q 1883 1683 1890 1742 q 1841 1579 1876 1624 q 1735 1510 1806 1535 q 1554 1483 1665 1485 l 1581 1564 q 1715 1592 1671 1568 q 1768 1665 1758 1617 q 1767 1790 1778 1714 q 1778 1822 1764 1810 q 1815 1837 1793 1833 q 1855 1834 1836 1840 q 1876 1808 1874 1828 m 636 -26 q 422 10 511 -26 q 283 115 333 46 q 227 286 233 185 q 263 518 221 388 l 586 1532 q 609 1560 593 1551 q 658 1569 625 1569 q 706 1560 690 1569 q 714 1528 721 1550 l 382 503 q 356 274 339 365 q 447 137 372 182 q 650 92 521 92 q 885 138 783 92 q 1060 275 988 183 q 1174 503 1132 367 l 1497 1532 q 1520 1560 1504 1551 q 1568 1569 1536 1569 q 1622 1528 1635 1569 l 1294 488 q 1149 203 1242 317 q 927 31 1056 89 q 636 -26 799 -26 m 1194 1632 q 1182 1635 1189 1632 q 1167 1644 1175 1639 l 960 1819 q 942 1838 946 1831 q 939 1854 939 1844 q 952 1886 939 1869 q 983 1915 965 1903 q 1013 1928 1000 1928 q 1028 1924 1022 1928 q 1042 1913 1035 1919 l 1235 1707 q 1244 1693 1243 1699 q 1246 1682 1246 1688 q 1228 1650 1246 1668 q 1194 1632 1211 1632 z "},"Ử":{"ha":1451,"x_min":221,"x_max":1890,"o":"m 1876 1808 q 1883 1683 1890 1742 q 1841 1579 1876 1624 q 1735 1510 1806 1535 q 1554 1483 1665 1485 l 1581 1564 q 1715 1592 1671 1568 q 1768 1665 1758 1617 q 1767 1790 1778 1714 q 1778 1822 1764 1810 q 1815 1837 1793 1833 q 1855 1834 1836 1840 q 1876 1808 1874 1828 m 636 -26 q 422 10 511 -26 q 283 115 333 46 q 227 286 233 185 q 263 518 221 388 l 586 1532 q 609 1560 593 1551 q 658 1569 625 1569 q 706 1560 690 1569 q 714 1528 721 1550 l 382 503 q 356 274 339 365 q 447 137 372 182 q 650 92 521 92 q 885 138 783 92 q 1060 275 988 183 q 1174 503 1132 367 l 1497 1532 q 1520 1560 1504 1551 q 1568 1569 1536 1569 q 1622 1528 1635 1569 l 1294 488 q 1149 203 1242 317 q 927 31 1056 89 q 636 -26 799 -26 m 1176 1964 q 1278 1935 1242 1964 q 1315 1856 1315 1907 q 1294 1783 1315 1815 q 1232 1728 1272 1751 q 1194 1700 1204 1713 q 1183 1674 1185 1688 l 1182 1657 q 1168 1630 1182 1639 q 1135 1620 1154 1621 q 1101 1628 1117 1619 q 1083 1651 1086 1636 l 1079 1685 q 1088 1742 1074 1718 q 1133 1785 1101 1767 q 1169 1813 1157 1799 q 1181 1840 1181 1828 q 1172 1857 1181 1851 q 1146 1863 1163 1863 q 1109 1857 1129 1863 q 1067 1840 1089 1851 q 1013 1869 1033 1824 q 1035 1928 999 1906 q 1101 1955 1067 1946 q 1176 1964 1136 1964 z "},"Ữ":{"ha":1451,"x_min":221,"x_max":1890,"o":"m 1876 1808 q 1883 1683 1890 1742 q 1841 1579 1876 1624 q 1735 1510 1806 1535 q 1554 1483 1665 1485 l 1581 1564 q 1715 1592 1671 1568 q 1768 1665 1758 1617 q 1767 1790 1778 1714 q 1778 1822 1764 1810 q 1815 1837 1793 1833 q 1855 1834 1836 1840 q 1876 1808 1874 1828 m 636 -26 q 422 10 511 -26 q 283 115 333 46 q 227 286 233 185 q 263 518 221 388 l 586 1532 q 609 1560 593 1551 q 658 1569 625 1569 q 706 1560 690 1569 q 714 1528 721 1550 l 382 503 q 356 274 339 365 q 447 137 372 182 q 650 92 521 92 q 885 138 783 92 q 1060 275 988 183 q 1174 503 1132 367 l 1497 1532 q 1520 1560 1504 1551 q 1568 1569 1536 1569 q 1622 1528 1635 1569 l 1294 488 q 1149 203 1242 317 q 927 31 1056 89 q 636 -26 799 -26 m 925 1675 q 883 1714 881 1675 q 928 1847 892 1806 q 1031 1889 965 1889 q 1108 1874 1074 1889 q 1172 1840 1143 1860 q 1225 1804 1200 1819 q 1275 1789 1250 1789 q 1303 1805 1290 1789 q 1322 1854 1317 1821 q 1381 1892 1329 1892 q 1412 1883 1403 1892 q 1419 1854 1421 1874 q 1376 1719 1411 1763 q 1274 1676 1340 1676 q 1195 1692 1231 1676 q 1131 1726 1160 1707 q 1077 1761 1103 1746 q 1028 1776 1051 1776 q 996 1759 1008 1776 q 978 1708 983 1742 q 962 1683 975 1692 q 925 1675 949 1675 z "},"Ẃ":{"ha":1993,"x_min":413,"x_max":2351,"o":"m 481 -19 q 438 -6 454 -19 q 421 53 421 8 l 414 1507 q 429 1553 413 1536 q 481 1569 446 1569 q 522 1558 513 1569 q 532 1519 532 1547 l 532 189 l 1293 1514 q 1332 1560 1315 1551 q 1385 1569 1349 1569 q 1428 1558 1417 1569 q 1439 1519 1439 1547 l 1436 186 l 2206 1514 q 2244 1560 2228 1550 q 2294 1569 2260 1569 q 2341 1548 2331 1569 q 2332 1497 2351 1526 l 1479 36 q 1440 -7 1461 6 q 1383 -19 1418 -19 q 1340 -4 1357 -19 q 1324 53 1324 11 l 1322 1332 l 575 36 q 535 -7 557 6 q 481 -19 513 -19 m 1335 1632 q 1300 1650 1318 1632 q 1282 1683 1282 1668 q 1284 1694 1282 1689 q 1296 1708 1286 1700 l 1522 1913 q 1537 1924 1531 1919 q 1553 1928 1543 1928 q 1583 1915 1567 1928 q 1613 1886 1600 1903 q 1625 1854 1625 1869 q 1622 1836 1625 1843 q 1604 1819 1619 1829 l 1361 1644 q 1347 1635 1353 1639 q 1335 1632 1340 1632 z "},"Ŵ":{"ha":1993,"x_min":413,"x_max":2351,"o":"m 481 -19 q 438 -6 454 -19 q 421 53 421 8 l 414 1507 q 429 1553 413 1536 q 481 1569 446 1569 q 522 1558 513 1569 q 532 1519 532 1547 l 532 189 l 1293 1514 q 1332 1560 1315 1551 q 1385 1569 1349 1569 q 1428 1558 1417 1569 q 1439 1519 1439 1547 l 1436 186 l 2206 1514 q 2244 1560 2228 1550 q 2294 1569 2260 1569 q 2341 1548 2331 1569 q 2332 1497 2351 1526 l 1479 36 q 1440 -7 1461 6 q 1383 -19 1418 -19 q 1340 -4 1357 -19 q 1324 53 1324 11 l 1322 1332 l 575 36 q 535 -7 557 6 q 481 -19 513 -19 m 1196 1633 q 1167 1650 1179 1633 q 1156 1682 1156 1667 q 1160 1701 1156 1694 q 1171 1714 1165 1708 l 1400 1890 q 1440 1914 1421 1907 q 1481 1921 1458 1921 q 1513 1912 1499 1921 q 1539 1885 1526 1903 l 1671 1704 q 1678 1687 1678 1694 q 1679 1672 1679 1679 q 1661 1644 1679 1656 q 1631 1633 1643 1633 q 1607 1640 1617 1633 q 1586 1656 1597 1646 l 1454 1781 l 1239 1649 q 1218 1638 1229 1643 q 1196 1633 1207 1633 z "},"Ẅ":{"ha":1993,"x_min":413,"x_max":2351,"o":"m 481 -19 q 438 -6 454 -19 q 421 53 421 8 l 414 1507 q 429 1553 413 1536 q 481 1569 446 1569 q 522 1558 513 1569 q 532 1519 532 1547 l 532 189 l 1293 1514 q 1332 1560 1315 1551 q 1385 1569 1349 1569 q 1428 1558 1417 1569 q 1439 1519 1439 1547 l 1436 186 l 2206 1514 q 2244 1560 2228 1550 q 2294 1569 2260 1569 q 2341 1548 2331 1569 q 2332 1497 2351 1526 l 1479 36 q 1440 -7 1461 6 q 1383 -19 1418 -19 q 1340 -4 1357 -19 q 1324 53 1324 11 l 1322 1332 l 575 36 q 535 -7 557 6 q 481 -19 513 -19 m 1246 1682 q 1197 1700 1217 1682 q 1178 1754 1178 1718 q 1203 1824 1178 1792 q 1279 1857 1229 1857 q 1326 1840 1307 1857 q 1346 1786 1346 1822 q 1322 1715 1346 1749 q 1246 1682 1299 1682 m 1588 1682 q 1540 1700 1560 1682 q 1519 1754 1519 1718 q 1545 1824 1519 1792 q 1621 1857 1571 1857 q 1669 1840 1649 1857 q 1689 1786 1689 1822 q 1665 1715 1689 1749 q 1588 1682 1640 1682 z "},"Ẁ":{"ha":1993,"x_min":413,"x_max":2351,"o":"m 481 -19 q 438 -6 454 -19 q 421 53 421 8 l 414 1507 q 429 1553 413 1536 q 481 1569 446 1569 q 522 1558 513 1569 q 532 1519 532 1547 l 532 189 l 1293 1514 q 1332 1560 1315 1551 q 1385 1569 1349 1569 q 1428 1558 1417 1569 q 1439 1519 1439 1547 l 1436 186 l 2206 1514 q 2244 1560 2228 1550 q 2294 1569 2260 1569 q 2341 1548 2331 1569 q 2332 1497 2351 1526 l 1479 36 q 1440 -7 1461 6 q 1383 -19 1418 -19 q 1340 -4 1357 -19 q 1324 53 1324 11 l 1322 1332 l 575 36 q 535 -7 557 6 q 481 -19 513 -19 m 1481 1632 q 1468 1635 1475 1632 q 1453 1644 1461 1639 l 1246 1819 q 1228 1838 1232 1831 q 1225 1854 1225 1844 q 1238 1886 1225 1869 q 1269 1915 1251 1903 q 1299 1928 1286 1928 q 1315 1924 1308 1928 q 1328 1913 1321 1919 l 1521 1707 q 1531 1693 1529 1699 q 1532 1682 1532 1688 q 1515 1650 1532 1668 q 1481 1632 1497 1632 z "},"Ý":{"ha":1058,"x_min":339,"x_max":1450,"o":"m 400 -19 q 351 19 339 -19 l 565 678 l 386 1507 q 395 1552 381 1535 q 446 1569 410 1569 q 489 1557 478 1569 q 506 1519 500 1544 l 657 807 l 1301 1529 q 1337 1560 1319 1550 q 1385 1569 1354 1569 q 1437 1548 1424 1569 q 1424 1497 1450 1526 l 689 675 l 476 19 q 400 -19 464 -19 m 843 1632 q 808 1650 826 1632 q 790 1683 790 1668 q 792 1694 790 1689 q 804 1708 794 1700 l 1031 1913 q 1045 1924 1039 1919 q 1061 1928 1051 1928 q 1092 1915 1075 1928 q 1121 1886 1108 1903 q 1133 1854 1133 1869 q 1131 1836 1133 1843 q 1113 1819 1128 1829 l 869 1644 q 855 1635 861 1639 q 843 1632 849 1632 z "},"Ŷ":{"ha":1058,"x_min":339,"x_max":1450,"o":"m 400 -19 q 351 19 339 -19 l 565 678 l 386 1507 q 395 1552 381 1535 q 446 1569 410 1569 q 489 1557 478 1569 q 506 1519 500 1544 l 657 807 l 1301 1529 q 1337 1560 1319 1550 q 1385 1569 1354 1569 q 1437 1548 1424 1569 q 1424 1497 1450 1526 l 689 675 l 476 19 q 400 -19 464 -19 m 704 1633 q 676 1650 688 1633 q 664 1682 664 1667 q 669 1701 664 1694 q 679 1714 674 1708 l 908 1890 q 948 1914 929 1907 q 989 1921 967 1921 q 1021 1912 1007 1921 q 1047 1885 1035 1903 l 1179 1704 q 1187 1687 1186 1694 q 1188 1672 1188 1679 q 1169 1644 1188 1656 q 1139 1633 1151 1633 q 1115 1640 1125 1633 q 1094 1656 1106 1646 l 963 1781 l 747 1649 q 726 1638 738 1643 q 704 1633 715 1633 z "},"Ÿ":{"ha":1058,"x_min":339,"x_max":1450,"o":"m 400 -19 q 351 19 339 -19 l 565 678 l 386 1507 q 395 1552 381 1535 q 446 1569 410 1569 q 489 1557 478 1569 q 506 1519 500 1544 l 657 807 l 1301 1529 q 1337 1560 1319 1550 q 1385 1569 1354 1569 q 1437 1548 1424 1569 q 1424 1497 1450 1526 l 689 675 l 476 19 q 400 -19 464 -19 m 754 1682 q 706 1700 725 1682 q 686 1754 686 1718 q 712 1824 686 1792 q 788 1857 738 1857 q 835 1840 815 1857 q 854 1786 854 1822 q 831 1715 854 1749 q 754 1682 807 1682 m 1096 1682 q 1048 1700 1068 1682 q 1028 1754 1028 1718 q 1053 1824 1028 1792 q 1129 1857 1079 1857 q 1177 1840 1157 1857 q 1197 1786 1197 1822 q 1173 1715 1197 1749 q 1096 1682 1149 1682 z "},"Ỳ":{"ha":1058,"x_min":339,"x_max":1450,"o":"m 400 -19 q 351 19 339 -19 l 565 678 l 386 1507 q 395 1552 381 1535 q 446 1569 410 1569 q 489 1557 478 1569 q 506 1519 500 1544 l 657 807 l 1301 1529 q 1337 1560 1319 1550 q 1385 1569 1354 1569 q 1437 1548 1424 1569 q 1424 1497 1450 1526 l 689 675 l 476 19 q 400 -19 464 -19 m 989 1632 q 976 1635 983 1632 q 961 1644 969 1639 l 754 1819 q 737 1838 740 1831 q 733 1854 733 1844 q 747 1886 733 1869 q 777 1915 760 1903 q 807 1928 794 1928 q 823 1924 817 1928 q 836 1913 829 1919 l 1029 1707 q 1039 1693 1038 1699 q 1040 1682 1040 1688 q 1023 1650 1040 1668 q 989 1632 1006 1632 z "},"Ỵ":{"ha":1058,"x_min":272,"x_max":1450,"o":"m 400 -19 q 351 19 339 -19 l 565 678 l 386 1507 q 395 1552 381 1535 q 446 1569 410 1569 q 489 1557 478 1569 q 506 1519 500 1544 l 657 807 l 1301 1529 q 1337 1560 1319 1550 q 1385 1569 1354 1569 q 1437 1548 1424 1569 q 1424 1497 1450 1526 l 689 675 l 476 19 q 400 -19 464 -19 m 339 -322 q 292 -304 311 -322 q 272 -251 272 -286 q 297 -181 272 -214 q 372 -147 321 -147 q 421 -165 401 -147 q 440 -218 440 -183 q 416 -290 440 -257 q 339 -322 392 -322 z "},"Ỷ":{"ha":1058,"x_min":339,"x_max":1450,"o":"m 400 -19 q 351 19 339 -19 l 565 678 l 386 1507 q 395 1552 381 1535 q 446 1569 410 1569 q 489 1557 478 1569 q 506 1519 500 1544 l 657 807 l 1301 1529 q 1337 1560 1319 1550 q 1385 1569 1354 1569 q 1437 1548 1424 1569 q 1424 1497 1450 1526 l 689 675 l 476 19 q 400 -19 464 -19 m 969 1964 q 1072 1935 1035 1964 q 1108 1856 1108 1907 q 1087 1783 1108 1815 q 1025 1728 1065 1751 q 988 1700 997 1713 q 976 1674 978 1688 l 975 1657 q 961 1630 975 1639 q 928 1620 947 1621 q 894 1628 910 1619 q 876 1651 879 1636 l 872 1685 q 881 1742 867 1718 q 926 1785 894 1767 q 962 1813 950 1799 q 974 1840 974 1828 q 965 1857 974 1851 q 939 1863 956 1863 q 902 1857 922 1863 q 860 1840 882 1851 q 806 1869 826 1824 q 828 1928 792 1906 q 894 1955 860 1946 q 969 1964 929 1964 z "},"Ỹ":{"ha":1058,"x_min":339,"x_max":1450,"o":"m 400 -19 q 351 19 339 -19 l 565 678 l 386 1507 q 395 1552 381 1535 q 446 1569 410 1569 q 489 1557 478 1569 q 506 1519 500 1544 l 657 807 l 1301 1529 q 1337 1560 1319 1550 q 1385 1569 1354 1569 q 1437 1548 1424 1569 q 1424 1497 1450 1526 l 689 675 l 476 19 q 400 -19 464 -19 m 718 1675 q 676 1714 674 1675 q 722 1847 685 1806 q 824 1889 758 1889 q 901 1874 867 1889 q 965 1840 936 1860 q 1018 1804 993 1819 q 1068 1789 1043 1789 q 1097 1805 1083 1789 q 1115 1854 1110 1821 q 1174 1892 1122 1892 q 1205 1883 1196 1892 q 1213 1854 1214 1874 q 1169 1719 1204 1763 q 1067 1676 1133 1676 q 988 1692 1024 1676 q 924 1726 953 1707 q 870 1761 896 1746 q 821 1776 844 1776 q 789 1759 801 1776 q 771 1708 776 1742 q 755 1683 768 1692 q 718 1675 742 1675 z "},"Ź":{"ha":1031,"x_min":-76,"x_max":1354,"o":"m -42 0 q -67 13 -58 0 q -74 46 -76 26 q -58 81 -72 65 l 1143 1431 l 454 1431 q 433 1444 439 1431 q 435 1486 426 1458 q 456 1528 442 1514 q 485 1542 469 1542 l 1315 1542 q 1347 1514 1340 1542 q 1331 1463 1354 1486 l 131 111 l 892 111 q 913 98 907 111 q 911 56 918 85 q 890 15 903 29 q 861 0 876 0 l -42 0 m 811 1632 q 776 1650 794 1632 q 758 1683 758 1668 q 760 1694 758 1689 q 772 1708 763 1700 l 999 1913 q 1013 1924 1007 1919 q 1029 1928 1019 1928 q 1060 1915 1043 1928 q 1089 1886 1076 1903 q 1101 1854 1101 1869 q 1099 1836 1101 1843 q 1081 1819 1096 1829 l 838 1644 q 823 1635 829 1639 q 811 1632 817 1632 z "},"Ž":{"ha":1031,"x_min":-76,"x_max":1354,"o":"m -42 0 q -67 13 -58 0 q -74 46 -76 26 q -58 81 -72 65 l 1143 1431 l 454 1431 q 433 1444 439 1431 q 435 1486 426 1458 q 456 1528 442 1514 q 485 1542 469 1542 l 1315 1542 q 1347 1514 1340 1542 q 1331 1463 1354 1486 l 131 111 l 892 111 q 913 98 907 111 q 911 56 918 85 q 890 15 903 29 q 861 0 876 0 l -42 0 m 1149 1921 q 1178 1904 1165 1921 q 1192 1872 1192 1888 q 1188 1852 1192 1860 q 1176 1839 1183 1844 l 947 1664 q 907 1641 925 1649 q 867 1633 889 1633 q 834 1643 849 1633 q 808 1669 819 1653 l 676 1850 q 668 1868 669 1861 q 667 1881 667 1875 q 687 1910 667 1899 q 719 1921 707 1921 q 742 1915 735 1921 q 758 1900 750 1908 l 893 1774 l 1107 1901 q 1127 1914 1117 1907 q 1149 1921 1138 1921 z "},"Ż":{"ha":1031,"x_min":-76,"x_max":1354,"o":"m -42 0 q -67 13 -58 0 q -74 46 -76 26 q -58 81 -72 65 l 1143 1431 l 454 1431 q 433 1444 439 1431 q 435 1486 426 1458 q 456 1528 442 1514 q 485 1542 469 1542 l 1315 1542 q 1347 1514 1340 1542 q 1331 1463 1354 1486 l 131 111 l 892 111 q 913 98 907 111 q 911 56 918 85 q 890 15 903 29 q 861 0 876 0 l -42 0 m 893 1682 q 844 1700 864 1682 q 825 1754 825 1718 q 850 1824 825 1792 q 926 1857 875 1857 q 974 1840 954 1857 q 993 1786 993 1822 q 969 1715 993 1749 q 893 1682 946 1682 z "},"á":{"ha":865,"x_min":56,"x_max":826,"o":"m 235 -24 q 139 3 179 -24 q 77 78 99 29 q 56 196 56 128 q 74 330 56 258 q 128 470 92 401 q 219 596 164 539 q 346 687 274 653 q 508 721 418 721 q 597 708 553 721 q 681 674 642 696 l 682 679 q 704 709 690 703 q 743 715 718 715 q 798 702 786 715 q 800 661 810 689 l 632 154 q 624 118 626 135 q 628 92 622 101 q 650 83 635 83 q 684 93 668 83 q 715 119 700 103 q 744 153 731 135 q 767 169 754 165 q 799 160 781 174 q 824 131 822 146 q 819 103 826 117 q 779 50 806 79 q 716 -1 753 21 q 631 -22 679 -22 q 560 -6 586 -22 q 524 35 535 10 q 513 92 514 61 q 518 153 513 122 q 520 159 519 156 q 521 167 521 163 q 419 56 469 97 q 322 -5 368 14 q 235 -24 275 -24 m 181 213 q 192 145 181 174 q 224 102 203 117 q 275 88 244 88 q 375 126 322 88 q 484 237 428 164 q 594 414 540 310 l 650 579 q 574 605 610 599 q 503 611 538 611 q 384 584 436 611 q 294 513 332 557 q 231 415 256 468 q 193 308 206 361 q 181 213 181 256 m 531 856 q 501 869 518 856 q 483 897 483 882 q 487 915 483 907 q 497 932 490 924 l 668 1144 q 690 1167 681 1161 q 711 1172 700 1172 q 742 1163 725 1172 q 772 1138 760 1153 q 785 1106 785 1122 q 780 1088 785 1094 q 767 1074 775 1081 l 571 876 q 531 856 550 856 z "},"ă":{"ha":865,"x_min":56,"x_max":892,"o":"m 235 -24 q 139 3 179 -24 q 77 78 99 29 q 56 196 56 128 q 74 330 56 258 q 128 470 92 401 q 219 596 164 539 q 346 687 274 653 q 508 721 418 721 q 597 708 553 721 q 681 674 642 696 l 682 679 q 704 709 690 703 q 743 715 718 715 q 798 702 786 715 q 800 661 810 689 l 632 154 q 624 118 626 135 q 628 92 622 101 q 650 83 635 83 q 684 93 668 83 q 715 119 700 103 q 744 153 731 135 q 767 169 754 165 q 799 160 781 174 q 824 131 822 146 q 819 103 826 117 q 779 50 806 79 q 716 -1 753 21 q 631 -22 679 -22 q 560 -6 586 -22 q 524 35 535 10 q 513 92 514 61 q 518 153 513 122 q 520 159 519 156 q 521 167 521 163 q 419 56 469 97 q 322 -5 368 14 q 235 -24 275 -24 m 181 213 q 192 145 181 174 q 224 102 203 117 q 275 88 244 88 q 375 126 322 88 q 484 237 428 164 q 594 414 540 310 l 650 579 q 574 605 610 599 q 503 611 538 611 q 384 584 436 611 q 294 513 332 557 q 231 415 256 468 q 193 308 206 361 q 181 213 181 256 m 581 858 q 426 931 474 858 q 401 1139 378 1004 q 418 1169 406 1160 q 451 1178 431 1178 q 487 1167 474 1178 q 499 1139 500 1156 q 522 1021 493 1063 q 601 979 550 979 q 711 1026 663 979 q 786 1133 760 1074 q 809 1167 797 1158 q 840 1175 821 1175 q 880 1163 867 1175 q 886 1129 893 1150 q 811 970 853 1029 q 713 885 769 911 q 581 858 657 858 z "},"ǎ":{"ha":865,"x_min":56,"x_max":885,"o":"m 235 -24 q 139 3 179 -24 q 77 78 99 29 q 56 196 56 128 q 74 330 56 258 q 128 470 92 401 q 219 596 164 539 q 346 687 274 653 q 508 721 418 721 q 597 708 553 721 q 681 674 642 696 l 682 679 q 704 709 690 703 q 743 715 718 715 q 798 702 786 715 q 800 661 810 689 l 632 154 q 624 118 626 135 q 628 92 622 101 q 650 83 635 83 q 684 93 668 83 q 715 119 700 103 q 744 153 731 135 q 767 169 754 165 q 799 160 781 174 q 824 131 822 146 q 819 103 826 117 q 779 50 806 79 q 716 -1 753 21 q 631 -22 679 -22 q 560 -6 586 -22 q 524 35 535 10 q 513 92 514 61 q 518 153 513 122 q 520 159 519 156 q 521 167 521 163 q 419 56 469 97 q 322 -5 368 14 q 235 -24 275 -24 m 181 213 q 192 145 181 174 q 224 102 203 117 q 275 88 244 88 q 375 126 322 88 q 484 237 428 164 q 594 414 540 310 l 650 579 q 574 605 610 599 q 503 611 538 611 q 384 584 436 611 q 294 513 332 557 q 231 415 256 468 q 193 308 206 361 q 181 213 181 256 m 842 1178 q 872 1163 858 1178 q 885 1131 885 1147 q 880 1109 885 1117 q 869 1096 875 1101 l 649 889 q 610 865 629 871 q 568 858 592 858 q 535 867 550 858 q 510 894 519 876 l 397 1106 q 390 1124 392 1117 q 388 1138 388 1132 q 408 1166 388 1154 q 442 1178 429 1178 q 465 1171 457 1178 q 478 1154 472 1164 l 599 999 l 801 1157 q 820 1171 811 1164 q 842 1178 829 1178 z "},"â":{"ha":865,"x_min":56,"x_max":836,"o":"m 235 -24 q 139 3 179 -24 q 77 78 99 29 q 56 196 56 128 q 74 330 56 258 q 128 470 92 401 q 219 596 164 539 q 346 687 274 653 q 508 721 418 721 q 597 708 553 721 q 681 674 642 696 l 682 679 q 704 709 690 703 q 743 715 718 715 q 798 702 786 715 q 800 661 810 689 l 632 154 q 624 118 626 135 q 628 92 622 101 q 650 83 635 83 q 684 93 668 83 q 715 119 700 103 q 744 153 731 135 q 767 169 754 165 q 799 160 781 174 q 824 131 822 146 q 819 103 826 117 q 779 50 806 79 q 716 -1 753 21 q 631 -22 679 -22 q 560 -6 586 -22 q 524 35 535 10 q 513 92 514 61 q 518 153 513 122 q 520 159 519 156 q 521 167 521 163 q 419 56 469 97 q 322 -5 368 14 q 235 -24 275 -24 m 181 213 q 192 145 181 174 q 224 102 203 117 q 275 88 244 88 q 375 126 322 88 q 484 237 428 164 q 594 414 540 310 l 650 579 q 574 605 610 599 q 503 611 538 611 q 384 584 436 611 q 294 513 332 557 q 231 415 256 468 q 193 308 206 361 q 181 213 181 256 m 383 847 q 352 863 365 847 q 339 894 339 878 q 344 915 339 907 q 356 929 350 924 l 575 1136 q 614 1160 594 1154 q 656 1167 633 1167 q 690 1158 674 1167 q 714 1131 706 1149 l 828 918 q 835 901 833 908 q 836 888 836 894 q 816 859 836 871 q 782 847 796 847 q 760 854 768 847 q 746 869 753 861 l 626 1026 l 422 868 q 404 855 414 863 q 383 847 394 847 z "},"ä":{"ha":865,"x_min":56,"x_max":867,"o":"m 235 -24 q 139 3 179 -24 q 77 78 99 29 q 56 196 56 128 q 74 330 56 258 q 128 470 92 401 q 219 596 164 539 q 346 687 274 653 q 508 721 418 721 q 597 708 553 721 q 681 674 642 696 l 682 679 q 704 709 690 703 q 743 715 718 715 q 798 702 786 715 q 800 661 810 689 l 632 154 q 624 118 626 135 q 628 92 622 101 q 650 83 635 83 q 684 93 668 83 q 715 119 700 103 q 744 153 731 135 q 767 169 754 165 q 799 160 781 174 q 824 131 822 146 q 819 103 826 117 q 779 50 806 79 q 716 -1 753 21 q 631 -22 679 -22 q 560 -6 586 -22 q 524 35 535 10 q 513 92 514 61 q 518 153 513 122 q 520 159 519 156 q 521 167 521 163 q 419 56 469 97 q 322 -5 368 14 q 235 -24 275 -24 m 181 213 q 192 145 181 174 q 224 102 203 117 q 275 88 244 88 q 375 126 322 88 q 484 237 428 164 q 594 414 540 310 l 650 579 q 574 605 610 599 q 503 611 538 611 q 384 584 436 611 q 294 513 332 557 q 231 415 256 468 q 193 308 206 361 q 181 213 181 256 m 433 929 q 386 947 406 929 q 367 1000 367 965 q 391 1071 367 1038 q 467 1104 415 1104 q 515 1087 496 1104 q 535 1033 535 1069 q 510 963 535 996 q 433 929 486 929 m 768 929 q 719 947 739 929 q 700 1000 700 965 q 724 1071 700 1038 q 800 1104 749 1104 q 849 1087 829 1104 q 868 1033 868 1069 q 844 963 868 996 q 768 929 821 929 z "},"ǽ":{"ha":1242,"x_min":51,"x_max":1221,"o":"m 51 192 q 72 328 51 256 q 133 471 93 401 q 231 597 172 540 q 368 688 290 654 q 542 721 446 721 q 647 711 597 721 q 749 681 696 701 q 864 626 801 661 q 750 452 796 551 q 704 244 704 353 q 722 160 704 196 q 769 104 739 124 q 844 85 800 85 q 921 100 886 85 q 986 142 956 115 q 1047 199 1017 168 q 1085 213 1065 217 q 1119 193 1104 208 q 1139 158 1136 176 q 1124 122 1142 140 q 1026 35 1075 68 q 928 -12 978 3 q 829 -26 879 -26 q 692 8 747 -26 q 608 103 636 43 q 579 238 579 163 q 604 390 579 314 q 665 531 629 465 q 735 646 701 597 l 751 557 q 660 596 713 581 q 533 611 607 611 q 381 570 447 611 q 270 465 315 529 q 203 328 225 400 q 181 193 181 256 q 190 135 181 158 q 218 99 200 111 q 263 88 236 88 q 351 118 304 88 q 447 206 397 149 q 551 344 497 263 q 661 525 604 425 l 753 508 q 605 251 674 354 q 475 88 536 149 q 356 2 414 28 q 240 -24 299 -24 q 99 37 146 -24 q 51 192 51 97 m 1221 560 q 1190 458 1221 504 q 1105 375 1160 411 q 978 313 1050 339 q 822 270 906 286 q 649 249 738 254 l 669 347 q 794 361 732 350 q 910 390 856 372 q 1006 430 964 407 q 1072 481 1049 453 q 1096 542 1096 510 q 1073 594 1096 576 q 997 611 1050 611 q 882 597 936 611 q 774 549 828 583 l 757 661 q 871 705 811 689 q 1019 721 931 721 q 1167 678 1114 721 q 1221 560 1221 635 m 751 856 q 722 869 739 856 q 704 897 704 882 q 708 915 704 907 q 718 932 711 924 l 889 1144 q 911 1167 901 1161 q 932 1172 921 1172 q 963 1163 946 1172 q 993 1138 981 1153 q 1006 1106 1006 1122 q 1001 1088 1006 1094 q 988 1074 996 1081 l 792 876 q 751 856 771 856 z "},"à":{"ha":865,"x_min":56,"x_max":826,"o":"m 235 -24 q 139 3 179 -24 q 77 78 99 29 q 56 196 56 128 q 74 330 56 258 q 128 470 92 401 q 219 596 164 539 q 346 687 274 653 q 508 721 418 721 q 597 708 553 721 q 681 674 642 696 l 682 679 q 704 709 690 703 q 743 715 718 715 q 798 702 786 715 q 800 661 810 689 l 632 154 q 624 118 626 135 q 628 92 622 101 q 650 83 635 83 q 684 93 668 83 q 715 119 700 103 q 744 153 731 135 q 767 169 754 165 q 799 160 781 174 q 824 131 822 146 q 819 103 826 117 q 779 50 806 79 q 716 -1 753 21 q 631 -22 679 -22 q 560 -6 586 -22 q 524 35 535 10 q 513 92 514 61 q 518 153 513 122 q 520 159 519 156 q 521 167 521 163 q 419 56 469 97 q 322 -5 368 14 q 235 -24 275 -24 m 181 213 q 192 145 181 174 q 224 102 203 117 q 275 88 244 88 q 375 126 322 88 q 484 237 428 164 q 594 414 540 310 l 650 579 q 574 605 610 599 q 503 611 538 611 q 384 584 436 611 q 294 513 332 557 q 231 415 256 468 q 193 308 206 361 q 181 213 181 256 m 608 865 q 588 872 599 865 q 567 897 578 879 l 454 1099 q 447 1114 450 1107 q 443 1129 443 1121 q 456 1158 443 1144 q 487 1179 468 1171 q 524 1188 506 1188 q 572 1143 556 1188 l 651 931 q 656 919 654 925 q 657 907 657 913 q 641 876 657 886 q 608 865 625 865 z "},"ā":{"ha":865,"x_min":56,"x_max":846,"o":"m 235 -24 q 139 3 179 -24 q 77 78 99 29 q 56 196 56 128 q 74 330 56 258 q 128 470 92 401 q 219 596 164 539 q 346 687 274 653 q 508 721 418 721 q 597 708 553 721 q 681 674 642 696 l 682 679 q 704 709 690 703 q 743 715 718 715 q 798 702 786 715 q 800 661 810 689 l 632 154 q 624 118 626 135 q 628 92 622 101 q 650 83 635 83 q 684 93 668 83 q 715 119 700 103 q 744 153 731 135 q 767 169 754 165 q 799 160 781 174 q 824 131 822 146 q 819 103 826 117 q 779 50 806 79 q 716 -1 753 21 q 631 -22 679 -22 q 560 -6 586 -22 q 524 35 535 10 q 513 92 514 61 q 518 153 513 122 q 520 159 519 156 q 521 167 521 163 q 419 56 469 97 q 322 -5 368 14 q 235 -24 275 -24 m 181 213 q 192 145 181 174 q 224 102 203 117 q 275 88 244 88 q 375 126 322 88 q 484 237 428 164 q 594 414 540 310 l 650 579 q 574 605 610 599 q 503 611 538 611 q 384 584 436 611 q 294 513 332 557 q 231 415 256 468 q 193 308 206 361 q 181 213 181 256 m 425 953 q 392 969 397 953 q 392 1011 386 986 q 411 1056 399 1040 q 449 1071 424 1071 l 807 1071 q 840 1054 835 1071 q 839 1011 846 1038 q 819 967 832 982 q 782 953 807 953 l 425 953 z "},"ą":{"ha":865,"x_min":56,"x_max":826,"o":"m 235 -24 q 139 3 179 -24 q 77 78 99 29 q 56 196 56 128 q 74 330 56 258 q 128 470 92 401 q 219 596 164 539 q 346 687 274 653 q 508 721 418 721 q 597 708 553 721 q 681 674 642 696 l 682 679 q 704 709 690 703 q 743 715 718 715 q 798 702 786 715 q 800 661 810 689 l 632 154 q 624 118 626 135 q 628 92 622 101 q 650 83 635 83 q 684 93 668 83 q 715 119 700 103 q 744 153 731 135 q 767 169 754 165 q 799 160 781 174 q 824 131 822 146 q 819 103 826 117 q 779 50 806 79 q 716 -1 753 21 q 631 -22 679 -22 q 560 -6 586 -22 q 524 35 535 10 q 513 92 514 61 q 518 153 513 122 q 520 159 519 156 q 521 167 521 163 q 419 56 469 97 q 322 -5 368 14 q 235 -24 275 -24 m 181 213 q 192 145 181 174 q 224 102 203 117 q 275 88 244 88 q 375 126 322 88 q 484 237 428 164 q 594 414 540 310 l 650 579 q 574 605 610 599 q 503 611 538 611 q 384 584 436 611 q 294 513 332 557 q 231 415 256 468 q 193 308 206 361 q 181 213 181 256 m 500 -339 q 431 -316 456 -339 q 406 -253 406 -293 q 426 -178 406 -215 q 484 -105 447 -140 q 569 -33 521 -69 q 671 42 617 4 l 760 42 l 760 35 q 673 -35 714 -1 q 601 -99 632 -68 q 551 -156 569 -131 q 533 -203 533 -182 q 541 -224 533 -217 q 563 -232 549 -232 q 614 -216 589 -232 q 671 -171 639 -200 q 694 -159 679 -161 q 724 -172 708 -157 q 737 -195 733 -182 q 732 -222 740 -208 q 670 -281 710 -254 q 585 -323 631 -307 q 500 -339 540 -339 z "},"å":{"ha":865,"x_min":56,"x_max":826,"o":"m 235 -24 q 139 3 179 -24 q 77 78 99 29 q 56 196 56 128 q 74 330 56 258 q 128 470 92 401 q 219 596 164 539 q 346 687 274 653 q 508 721 418 721 q 597 708 553 721 q 681 674 642 696 l 682 679 q 704 709 690 703 q 743 715 718 715 q 798 702 786 715 q 800 661 810 689 l 632 154 q 624 118 626 135 q 628 92 622 101 q 650 83 635 83 q 684 93 668 83 q 715 119 700 103 q 744 153 731 135 q 767 169 754 165 q 799 160 781 174 q 824 131 822 146 q 819 103 826 117 q 779 50 806 79 q 716 -1 753 21 q 631 -22 679 -22 q 560 -6 586 -22 q 524 35 535 10 q 513 92 514 61 q 518 153 513 122 q 520 159 519 156 q 521 167 521 163 q 419 56 469 97 q 322 -5 368 14 q 235 -24 275 -24 m 181 213 q 192 145 181 174 q 224 102 203 117 q 275 88 244 88 q 375 126 322 88 q 484 237 428 164 q 594 414 540 310 l 650 579 q 574 605 610 599 q 503 611 538 611 q 384 584 436 611 q 294 513 332 557 q 231 415 256 468 q 193 308 206 361 q 181 213 181 256 m 588 835 q 469 876 511 835 q 428 993 428 917 q 456 1095 428 1050 q 533 1167 485 1140 q 640 1194 582 1194 q 764 1155 721 1194 q 807 1039 807 1115 q 778 935 807 982 q 700 862 750 889 q 588 835 650 835 m 594 918 q 650 935 625 918 q 690 978 675 951 q 706 1036 706 1006 q 688 1093 706 1075 q 635 1111 671 1111 q 583 1094 607 1111 q 544 1051 558 1078 q 529 994 529 1025 q 546 938 529 957 q 594 918 563 918 z "},"ã":{"ha":865,"x_min":56,"x_max":882,"o":"m 235 -24 q 139 3 179 -24 q 77 78 99 29 q 56 196 56 128 q 74 330 56 258 q 128 470 92 401 q 219 596 164 539 q 346 687 274 653 q 508 721 418 721 q 597 708 553 721 q 681 674 642 696 l 682 679 q 704 709 690 703 q 743 715 718 715 q 798 702 786 715 q 800 661 810 689 l 632 154 q 624 118 626 135 q 628 92 622 101 q 650 83 635 83 q 684 93 668 83 q 715 119 700 103 q 744 153 731 135 q 767 169 754 165 q 799 160 781 174 q 824 131 822 146 q 819 103 826 117 q 779 50 806 79 q 716 -1 753 21 q 631 -22 679 -22 q 560 -6 586 -22 q 524 35 535 10 q 513 92 514 61 q 518 153 513 122 q 520 159 519 156 q 521 167 521 163 q 419 56 469 97 q 322 -5 368 14 q 235 -24 275 -24 m 181 213 q 192 145 181 174 q 224 102 203 117 q 275 88 244 88 q 375 126 322 88 q 484 237 428 164 q 594 414 540 310 l 650 579 q 574 605 610 599 q 503 611 538 611 q 384 584 436 611 q 294 513 332 557 q 231 415 256 468 q 193 308 206 361 q 181 213 181 256 m 388 889 q 346 928 343 889 q 392 1066 354 1019 q 494 1113 431 1113 q 573 1097 539 1113 q 635 1062 607 1082 q 687 1026 663 1042 q 736 1010 711 1010 q 765 1026 753 1010 q 783 1078 778 1043 q 843 1115 790 1115 q 874 1106 865 1115 q 881 1078 882 1097 q 836 938 872 986 q 733 890 800 890 q 655 906 689 890 q 592 942 621 922 q 540 977 564 961 q 490 993 515 993 q 459 975 472 993 q 440 922 446 957 q 424 897 438 906 q 388 889 411 889 z "},"ắ":{"ha":865,"x_min":56,"x_max":899,"o":"m 235 -24 q 139 3 179 -24 q 77 78 99 29 q 56 196 56 128 q 74 330 56 258 q 128 470 92 401 q 219 596 164 539 q 346 687 274 653 q 508 721 418 721 q 597 708 553 721 q 681 674 642 696 l 682 679 q 704 709 690 703 q 743 715 718 715 q 798 702 786 715 q 800 661 810 689 l 632 154 q 624 118 626 135 q 628 92 622 101 q 650 83 635 83 q 684 93 668 83 q 715 119 700 103 q 744 153 731 135 q 767 169 754 165 q 799 160 781 174 q 824 131 822 146 q 819 103 826 117 q 779 50 806 79 q 716 -1 753 21 q 631 -22 679 -22 q 560 -6 586 -22 q 524 35 535 10 q 513 92 514 61 q 518 153 513 122 q 520 159 519 156 q 521 167 521 163 q 419 56 469 97 q 322 -5 368 14 q 235 -24 275 -24 m 181 213 q 192 145 181 174 q 224 102 203 117 q 275 88 244 88 q 375 126 322 88 q 484 237 428 164 q 594 414 540 310 l 650 579 q 574 605 610 599 q 503 611 538 611 q 384 584 436 611 q 294 513 332 557 q 231 415 256 468 q 193 308 206 361 q 181 213 181 256 m 585 858 q 429 931 478 858 q 404 1139 381 1004 q 420 1169 407 1160 q 456 1178 433 1178 q 492 1167 479 1178 q 504 1139 506 1156 q 526 1022 499 1063 q 606 981 554 981 q 715 1027 667 981 q 789 1133 763 1074 q 812 1167 800 1158 q 844 1175 824 1175 q 885 1163 872 1175 q 892 1129 899 1150 q 816 970 858 1029 q 717 885 774 911 q 585 858 661 858 m 628 1161 q 598 1174 615 1161 q 581 1203 581 1188 q 584 1221 581 1213 q 594 1238 588 1229 l 765 1450 q 788 1472 778 1467 q 808 1478 797 1478 q 840 1468 822 1478 q 869 1443 857 1458 q 882 1411 882 1428 q 877 1393 882 1400 q 864 1379 872 1386 l 668 1182 q 628 1161 647 1161 z "},"ặ":{"ha":865,"x_min":56,"x_max":892,"o":"m 235 -24 q 139 3 179 -24 q 77 78 99 29 q 56 196 56 128 q 74 330 56 258 q 128 470 92 401 q 219 596 164 539 q 346 687 274 653 q 508 721 418 721 q 597 708 553 721 q 681 674 642 696 l 682 679 q 704 709 690 703 q 743 715 718 715 q 798 702 786 715 q 800 661 810 689 l 632 154 q 624 118 626 135 q 628 92 622 101 q 650 83 635 83 q 684 93 668 83 q 715 119 700 103 q 744 153 731 135 q 767 169 754 165 q 799 160 781 174 q 824 131 822 146 q 819 103 826 117 q 779 50 806 79 q 716 -1 753 21 q 631 -22 679 -22 q 560 -6 586 -22 q 524 35 535 10 q 513 92 514 61 q 518 153 513 122 q 520 159 519 156 q 521 167 521 163 q 419 56 469 97 q 322 -5 368 14 q 235 -24 275 -24 m 181 213 q 192 145 181 174 q 224 102 203 117 q 275 88 244 88 q 375 126 322 88 q 484 237 428 164 q 594 414 540 310 l 650 579 q 574 605 610 599 q 503 611 538 611 q 384 584 436 611 q 294 513 332 557 q 231 415 256 468 q 193 308 206 361 q 181 213 181 256 m 226 -322 q 179 -304 199 -322 q 160 -251 160 -286 q 184 -181 160 -214 q 260 -147 208 -147 q 308 -165 289 -147 q 328 -218 328 -183 q 303 -290 328 -257 q 226 -322 279 -322 m 581 858 q 426 931 474 858 q 401 1139 378 1004 q 418 1169 406 1160 q 451 1178 431 1178 q 487 1167 474 1178 q 499 1139 500 1156 q 522 1021 493 1063 q 601 979 550 979 q 711 1026 663 979 q 786 1133 760 1074 q 809 1167 797 1158 q 840 1175 821 1175 q 880 1163 867 1175 q 886 1129 893 1150 q 811 970 853 1029 q 713 885 769 911 q 581 858 657 858 z "},"ằ":{"ha":865,"x_min":56,"x_max":899,"o":"m 235 -24 q 139 3 179 -24 q 77 78 99 29 q 56 196 56 128 q 74 330 56 258 q 128 470 92 401 q 219 596 164 539 q 346 687 274 653 q 508 721 418 721 q 597 708 553 721 q 681 674 642 696 l 682 679 q 704 709 690 703 q 743 715 718 715 q 798 702 786 715 q 800 661 810 689 l 632 154 q 624 118 626 135 q 628 92 622 101 q 650 83 635 83 q 684 93 668 83 q 715 119 700 103 q 744 153 731 135 q 767 169 754 165 q 799 160 781 174 q 824 131 822 146 q 819 103 826 117 q 779 50 806 79 q 716 -1 753 21 q 631 -22 679 -22 q 560 -6 586 -22 q 524 35 535 10 q 513 92 514 61 q 518 153 513 122 q 520 159 519 156 q 521 167 521 163 q 419 56 469 97 q 322 -5 368 14 q 235 -24 275 -24 m 181 213 q 192 145 181 174 q 224 102 203 117 q 275 88 244 88 q 375 126 322 88 q 484 237 428 164 q 594 414 540 310 l 650 579 q 574 605 610 599 q 503 611 538 611 q 384 584 436 611 q 294 513 332 557 q 231 415 256 468 q 193 308 206 361 q 181 213 181 256 m 585 858 q 429 931 478 858 q 404 1139 381 1004 q 420 1169 407 1160 q 456 1178 433 1178 q 492 1167 479 1178 q 504 1139 506 1156 q 526 1022 499 1063 q 606 981 554 981 q 715 1027 667 981 q 789 1133 763 1074 q 812 1167 800 1158 q 844 1175 824 1175 q 885 1163 872 1175 q 892 1129 899 1150 q 816 970 858 1029 q 717 885 774 911 q 585 858 661 858 m 686 1164 q 666 1171 676 1164 q 644 1196 656 1178 l 532 1397 q 524 1413 528 1406 q 521 1428 521 1419 q 533 1456 521 1443 q 565 1478 546 1469 q 601 1486 583 1486 q 650 1442 633 1486 l 729 1229 q 733 1217 732 1224 q 735 1206 735 1211 q 719 1174 735 1185 q 686 1164 703 1164 z "},"ẳ":{"ha":865,"x_min":56,"x_max":897,"o":"m 235 -24 q 139 3 179 -24 q 77 78 99 29 q 56 196 56 128 q 74 330 56 258 q 128 470 92 401 q 219 596 164 539 q 346 687 274 653 q 508 721 418 721 q 597 708 553 721 q 681 674 642 696 l 682 679 q 704 709 690 703 q 743 715 718 715 q 798 702 786 715 q 800 661 810 689 l 632 154 q 624 118 626 135 q 628 92 622 101 q 650 83 635 83 q 684 93 668 83 q 715 119 700 103 q 744 153 731 135 q 767 169 754 165 q 799 160 781 174 q 824 131 822 146 q 819 103 826 117 q 779 50 806 79 q 716 -1 753 21 q 631 -22 679 -22 q 560 -6 586 -22 q 524 35 535 10 q 513 92 514 61 q 518 153 513 122 q 520 159 519 156 q 521 167 521 163 q 419 56 469 97 q 322 -5 368 14 q 235 -24 275 -24 m 181 213 q 192 145 181 174 q 224 102 203 117 q 275 88 244 88 q 375 126 322 88 q 484 237 428 164 q 594 414 540 310 l 650 579 q 574 605 610 599 q 503 611 538 611 q 384 584 436 611 q 294 513 332 557 q 231 415 256 468 q 193 308 206 361 q 181 213 181 256 m 586 858 q 431 931 479 858 q 407 1139 383 1004 q 424 1169 411 1160 q 457 1178 436 1178 q 492 1167 479 1178 q 504 1139 506 1156 q 527 1021 499 1063 q 607 979 556 979 q 717 1026 668 979 q 792 1133 765 1074 q 815 1167 803 1158 q 846 1175 826 1175 q 885 1163 872 1175 q 892 1129 899 1150 q 817 970 858 1029 q 719 885 775 911 q 586 858 663 858 m 692 1456 q 794 1427 757 1456 q 831 1347 831 1399 q 810 1276 831 1307 q 747 1219 789 1246 q 710 1190 719 1203 q 700 1164 700 1178 l 697 1139 q 683 1113 697 1122 q 649 1103 668 1104 q 615 1110 631 1103 q 599 1135 600 1118 l 594 1175 q 605 1233 592 1208 q 649 1276 618 1257 q 685 1306 674 1293 q 696 1332 696 1319 q 688 1349 696 1343 q 663 1356 679 1356 q 626 1349 646 1356 q 582 1333 606 1343 q 553 1333 567 1325 q 529 1363 539 1340 q 550 1419 515 1399 q 618 1447 583 1438 q 692 1456 653 1456 z "},"ẵ":{"ha":865,"x_min":56,"x_max":967,"o":"m 235 -24 q 139 3 179 -24 q 77 78 99 29 q 56 196 56 128 q 74 330 56 258 q 128 470 92 401 q 219 596 164 539 q 346 687 274 653 q 508 721 418 721 q 597 708 553 721 q 681 674 642 696 l 682 679 q 704 709 690 703 q 743 715 718 715 q 798 702 786 715 q 800 661 810 689 l 632 154 q 624 118 626 135 q 628 92 622 101 q 650 83 635 83 q 684 93 668 83 q 715 119 700 103 q 744 153 731 135 q 767 169 754 165 q 799 160 781 174 q 824 131 822 146 q 819 103 826 117 q 779 50 806 79 q 716 -1 753 21 q 631 -22 679 -22 q 560 -6 586 -22 q 524 35 535 10 q 513 92 514 61 q 518 153 513 122 q 520 159 519 156 q 521 167 521 163 q 419 56 469 97 q 322 -5 368 14 q 235 -24 275 -24 m 181 213 q 192 145 181 174 q 224 102 203 117 q 275 88 244 88 q 375 126 322 88 q 484 237 428 164 q 594 414 540 310 l 650 579 q 574 605 610 599 q 503 611 538 611 q 384 584 436 611 q 294 513 332 557 q 231 415 256 468 q 193 308 206 361 q 181 213 181 256 m 581 858 q 426 931 474 858 q 401 1139 378 1004 q 418 1169 406 1160 q 451 1178 431 1178 q 487 1167 474 1178 q 499 1139 500 1156 q 522 1021 493 1063 q 601 979 550 979 q 711 1026 663 979 q 786 1133 760 1074 q 809 1167 797 1158 q 840 1175 821 1175 q 880 1163 867 1175 q 886 1129 893 1150 q 811 970 853 1029 q 713 885 769 911 q 581 858 657 858 m 472 1219 q 431 1258 428 1219 q 477 1397 439 1350 q 579 1443 515 1443 q 658 1428 624 1443 q 719 1392 692 1413 q 772 1356 747 1372 q 821 1340 796 1340 q 850 1357 838 1340 q 868 1408 863 1374 q 928 1446 875 1446 q 958 1437 950 1446 q 965 1408 967 1428 q 921 1269 957 1317 q 818 1221 885 1221 q 740 1237 774 1221 q 677 1272 706 1253 q 624 1308 649 1292 q 575 1324 600 1324 q 544 1306 557 1324 q 525 1253 531 1288 q 509 1228 522 1236 q 472 1219 496 1219 z "},"ấ":{"ha":865,"x_min":56,"x_max":1089,"o":"m 235 -24 q 139 3 179 -24 q 77 78 99 29 q 56 196 56 128 q 74 330 56 258 q 128 470 92 401 q 219 596 164 539 q 346 687 274 653 q 508 721 418 721 q 597 708 553 721 q 681 674 642 696 l 682 679 q 704 709 690 703 q 743 715 718 715 q 798 702 786 715 q 800 661 810 689 l 632 154 q 624 118 626 135 q 628 92 622 101 q 650 83 635 83 q 684 93 668 83 q 715 119 700 103 q 744 153 731 135 q 767 169 754 165 q 799 160 781 174 q 824 131 822 146 q 819 103 826 117 q 779 50 806 79 q 716 -1 753 21 q 631 -22 679 -22 q 560 -6 586 -22 q 524 35 535 10 q 513 92 514 61 q 518 153 513 122 q 520 159 519 156 q 521 167 521 163 q 419 56 469 97 q 322 -5 368 14 q 235 -24 275 -24 m 181 213 q 192 145 181 174 q 224 102 203 117 q 275 88 244 88 q 375 126 322 88 q 484 237 428 164 q 594 414 540 310 l 650 579 q 574 605 610 599 q 503 611 538 611 q 384 584 436 611 q 294 513 332 557 q 231 415 256 468 q 193 308 206 361 q 181 213 181 256 m 383 847 q 352 863 365 847 q 339 894 339 878 q 344 915 339 907 q 356 929 350 924 l 575 1136 q 614 1160 594 1154 q 656 1167 633 1167 q 690 1158 674 1167 q 714 1131 706 1149 l 828 918 q 835 901 833 908 q 836 888 836 894 q 816 859 836 871 q 782 847 796 847 q 760 854 768 847 q 746 869 753 861 l 626 1026 l 422 868 q 404 855 414 863 q 383 847 394 847 m 835 1064 q 805 1077 822 1064 q 788 1106 788 1090 q 791 1124 788 1115 q 801 1140 794 1132 l 972 1353 q 994 1375 985 1369 q 1015 1381 1004 1381 q 1047 1371 1029 1381 q 1076 1346 1064 1361 q 1089 1314 1089 1331 q 1084 1296 1089 1303 q 1071 1282 1079 1289 l 875 1085 q 835 1064 854 1064 z "},"ậ":{"ha":865,"x_min":56,"x_max":836,"o":"m 235 -24 q 139 3 179 -24 q 77 78 99 29 q 56 196 56 128 q 74 330 56 258 q 128 470 92 401 q 219 596 164 539 q 346 687 274 653 q 508 721 418 721 q 597 708 553 721 q 681 674 642 696 l 682 679 q 704 709 690 703 q 743 715 718 715 q 798 702 786 715 q 800 661 810 689 l 632 154 q 624 118 626 135 q 628 92 622 101 q 650 83 635 83 q 684 93 668 83 q 715 119 700 103 q 744 153 731 135 q 767 169 754 165 q 799 160 781 174 q 824 131 822 146 q 819 103 826 117 q 779 50 806 79 q 716 -1 753 21 q 631 -22 679 -22 q 560 -6 586 -22 q 524 35 535 10 q 513 92 514 61 q 518 153 513 122 q 520 159 519 156 q 521 167 521 163 q 419 56 469 97 q 322 -5 368 14 q 235 -24 275 -24 m 181 213 q 192 145 181 174 q 224 102 203 117 q 275 88 244 88 q 375 126 322 88 q 484 237 428 164 q 594 414 540 310 l 650 579 q 574 605 610 599 q 503 611 538 611 q 384 584 436 611 q 294 513 332 557 q 231 415 256 468 q 193 308 206 361 q 181 213 181 256 m 226 -322 q 179 -304 199 -322 q 160 -251 160 -286 q 184 -181 160 -214 q 260 -147 208 -147 q 308 -165 289 -147 q 328 -218 328 -183 q 303 -290 328 -257 q 226 -322 279 -322 m 383 847 q 352 863 365 847 q 339 894 339 878 q 344 915 339 907 q 356 929 350 924 l 575 1136 q 614 1160 594 1154 q 656 1167 633 1167 q 690 1158 674 1167 q 714 1131 706 1149 l 828 918 q 835 901 833 908 q 836 888 836 894 q 816 859 836 871 q 782 847 796 847 q 760 854 768 847 q 746 869 753 861 l 626 1026 l 422 868 q 404 855 414 863 q 383 847 394 847 z "},"ầ":{"ha":865,"x_min":56,"x_max":922,"o":"m 235 -24 q 139 3 179 -24 q 77 78 99 29 q 56 196 56 128 q 74 330 56 258 q 128 470 92 401 q 219 596 164 539 q 346 687 274 653 q 508 721 418 721 q 597 708 553 721 q 681 674 642 696 l 682 679 q 704 709 690 703 q 743 715 718 715 q 798 702 786 715 q 800 661 810 689 l 632 154 q 624 118 626 135 q 628 92 622 101 q 650 83 635 83 q 684 93 668 83 q 715 119 700 103 q 744 153 731 135 q 767 169 754 165 q 799 160 781 174 q 824 131 822 146 q 819 103 826 117 q 779 50 806 79 q 716 -1 753 21 q 631 -22 679 -22 q 560 -6 586 -22 q 524 35 535 10 q 513 92 514 61 q 518 153 513 122 q 520 159 519 156 q 521 167 521 163 q 419 56 469 97 q 322 -5 368 14 q 235 -24 275 -24 m 181 213 q 192 145 181 174 q 224 102 203 117 q 275 88 244 88 q 375 126 322 88 q 484 237 428 164 q 594 414 540 310 l 650 579 q 574 605 610 599 q 503 611 538 611 q 384 584 436 611 q 294 513 332 557 q 231 415 256 468 q 193 308 206 361 q 181 213 181 256 m 383 847 q 352 863 365 847 q 339 894 339 878 q 344 915 339 907 q 356 929 350 924 l 575 1136 q 614 1160 594 1154 q 656 1167 633 1167 q 690 1158 674 1167 q 714 1131 706 1149 l 828 918 q 835 901 833 908 q 836 888 836 894 q 816 859 836 871 q 782 847 796 847 q 760 854 768 847 q 746 869 753 861 l 626 1026 l 422 868 q 404 855 414 863 q 383 847 394 847 m 874 1074 q 853 1081 864 1074 q 832 1106 843 1088 l 719 1307 q 712 1322 715 1315 q 708 1338 708 1329 q 721 1366 708 1353 q 752 1388 733 1379 q 789 1396 771 1396 q 838 1351 821 1396 l 917 1139 q 921 1127 919 1133 q 922 1115 922 1121 q 906 1084 922 1094 q 874 1074 890 1074 z "},"ẩ":{"ha":865,"x_min":56,"x_max":1047,"o":"m 235 -24 q 139 3 179 -24 q 77 78 99 29 q 56 196 56 128 q 74 330 56 258 q 128 470 92 401 q 219 596 164 539 q 346 687 274 653 q 508 721 418 721 q 597 708 553 721 q 681 674 642 696 l 682 679 q 704 709 690 703 q 743 715 718 715 q 798 702 786 715 q 800 661 810 689 l 632 154 q 624 118 626 135 q 628 92 622 101 q 650 83 635 83 q 684 93 668 83 q 715 119 700 103 q 744 153 731 135 q 767 169 754 165 q 799 160 781 174 q 824 131 822 146 q 819 103 826 117 q 779 50 806 79 q 716 -1 753 21 q 631 -22 679 -22 q 560 -6 586 -22 q 524 35 535 10 q 513 92 514 61 q 518 153 513 122 q 520 159 519 156 q 521 167 521 163 q 419 56 469 97 q 322 -5 368 14 q 235 -24 275 -24 m 181 213 q 192 145 181 174 q 224 102 203 117 q 275 88 244 88 q 375 126 322 88 q 484 237 428 164 q 594 414 540 310 l 650 579 q 574 605 610 599 q 503 611 538 611 q 384 584 436 611 q 294 513 332 557 q 231 415 256 468 q 193 308 206 361 q 181 213 181 256 m 389 847 q 358 863 371 847 q 344 894 344 878 q 350 915 344 907 q 361 929 356 924 l 581 1136 q 619 1160 600 1154 q 661 1167 639 1167 q 695 1158 679 1167 q 719 1131 711 1149 l 833 918 q 840 901 839 908 q 842 888 842 894 q 822 859 842 871 q 788 847 801 847 q 766 854 774 847 q 751 869 758 861 l 632 1026 l 428 868 q 410 855 419 863 q 389 847 400 847 m 908 1397 q 1010 1369 974 1397 q 1047 1289 1047 1340 q 1026 1217 1047 1249 q 964 1161 1006 1186 q 926 1131 936 1143 q 917 1104 917 1118 l 914 1081 q 899 1053 914 1063 q 866 1044 885 1044 q 832 1052 847 1044 q 815 1076 817 1060 l 811 1115 q 822 1173 808 1149 q 865 1218 835 1197 q 901 1248 890 1235 q 913 1272 913 1261 q 904 1291 913 1285 q 879 1297 896 1297 q 842 1291 863 1297 q 799 1274 822 1285 q 769 1274 783 1267 q 746 1303 756 1282 q 767 1361 732 1339 q 835 1388 800 1379 q 908 1397 869 1397 z "}}}
